SplineFontDB: 3.0
FontName: KellySlab-Regular
FullName: Kelly Slab
FamilyName: Kelly Slab
Weight: Regular
Copyright: Copyright (c) 2011, Denis Masharov <denis.masharov@gmail.com>, with Reserved Font Names "Kelly", "Kelly Slab".
Version: 1.000
ItalicAngle: 0
UnderlinePosition: -50
UnderlineWidth: 50
Ascent: 800
Descent: 200
sfntRevision: 0x00010000
LayerCount: 2
Layer: 0 1 "Back"  1
Layer: 1 1 "Fore"  0
XUID: [1021 288 713564382 3920365]
FSType: 0
OS2Version: 2
OS2_WeightWidthSlopeOnly: 0
OS2_UseTypoMetrics: 1
CreationTime: 1310407938
ModificationTime: 1310758704
PfmFamily: 17
TTFWeight: 400
TTFWidth: 5
LineGap: 0
VLineGap: 0
Panose: 2 0 0 0 0 0 0 0 0 0
OS2TypoAscent: 162
OS2TypoAOffset: 1
OS2TypoDescent: -50
OS2TypoDOffset: 1
OS2TypoLinegap: 0
OS2WinAscent: 0
OS2WinAOffset: 1
OS2WinDescent: 0
OS2WinDOffset: 1
HheadAscent: 0
HheadAOffset: 1
HheadDescent: 0
HheadDOffset: 1
OS2SubXSize: 700
OS2SubYSize: 650
OS2SubXOff: 0
OS2SubYOff: 140
OS2SupXSize: 700
OS2SupYSize: 650
OS2SupXOff: 0
OS2SupYOff: 477
OS2StrikeYSize: 50
OS2StrikeYPos: 250
OS2Vendor: 'PYRS'
OS2CodePages: 00000097.04000000
OS2UnicodeRanges: a000022f.1000004a.00000000.00000000
Lookup: 258 0 0 "'kern' Horizontal Kerning lookup 0"  {"'kern' Horizontal Kerning lookup 0 subtable"  } ['kern' ('DFLT' <'dflt' > 'cyrl' <'dflt' > 'latn' <'dflt' > ) ]
MarkAttachClasses: 1
DEI: 91125
LangName: 1033 "" "" "" "" "" "Version 1.000" "" "Kelly is a trademark of Denis Masharov." "Denis Masharov" "Denis Masharov" "Copyright (c) 2011, Denis Masharov <denis.masharov@gmail.com>. This Font Software is licensed under the SIL Open Font License, Version 1.1. This license is available with a FAQ at: http://scripts.sil.org/OFL" "denis.masharov@gmail.com" "denis.masharov@gmail.com" "This Font Software is licensed under the SIL Open Font License, Version 1.1. This license is available with a FAQ at: http://scripts.sil.org/OFL" "http://scripts.sil.org/OFL" 
GaspTable: 1 65535 3
Encoding: UnicodeBmp
UnicodeInterp: none

StartChar: E
Encoding: 69 69 4
Width: 584
Flags: W
LayerCount: 2
Fore
SplineSet
65 326 m 1,0,-1
 128 366 l 1,1,-1
 128 682 l 1,2,-1
 65 682 l 1,3,-1
 65 750 l 1,4,-1
 534 750 l 1,5,-1
 534 565 l 1,6,-1
 466 565 l 1,7,-1
 466 682 l 1,8,-1
 210 682 l 1,9,-1
 210 416 l 1,10,-1
 382 525 l 1,11,-1
 382 444 l 1,12,-1
 210 337 l 1,13,-1
 210 68 l 1,14,-1
 466 68 l 1,15,-1
 466 185 l 1,16,-1
 534 185 l 1,17,-1
 534 0 l 1,18,-1
 65 0 l 1,19,-1
 65 68 l 1,20,-1
 128 68 l 1,21,-1
 128 285 l 1,22,-1
 65 245 l 1,23,-1
 65 326 l 1,0,-1
EndSplineSet
EndChar

StartChar: F
Encoding: 70 70 5
Width: 584
Flags: W
LayerCount: 2
Fore
SplineSet
65 326 m 1,0,-1
 128 366 l 1,1,-1
 128 682 l 1,2,-1
 65 682 l 1,3,-1
 65 750 l 1,4,-1
 534 750 l 1,5,-1
 534 565 l 1,6,-1
 466 565 l 1,7,-1
 466 682 l 1,8,-1
 210 682 l 1,9,-1
 210 416 l 1,10,-1
 382 525 l 1,11,-1
 382 444 l 1,12,-1
 210 337 l 1,13,-1
 210 68 l 1,14,-1
 275 68 l 1,15,-1
 275 0 l 1,16,-1
 65 0 l 1,17,-1
 65 68 l 1,18,-1
 128 68 l 1,19,-1
 128 285 l 1,20,-1
 65 245 l 1,21,-1
 65 326 l 1,0,-1
EndSplineSet
EndChar

StartChar: G
Encoding: 71 71 6
Width: 542
Flags: W
LayerCount: 2
Fore
SplineSet
482 565 m 1,0,-1
 402 565 l 1,1,-1
 402 682 l 1,2,-1
 142 682 l 1,3,-1
 142 68 l 1,4,-1
 402 68 l 1,5,-1
 402 302 l 1,6,-1
 263 215 l 1,7,-1
 263 288 l 1,8,-1
 482 425 l 1,9,-1
 482 0 l 1,10,-1
 185 0 l 2,11,12
 150 0 150 0 126 6 c 128,-1,13
 102 12 102 12 87.5 26 c 128,-1,14
 73 40 73 40 66.5 64 c 128,-1,15
 60 88 60 88 60 124 c 2,16,-1
 60 635 l 2,17,18
 60 658 60 658 65 679 c 128,-1,19
 70 700 70 700 82 715.5 c 128,-1,20
 94 731 94 731 114.5 740.5 c 128,-1,21
 135 750 135 750 167 750 c 2,22,-1
 482 750 l 1,23,-1
 482 565 l 1,0,-1
EndSplineSet
EndChar

StartChar: I
Encoding: 73 73 7
Width: 370
Flags: W
LayerCount: 2
Fore
SplineSet
225 68 m 1,0,-1
 290 68 l 1,1,-1
 290 0 l 1,2,-1
 80 0 l 1,3,-1
 80 68 l 1,4,-1
 143 68 l 1,5,-1
 143 682 l 1,6,-1
 80 682 l 1,7,-1
 80 750 l 1,8,-1
 290 750 l 1,9,-1
 290 682 l 1,10,-1
 225 682 l 1,11,-1
 225 68 l 1,0,-1
EndSplineSet
EndChar

StartChar: J
Encoding: 74 74 8
Width: 406
Flags: W
LayerCount: 2
Fore
SplineSet
341 682 m 1,0,-1
 276 682 l 1,1,-1
 276 117 l 2,2,3
 276 97 276 97 271 76 c 128,-1,4
 266 55 266 55 254 38 c 128,-1,5
 242 21 242 21 221 10.5 c 128,-1,6
 200 0 200 0 169 0 c 2,7,-1
 20 0 l 1,8,-1
 20 68 l 1,9,-1
 194 68 l 1,10,-1
 194 682 l 1,11,-1
 130 682 l 1,12,-1
 130 750 l 1,13,-1
 341 750 l 1,14,-1
 341 682 l 1,0,-1
EndSplineSet
EndChar

StartChar: K
Encoding: 75 75 9
Width: 605
Flags: W
LayerCount: 2
Fore
SplineSet
575 68 m 1,0,-1
 575 0 l 1,1,-1
 461 0 l 1,2,-1
 210 373 l 1,3,-1
 210 68 l 1,4,-1
 275 68 l 1,5,-1
 275 0 l 1,6,-1
 65 0 l 1,7,-1
 65 68 l 1,8,-1
 128 68 l 1,9,-1
 128 682 l 1,10,-1
 65 682 l 1,11,-1
 65 750 l 1,12,-1
 275 750 l 1,13,-1
 275 682 l 1,14,-1
 206 682 l 1,15,-1
 206 403 l 1,16,-1
 461 750 l 1,17,-1
 569 750 l 1,18,-1
 569 682 l 1,19,-1
 502 682 l 1,20,-1
 294 390 l 1,21,-1
 511 68 l 1,22,-1
 575 68 l 1,0,-1
EndSplineSet
EndChar

StartChar: L
Encoding: 76 76 10
Width: 528
Flags: W
LayerCount: 2
Fore
SplineSet
65 68 m 1,0,-1
 128 68 l 1,1,-1
 128 682 l 1,2,-1
 65 682 l 1,3,-1
 65 750 l 1,4,-1
 275 750 l 1,5,-1
 275 682 l 1,6,-1
 210 682 l 1,7,-1
 210 68 l 1,8,-1
 420 68 l 1,9,-1
 420 185 l 1,10,-1
 488 185 l 1,11,-1
 488 0 l 1,12,-1
 65 0 l 1,13,-1
 65 68 l 1,0,-1
EndSplineSet
EndChar

StartChar: M
Encoding: 77 77 11
Width: 860
Flags: W
LayerCount: 2
Fore
SplineSet
65 682 m 1,0,-1
 65 750 l 1,1,-1
 219 750 l 1,2,-1
 431 313 l 1,3,-1
 641 750 l 1,4,-1
 795 750 l 1,5,-1
 795 682 l 1,6,-1
 732 682 l 1,7,-1
 732 68 l 1,8,-1
 795 68 l 1,9,-1
 795 0 l 1,10,-1
 585 0 l 1,11,-1
 585 68 l 1,12,-1
 650 68 l 1,13,-1
 650 583 l 1,14,-1
 461 194 l 1,15,-1
 398 194 l 1,16,-1
 210 586 l 1,17,-1
 210 68 l 1,18,-1
 275 68 l 1,19,-1
 275 0 l 1,20,-1
 65 0 l 1,21,-1
 65 68 l 1,22,-1
 128 68 l 1,23,-1
 128 682 l 1,24,-1
 65 682 l 1,0,-1
EndSplineSet
EndChar

StartChar: N
Encoding: 78 78 12
Width: 719
Flags: W
LayerCount: 2
Fore
SplineSet
654 682 m 1,0,-1
 591 682 l 1,1,-1
 591 0 l 1,2,-1
 493 0 l 1,3,-1
 210 584 l 1,4,-1
 210 68 l 1,5,-1
 275 68 l 1,6,-1
 275 0 l 1,7,-1
 65 0 l 1,8,-1
 65 68 l 1,9,-1
 128 68 l 1,10,-1
 128 682 l 1,11,-1
 65 682 l 1,12,-1
 65 750 l 1,13,-1
 219 750 l 1,14,-1
 509 154 l 1,15,-1
 509 682 l 1,16,-1
 444 682 l 1,17,-1
 444 750 l 1,18,-1
 654 750 l 1,19,-1
 654 682 l 1,0,-1
EndSplineSet
EndChar

StartChar: O
Encoding: 79 79 13
Width: 542
Flags: W
LayerCount: 2
Fore
SplineSet
140 68 m 1,0,-1
 402 68 l 1,1,-1
 402 682 l 1,2,-1
 140 682 l 1,3,-1
 140 68 l 1,0,-1
366 750 m 2,4,5
 427 750 427 750 454.5 716.5 c 128,-1,6
 482 683 482 683 482 617 c 2,7,-1
 482 136 l 2,8,9
 482 64 482 64 458 32 c 128,-1,10
 434 0 434 0 371 0 c 2,11,-1
 179 0 l 2,12,13
 144 0 144 0 121.5 8.5 c 128,-1,14
 99 17 99 17 85 33 c 128,-1,15
 71 49 71 49 65.5 71.5 c 128,-1,16
 60 94 60 94 60 121 c 2,17,-1
 60 617 l 2,18,19
 60 648 60 648 64.5 672.5 c 128,-1,20
 69 697 69 697 81.5 714.5 c 128,-1,21
 94 732 94 732 115.5 741 c 128,-1,22
 137 750 137 750 171 750 c 2,23,-1
 366 750 l 2,4,5
EndSplineSet
EndChar

StartChar: Q
Encoding: 81 81 14
Width: 542
Flags: W
LayerCount: 2
Fore
SplineSet
231 118 m 1,0,-1
 311 118 l 1,1,-1
 311 68 l 1,2,-1
 402 68 l 1,3,-1
 402 682 l 1,4,-1
 140 682 l 1,5,-1
 140 68 l 1,6,-1
 231 68 l 1,7,-1
 231 118 l 1,0,-1
366 750 m 2,8,9
 427 750 427 750 454.5 716.5 c 128,-1,10
 482 683 482 683 482 617 c 2,11,-1
 482 136 l 2,12,13
 482 64 482 64 458 32 c 128,-1,14
 434 0 434 0 371 0 c 2,15,-1
 311 0 l 1,16,-1
 311 -60 l 1,17,-1
 231 -60 l 1,18,-1
 231 0 l 1,19,-1
 179 0 l 2,20,21
 144 0 144 0 121.5 8.5 c 128,-1,22
 99 17 99 17 85 33 c 128,-1,23
 71 49 71 49 65.5 71.5 c 128,-1,24
 60 94 60 94 60 121 c 2,25,-1
 60 617 l 2,26,27
 60 648 60 648 64.5 672.5 c 128,-1,28
 69 697 69 697 81.5 714.5 c 128,-1,29
 94 732 94 732 115.5 741 c 128,-1,30
 137 750 137 750 171 750 c 2,31,-1
 366 750 l 2,8,9
EndSplineSet
EndChar

StartChar: S
Encoding: 83 83 15
Width: 542
Flags: W
LayerCount: 2
Fore
SplineSet
388 367 m 1,0,1
 408 353 408 353 425.5 342.5 c 128,-1,2
 443 332 443 332 455.5 320.5 c 128,-1,3
 468 309 468 309 475 295.5 c 128,-1,4
 482 282 482 282 482 261 c 2,5,-1
 482 91 l 2,6,7
 482 67 482 67 473.5 50 c 128,-1,8
 465 33 465 33 450.5 21.5 c 128,-1,9
 436 10 436 10 417.5 5 c 128,-1,10
 399 0 399 0 379 0 c 2,11,-1
 60 0 l 1,12,-1
 60 185 l 1,13,-1
 132 185 l 1,14,-1
 132 68 l 1,15,-1
 402 68 l 1,16,-1
 402 263 l 1,17,-1
 140 424 l 1,18,19
 105 444 105 444 82.5 465.5 c 128,-1,20
 60 487 60 487 60 524 c 2,21,-1
 60 650 l 2,22,23
 60 681 60 681 67 700.5 c 128,-1,24
 74 720 74 720 88 731 c 128,-1,25
 102 742 102 742 122.5 746 c 128,-1,26
 143 750 143 750 171 750 c 2,27,-1
 473 750 l 1,28,-1
 473 565 l 1,29,-1
 401 565 l 1,30,-1
 401 682 l 1,31,-1
 140 682 l 1,32,-1
 140 522 l 1,33,-1
 388 367 l 1,0,1
EndSplineSet
EndChar

StartChar: T
Encoding: 84 84 16
Width: 529
Flags: W
LayerCount: 2
Fore
SplineSet
160 68 m 1,0,-1
 223 68 l 1,1,-1
 223 682 l 1,2,-1
 97 682 l 1,3,-1
 97 564 l 1,4,-1
 25 564 l 1,5,-1
 25 750 l 1,6,-1
 504 750 l 1,7,-1
 504 564 l 1,8,-1
 431 564 l 1,9,-1
 431 682 l 1,10,-1
 305 682 l 1,11,-1
 305 68 l 1,12,-1
 370 68 l 1,13,-1
 370 0 l 1,14,-1
 160 0 l 1,15,-1
 160 68 l 1,0,-1
EndSplineSet
EndChar

StartChar: U
Encoding: 85 85 17
Width: 682
Flags: W
LayerCount: 2
Fore
SplineSet
60 750 m 1,0,-1
 270 750 l 1,1,-1
 270 682 l 1,2,-1
 205 682 l 1,3,-1
 205 68 l 1,4,-1
 477 68 l 1,5,-1
 477 682 l 1,6,-1
 412 682 l 1,7,-1
 412 750 l 1,8,-1
 622 750 l 1,9,-1
 622 682 l 1,10,-1
 559 682 l 1,11,-1
 559 104 l 2,12,13
 559 50 559 50 536.5 25 c 128,-1,14
 514 0 514 0 469 0 c 2,15,-1
 212 0 l 2,16,17
 166 0 166 0 144.5 25.5 c 128,-1,18
 123 51 123 51 123 99 c 2,19,-1
 123 682 l 1,20,-1
 60 682 l 1,21,-1
 60 750 l 1,0,-1
EndSplineSet
EndChar

StartChar: V
Encoding: 86 86 18
Width: 640
Flags: W
LayerCount: 2
Fore
SplineSet
25 750 m 1,0,-1
 208 750 l 1,1,-1
 208 682 l 1,2,-1
 156 682 l 1,3,-1
 321 68 l 1,4,-1
 485 682 l 1,5,-1
 422 682 l 1,6,-1
 422 750 l 1,7,-1
 615 750 l 1,8,-1
 615 682 l 1,9,-1
 561 682 l 1,10,-1
 378 0 l 1,11,-1
 263 0 l 1,12,-1
 81 682 l 1,13,-1
 25 682 l 1,14,-1
 25 750 l 1,0,-1
EndSplineSet
EndChar

StartChar: W
Encoding: 87 87 19
Width: 836
Flags: W
LayerCount: 2
Fore
SplineSet
811 750 m 1,0,-1
 811 682 l 1,1,-1
 763 682 l 1,2,-1
 656 0 l 1,3,-1
 526 0 l 1,4,-1
 418 681 l 1,5,-1
 310 0 l 1,6,-1
 180 0 l 1,7,-1
 73 682 l 1,8,-1
 25 682 l 1,9,-1
 25 750 l 1,10,-1
 190 750 l 1,11,-1
 190 682 l 1,12,-1
 150 682 l 1,13,-1
 245 68 l 1,14,-1
 350 750 l 1,15,-1
 486 750 l 1,16,-1
 591 68 l 1,17,-1
 686 682 l 1,18,-1
 646 682 l 1,19,-1
 646 750 l 1,20,-1
 811 750 l 1,0,-1
EndSplineSet
EndChar

StartChar: X
Encoding: 88 88 20
Width: 590
Flags: W
LayerCount: 2
Fore
SplineSet
565 68 m 1,0,-1
 565 0 l 1,1,-1
 461 0 l 1,2,-1
 296 312 l 1,3,-1
 131 0 l 1,4,-1
 25 0 l 1,5,-1
 25 68 l 1,6,-1
 82 68 l 1,7,-1
 253 394 l 1,8,-1
 102 682 l 1,9,-1
 42 682 l 1,10,-1
 42 750 l 1,11,-1
 152 750 l 1,12,-1
 295 474 l 1,13,-1
 440 750 l 1,14,-1
 548 750 l 1,15,-1
 548 682 l 1,16,-1
 489 682 l 1,17,-1
 337 394 l 1,18,-1
 510 68 l 1,19,-1
 565 68 l 1,0,-1
EndSplineSet
EndChar

StartChar: Y
Encoding: 89 89 21
Width: 556
Flags: W
LayerCount: 2
Fore
SplineSet
531 750 m 1,0,-1
 531 682 l 1,1,-1
 493 682 l 1,2,-1
 318 369 l 1,3,-1
 318 68 l 1,4,-1
 383 68 l 1,5,-1
 383 0 l 1,6,-1
 173 0 l 1,7,-1
 173 68 l 1,8,-1
 236 68 l 1,9,-1
 236 369 l 1,10,-1
 70 682 l 1,11,-1
 25 682 l 1,12,-1
 25 750 l 1,13,-1
 187 750 l 1,14,-1
 187 682 l 1,15,-1
 151 682 l 1,16,-1
 278 438 l 1,17,-1
 408 682 l 1,18,-1
 372 682 l 1,19,-1
 372 750 l 1,20,-1
 531 750 l 1,0,-1
EndSplineSet
EndChar

StartChar: Z
Encoding: 90 90 22
Width: 521
Flags: W
LayerCount: 2
Fore
SplineSet
116 68 m 1,0,-1
 411 68 l 1,1,-1
 411 182 l 1,2,-1
 481 182 l 1,3,-1
 481 0 l 1,4,-1
 30 0 l 1,5,-1
 30 72 l 1,6,-1
 407 682 l 1,7,-1
 128 682 l 1,8,-1
 128 570 l 1,9,-1
 57 570 l 1,10,-1
 57 750 l 1,11,-1
 491 750 l 1,12,-1
 491 678 l 1,13,-1
 116 68 l 1,0,-1
EndSplineSet
EndChar

StartChar: a
Encoding: 97 97 23
Width: 493
Flags: W
LayerCount: 2
Fore
SplineSet
308 278 m 1,0,-1
 100 148 l 1,1,-1
 100 68 l 1,2,-1
 308 68 l 1,3,-1
 308 278 l 1,0,-1
453 68 m 1,4,-1
 453 0 l 1,5,-1
 105 0 l 2,6,7
 79 0 79 0 62.5 4.5 c 128,-1,8
 46 9 46 9 36.5 19.5 c 128,-1,9
 27 30 27 30 23.5 47 c 128,-1,10
 20 64 20 64 20 88 c 2,11,-1
 20 125 l 2,12,13
 20 143 20 143 22 155 c 128,-1,14
 24 167 24 167 31 177 c 128,-1,15
 38 187 38 187 51.5 197 c 128,-1,16
 65 207 65 207 88 221 c 2,17,-1
 308 358 l 1,18,-1
 308 432 l 1,19,-1
 112 432 l 1,20,-1
 112 374 l 1,21,-1
 48 374 l 1,22,-1
 48 500 l 1,23,-1
 298 500 l 2,24,25
 349 500 349 500 369.5 478 c 128,-1,26
 390 456 390 456 390 414 c 2,27,-1
 390 68 l 1,28,-1
 453 68 l 1,4,-1
EndSplineSet
EndChar

StartChar: b
Encoding: 98 98 24
Width: 527
Flags: W
LayerCount: 2
Fore
SplineSet
397 442 m 1,0,-1
 185 309 l 1,1,-1
 185 68 l 1,2,-1
 397 68 l 1,3,-1
 397 442 l 1,0,-1
355 496 m 2,4,5
 377 510 377 510 405 510 c 0,6,7
 436 510 436 510 456.5 488 c 128,-1,8
 477 466 477 466 477 424 c 2,9,-1
 477 88 l 2,10,11
 477 70 477 70 473.5 54 c 128,-1,12
 470 38 470 38 460.5 26 c 128,-1,13
 451 14 451 14 434 7 c 128,-1,14
 417 0 417 0 391 0 c 2,15,-1
 40 0 l 1,16,-1
 40 68 l 1,17,-1
 103 68 l 1,18,-1
 103 682 l 1,19,-1
 40 682 l 1,20,-1
 40 750 l 1,21,-1
 185 750 l 1,22,-1
 185 389 l 1,23,-1
 355 496 l 2,4,5
EndSplineSet
EndChar

StartChar: c
Encoding: 99 99 25
Width: 426
Flags: W
LayerCount: 2
Fore
SplineSet
386 0 m 1,0,-1
 137 0 l 2,1,2
 110 0 110 0 93.5 7 c 128,-1,3
 77 14 77 14 67 26 c 128,-1,4
 57 38 57 38 53.5 54 c 128,-1,5
 50 70 50 70 50 88 c 2,6,-1
 50 412 l 2,7,8
 50 454 50 454 73.5 477.5 c 128,-1,9
 97 501 97 501 145 501 c 2,10,-1
 386 501 l 1,11,-1
 386 374 l 1,12,-1
 318 374 l 1,13,-1
 318 432 l 1,14,-1
 130 432 l 1,15,-1
 130 68 l 1,16,-1
 318 68 l 1,17,-1
 318 126 l 1,18,-1
 386 126 l 1,19,-1
 386 0 l 1,0,-1
EndSplineSet
EndChar

StartChar: d
Encoding: 100 100 26
Width: 527
Flags: W
LayerCount: 2
Fore
SplineSet
342 432 m 1,0,-1
 130 432 l 1,1,-1
 130 63 l 1,2,-1
 342 195 l 1,3,-1
 342 432 l 1,0,-1
487 69 m 1,4,-1
 487 0 l 1,5,-1
 342 0 l 1,6,-1
 342 115 l 1,7,-1
 169 6 l 1,8,9
 138 -10 138 -10 114 -10 c 0,10,11
 83 -10 83 -10 66.5 10 c 128,-1,12
 50 30 50 30 50 56 c 2,13,-1
 50 406 l 2,14,15
 50 427 50 427 53.5 444 c 128,-1,16
 57 461 57 461 67 473.5 c 128,-1,17
 77 486 77 486 94.5 493 c 128,-1,18
 112 500 112 500 140 500 c 2,19,-1
 342 500 l 1,20,-1
 342 682 l 1,21,-1
 276 682 l 1,22,-1
 276 750 l 1,23,-1
 424 750 l 1,24,-1
 424 69 l 1,25,-1
 487 69 l 1,4,-1
EndSplineSet
EndChar

StartChar: e
Encoding: 101 101 27
Width: 465
Flags: W
LayerCount: 2
Fore
SplineSet
130 220 m 1,0,-1
 335 349 l 1,1,-1
 335 432 l 1,2,-1
 130 432 l 1,3,-1
 130 220 l 1,0,-1
130 68 m 1,4,-1
 336 68 l 1,5,-1
 336 126 l 1,6,-1
 415 126 l 1,7,-1
 415 73 l 2,8,9
 415 43 415 43 396.5 21.5 c 128,-1,10
 378 0 378 0 335 0 c 2,11,-1
 130 0 l 2,12,13
 87 0 87 0 68.5 21.5 c 128,-1,14
 50 43 50 43 50 73 c 2,15,-1
 50 402 l 2,16,17
 50 451 50 451 74.5 476 c 128,-1,18
 99 501 99 501 153 501 c 2,19,-1
 322 501 l 2,20,21
 371 501 371 501 393 482 c 128,-1,22
 415 463 415 463 415 412 c 2,23,-1
 415 319 l 1,24,-1
 130 139 l 1,25,-1
 130 68 l 1,4,-1
EndSplineSet
EndChar

StartChar: f
Encoding: 102 102 28
Width: 332
Flags: W
LayerCount: 2
Fore
SplineSet
198 428 m 1,0,-1
 198 68 l 1,1,-1
 279 68 l 1,2,-1
 279 0 l 1,3,-1
 40 0 l 1,4,-1
 40 68 l 1,5,-1
 120 68 l 1,6,-1
 120 428 l 1,7,-1
 40 428 l 1,8,-1
 40 500 l 1,9,-1
 120 500 l 1,10,-1
 120 646 l 2,11,12
 120 703 120 703 142 726.5 c 128,-1,13
 164 750 164 750 209 750 c 2,14,-1
 292 750 l 1,15,-1
 292 682 l 1,16,-1
 198 682 l 1,17,-1
 198 500 l 1,18,-1
 279 500 l 1,19,-1
 279 428 l 1,20,-1
 198 428 l 1,0,-1
EndSplineSet
EndChar

StartChar: g
Encoding: 103 103 29
Width: 523
Flags: W
LayerCount: 2
Fore
SplineSet
338 432 m 1,0,-1
 128 432 l 1,1,-1
 128 60 l 1,2,-1
 338 192 l 1,3,-1
 338 432 l 1,0,-1
420 432 m 1,4,-1
 420 -133 l 2,5,6
 420 -175 420 -175 399.5 -197 c 128,-1,7
 379 -219 379 -219 328 -219 c 2,8,-1
 86 -219 l 1,9,-1
 86 -83 l 1,10,-1
 154 -83 l 1,11,-1
 154 -150 l 1,12,-1
 338 -150 l 1,13,-1
 338 111 l 1,14,-1
 167 3 l 2,15,16
 145 -10 145 -10 122 -10 c 0,17,18
 92 -10 92 -10 71 10.5 c 128,-1,19
 50 31 50 31 50 61 c 2,20,-1
 50 412 l 2,21,22
 50 436 50 436 53.5 452.5 c 128,-1,23
 57 469 57 469 66.5 479.5 c 128,-1,24
 76 490 76 490 92.5 495 c 128,-1,25
 109 500 109 500 135 500 c 2,26,-1
 483 500 l 1,27,-1
 483 432 l 1,28,-1
 420 432 l 1,4,-1
EndSplineSet
EndChar

StartChar: h
Encoding: 104 104 30
Width: 568
Flags: W
LayerCount: 2
Fore
SplineSet
528 68 m 1,0,-1
 528 0 l 1,1,-1
 335 0 l 1,2,-1
 335 68 l 1,3,-1
 383 68 l 1,4,-1
 383 438 l 1,5,-1
 184 313 l 1,6,-1
 184 68 l 1,7,-1
 233 68 l 1,8,-1
 233 0 l 1,9,-1
 40 0 l 1,10,-1
 40 68 l 1,11,-1
 103 68 l 1,12,-1
 103 682 l 1,13,-1
 40 682 l 1,14,-1
 40 750 l 1,15,-1
 184 750 l 1,16,-1
 184 394 l 1,17,-1
 350 498 l 2,18,19
 369 510 369 510 392 510 c 0,20,21
 421 510 421 510 442.5 489.5 c 128,-1,22
 464 469 464 469 464 431 c 2,23,-1
 464 68 l 1,24,-1
 528 68 l 1,0,-1
EndSplineSet
EndChar

StartChar: i
Encoding: 105 105 31
Width: 300
Flags: W
LayerCount: 2
Fore
SplineSet
204 633 m 0,0,1
 204 610 204 610 189.5 595.5 c 128,-1,2
 175 581 175 581 152 581 c 0,3,4
 132 581 132 581 117.5 595.5 c 128,-1,5
 103 610 103 610 103 633 c 0,6,7
 103 653 103 653 118 668.5 c 128,-1,8
 133 684 133 684 153 684 c 0,9,10
 175 684 175 684 189.5 668.5 c 128,-1,11
 204 653 204 653 204 633 c 0,0,1
195 68 m 1,12,-1
 260 68 l 1,13,-1
 260 0 l 1,14,-1
 50 0 l 1,15,-1
 50 68 l 1,16,-1
 113 68 l 1,17,-1
 113 432 l 1,18,-1
 50 432 l 1,19,-1
 50 500 l 1,20,-1
 195 500 l 1,21,-1
 195 68 l 1,12,-1
EndSplineSet
EndChar

StartChar: j
Encoding: 106 106 32
Width: 264
Flags: W
LayerCount: 2
Fore
SplineSet
204 633 m 0,0,1
 204 610 204 610 189.5 595.5 c 128,-1,2
 175 581 175 581 152 581 c 0,3,4
 132 581 132 581 117.5 595.5 c 128,-1,5
 103 610 103 610 103 633 c 0,6,7
 103 653 103 653 118 668.5 c 128,-1,8
 133 684 133 684 153 684 c 0,9,10
 175 684 175 684 189.5 668.5 c 128,-1,11
 204 653 204 653 204 633 c 0,0,1
204 -114 m 2,12,13
 204 -156 204 -156 183.5 -178 c 128,-1,14
 163 -200 163 -200 112 -200 c 2,15,-1
 -10 -200 l 1,16,-1
 -10 -131 l 1,17,-1
 122 -131 l 1,18,-1
 122 432 l 1,19,-1
 59 432 l 1,20,-1
 59 500 l 1,21,-1
 204 500 l 1,22,-1
 204 -114 l 2,12,13
EndSplineSet
EndChar

StartChar: k
Encoding: 107 107 33
Width: 507
Flags: W
LayerCount: 2
Fore
SplineSet
487 68 m 1,0,-1
 487 0 l 1,1,-1
 401 0 l 1,2,-1
 184 252 l 1,3,-1
 184 68 l 1,4,-1
 244 68 l 1,5,-1
 244 0 l 1,6,-1
 40 0 l 1,7,-1
 40 68 l 1,8,-1
 104 68 l 1,9,-1
 104 682 l 1,10,-1
 40 682 l 1,11,-1
 40 750 l 1,12,-1
 180 750 l 1,13,-1
 180 276 l 1,14,-1
 408 500 l 1,15,-1
 486 500 l 1,16,-1
 486 432 l 1,17,-1
 431 432 l 1,18,-1
 268 265 l 1,19,-1
 435 68 l 1,20,-1
 487 68 l 1,0,-1
EndSplineSet
EndChar

StartChar: l
Encoding: 108 108 34
Width: 310
Flags: W
LayerCount: 2
Fore
SplineSet
195 68 m 1,0,-1
 260 68 l 1,1,-1
 260 0 l 1,2,-1
 50 0 l 1,3,-1
 50 68 l 1,4,-1
 113 68 l 1,5,-1
 113 682 l 1,6,-1
 50 682 l 1,7,-1
 50 750 l 1,8,-1
 195 750 l 1,9,-1
 195 68 l 1,0,-1
EndSplineSet
EndChar

StartChar: o
Encoding: 111 111 35
Width: 451
Flags: W
LayerCount: 2
Fore
SplineSet
121 68 m 1,0,-1
 330 68 l 1,1,-1
 330 432 l 1,2,-1
 121 432 l 1,3,-1
 121 68 l 1,0,-1
133 0 m 2,4,5
 82 0 82 0 61 23.5 c 128,-1,6
 40 47 40 47 40 89 c 2,7,-1
 40 411 l 2,8,9
 40 451 40 451 58.5 475.5 c 128,-1,10
 77 500 77 500 133 500 c 2,11,-1
 318 500 l 2,12,13
 373 500 373 500 392 475.5 c 128,-1,14
 411 451 411 451 411 411 c 2,15,-1
 411 89 l 2,16,17
 411 47 411 47 390 23.5 c 128,-1,18
 369 0 369 0 318 0 c 2,19,-1
 133 0 l 2,4,5
EndSplineSet
EndChar

StartChar: s
Encoding: 115 115 36
Width: 439
Flags: W
LayerCount: 2
Fore
SplineSet
299 242 m 2,0,1
 320 229 320 229 336.5 219.5 c 128,-1,2
 353 210 353 210 364.5 200 c 128,-1,3
 376 190 376 190 382.5 178 c 128,-1,4
 389 166 389 166 389 150 c 2,5,-1
 389 88 l 2,6,7
 389 70 389 70 385 54 c 128,-1,8
 381 38 381 38 371.5 26 c 128,-1,9
 362 14 362 14 345 7 c 128,-1,10
 328 0 328 0 303 0 c 2,11,-1
 61 0 l 1,12,-1
 61 151 l 1,13,-1
 129 151 l 1,14,-1
 129 68 l 1,15,-1
 309 68 l 1,16,-1
 309 151 l 1,17,-1
 145 254 l 2,18,19
 120 270 120 270 102 280 c 128,-1,20
 84 290 84 290 72.5 300 c 128,-1,21
 61 310 61 310 55.5 322 c 128,-1,22
 50 334 50 334 50 354 c 2,23,-1
 50 411 l 2,24,25
 50 429 50 429 54 445.5 c 128,-1,26
 58 462 58 462 68.5 474 c 128,-1,27
 79 486 79 486 97 493 c 128,-1,28
 115 500 115 500 144 500 c 2,29,-1
 377 500 l 1,30,-1
 377 350 l 1,31,-1
 309 350 l 1,32,-1
 309 432 l 1,33,-1
 129 432 l 1,34,-1
 129 348 l 1,35,-1
 299 242 l 2,0,1
EndSplineSet
EndChar

StartChar: t
Encoding: 116 116 37
Width: 317
Flags: W
LayerCount: 2
Fore
SplineSet
192 682 m 1,0,-1
 192 500 l 1,1,-1
 273 500 l 1,2,-1
 273 428 l 1,3,-1
 192 428 l 1,4,-1
 192 68 l 1,5,-1
 287 68 l 1,6,-1
 287 0 l 1,7,-1
 203 0 l 2,8,9
 158 0 158 0 136 23.5 c 128,-1,10
 114 47 114 47 114 104 c 2,11,-1
 114 428 l 1,12,-1
 40 428 l 1,13,-1
 40 500 l 1,14,-1
 114 500 l 1,15,-1
 114 682 l 1,16,-1
 192 682 l 1,0,-1
EndSplineSet
EndChar

StartChar: v
Encoding: 118 118 38
Width: 513
Flags: W
LayerCount: 2
Fore
SplineSet
204 500 m 1,0,-1
 204 432 l 1,1,-1
 155 432 l 1,2,-1
 255 68 l 1,3,-1
 357 432 l 1,4,-1
 308 432 l 1,5,-1
 308 500 l 1,6,-1
 493 500 l 1,7,-1
 493 432 l 1,8,-1
 433 432 l 1,9,-1
 312 0 l 1,10,-1
 201 0 l 1,11,-1
 79 432 l 1,12,-1
 20 432 l 1,13,-1
 20 500 l 1,14,-1
 204 500 l 1,0,-1
EndSplineSet
EndChar

StartChar: w
Encoding: 119 119 39
Width: 732
Flags: W
LayerCount: 2
Fore
SplineSet
20 500 m 1,0,-1
 179 500 l 1,1,-1
 179 432 l 1,2,-1
 135 432 l 1,3,-1
 216 69 l 1,4,-1
 309 500 l 1,5,-1
 419 500 l 1,6,-1
 515 67 l 1,7,-1
 597 432 l 1,8,-1
 552 432 l 1,9,-1
 552 500 l 1,10,-1
 712 500 l 1,11,-1
 712 432 l 1,12,-1
 664 432 l 1,13,-1
 569 0 l 1,14,-1
 462 0 l 1,15,-1
 367 433 l 1,16,-1
 270 0 l 1,17,-1
 158 0 l 1,18,19
 158 0 158 0 151 32.5 c 128,-1,20
 144 65 144 65 133.5 113 c 128,-1,21
 123 161 123 161 111 217 c 128,-1,22
 99 273 99 273 88.5 321 c 128,-1,23
 78 369 78 369 70.5 400.5 c 128,-1,24
 63 432 63 432 63 432 c 1,25,-1
 20 432 l 1,26,-1
 20 500 l 1,0,-1
EndSplineSet
EndChar

StartChar: x
Encoding: 120 120 40
Width: 508
Flags: W
LayerCount: 2
Fore
SplineSet
86 68 m 1,0,-1
 212 259 l 1,1,-1
 97 432 l 1,2,-1
 38 432 l 1,3,-1
 38 500 l 1,4,-1
 134 500 l 1,5,-1
 256 320 l 1,6,-1
 370 500 l 1,7,-1
 468 500 l 1,8,-1
 468 432 l 1,9,-1
 412 432 l 1,10,-1
 297 259 l 1,11,-1
 422 68 l 1,12,-1
 478 68 l 1,13,-1
 478 0 l 1,14,-1
 384 0 l 1,15,-1
 256 199 l 1,16,-1
 129 0 l 1,17,-1
 30 0 l 1,18,-1
 30 68 l 1,19,-1
 86 68 l 1,0,-1
EndSplineSet
EndChar

StartChar: y
Encoding: 121 121 41
Width: 515
Flags: W
LayerCount: 2
Fore
SplineSet
465 500 m 1,0,-1
 465 -133 l 2,1,2
 465 -175 465 -175 444.5 -197 c 128,-1,3
 424 -219 424 -219 373 -219 c 2,4,-1
 142 -219 l 1,5,-1
 142 -83 l 1,6,-1
 210 -83 l 1,7,-1
 210 -150 l 1,8,-1
 383 -150 l 1,9,-1
 383 113 l 1,10,-1
 207 4 l 2,11,12
 184 -10 184 -10 161 -10 c 256,13,14
 138 -10 138 -10 121 5.5 c 128,-1,15
 104 21 104 21 104 55 c 2,16,-1
 104 432 l 1,17,-1
 40 432 l 1,18,-1
 40 500 l 1,19,-1
 185 500 l 1,20,-1
 185 69 l 1,21,-1
 384 194 l 1,22,-1
 384 432 l 1,23,-1
 335 432 l 1,24,-1
 335 500 l 1,25,-1
 465 500 l 1,0,-1
EndSplineSet
EndChar

StartChar: z
Encoding: 122 122 42
Width: 452
Flags: W
LayerCount: 2
Fore
SplineSet
40 0 m 1,0,-1
 40 69 l 1,1,-1
 317 432 l 1,2,-1
 114 432 l 1,3,-1
 114 361 l 1,4,-1
 45 361 l 1,5,-1
 45 500 l 1,6,-1
 404 500 l 1,7,-1
 404 429 l 1,8,-1
 129 68 l 1,9,-1
 342 68 l 1,10,-1
 342 137 l 1,11,-1
 412 137 l 1,12,-1
 412 0 l 1,13,-1
 40 0 l 1,0,-1
EndSplineSet
EndChar

StartChar: n
Encoding: 110 110 43
Width: 568
Flags: W
LayerCount: 2
Fore
SplineSet
528 68 m 1,0,-1
 528 0 l 1,1,-1
 335 0 l 1,2,-1
 335 68 l 1,3,-1
 383 68 l 1,4,-1
 383 440 l 1,5,-1
 184 315 l 1,6,-1
 184 68 l 1,7,-1
 233 68 l 1,8,-1
 233 0 l 1,9,-1
 40 0 l 1,10,-1
 40 68 l 1,11,-1
 103 68 l 1,12,-1
 103 433 l 1,13,-1
 40 433 l 1,14,-1
 40 500 l 1,15,-1
 184 500 l 1,16,-1
 184 396 l 1,17,-1
 350 500 l 2,18,19
 366 510 366 510 386 510 c 0,20,21
 401 510 401 510 415 506.5 c 128,-1,22
 429 503 429 503 440 494.5 c 128,-1,23
 451 486 451 486 457.5 471 c 128,-1,24
 464 456 464 456 464 433 c 2,25,-1
 464 68 l 1,26,-1
 528 68 l 1,0,-1
EndSplineSet
EndChar

StartChar: m
Encoding: 109 109 44
Width: 817
Flags: W
LayerCount: 2
Fore
SplineSet
498 68 m 1,0,-1
 498 0 l 1,1,-1
 319 0 l 1,2,-1
 319 68 l 1,3,-1
 367 68 l 1,4,-1
 368 72 l 1,5,-1
 368 441 l 1,6,-1
 184 326 l 1,7,-1
 184 68 l 1,8,-1
 233 68 l 1,9,-1
 233 0 l 1,10,-1
 40 0 l 1,11,-1
 40 68 l 1,12,-1
 103 68 l 1,13,-1
 103 433 l 1,14,-1
 40 433 l 1,15,-1
 40 500 l 1,16,-1
 184 500 l 1,17,-1
 184 405 l 1,18,-1
 335 500 l 2,19,20
 351 510 351 510 371 510 c 0,21,22
 386 510 386 510 400 506.5 c 128,-1,23
 414 503 414 503 425 494.5 c 128,-1,24
 436 486 436 486 442.5 471 c 128,-1,25
 449 456 449 456 449 433 c 2,26,-1
 449 406 l 1,27,-1
 599 500 l 2,28,29
 615 510 615 510 635 510 c 0,30,31
 650 510 650 510 664 506.5 c 128,-1,32
 678 503 678 503 689 494.5 c 128,-1,33
 700 486 700 486 706.5 471 c 128,-1,34
 713 456 713 456 713 433 c 2,35,-1
 713 68 l 1,36,-1
 777 68 l 1,37,-1
 777 0 l 1,38,-1
 584 0 l 1,39,-1
 584 68 l 1,40,-1
 632 68 l 1,41,-1
 632 440 l 1,42,-1
 449 326 l 1,43,-1
 449 68 l 1,44,-1
 498 68 l 1,0,-1
EndSplineSet
EndChar

StartChar: p
Encoding: 112 112 45
Width: 527
Flags: W
LayerCount: 2
Fore
SplineSet
41 -182 m 1,0,-1
 103 -182 l 1,1,-1
 103 431 l 1,2,-1
 40 431 l 1,3,-1
 40 500 l 1,4,-1
 185 500 l 1,5,-1
 185 386 l 1,6,-1
 358 495 l 2,7,8
 382 510 382 510 408 510 c 0,9,10
 436 510 436 510 456.5 493.5 c 128,-1,11
 477 477 477 477 477 445 c 2,12,-1
 477 94 l 2,13,14
 477 73 477 73 473.5 56 c 128,-1,15
 470 39 470 39 460 26.5 c 128,-1,16
 450 14 450 14 432.5 7 c 128,-1,17
 415 0 415 0 387 0 c 2,18,-1
 185 0 l 1,19,-1
 185 -182 l 1,20,-1
 251 -182 l 1,21,-1
 251 -250 l 1,22,-1
 41 -250 l 1,23,-1
 41 -182 l 1,0,-1
185 68 m 1,24,-1
 397 68 l 1,25,-1
 397 439 l 1,26,-1
 185 306 l 1,27,-1
 185 68 l 1,24,-1
EndSplineSet
EndChar

StartChar: q
Encoding: 113 113 46
Width: 537
Flags: W
LayerCount: 2
Fore
SplineSet
279 -182 m 1,0,-1
 342 -182 l 1,1,-1
 342 111 l 1,2,-1
 172 4 l 2,3,4
 150 -10 150 -10 122 -10 c 0,5,6
 91 -10 91 -10 70.5 12 c 128,-1,7
 50 34 50 34 50 76 c 2,8,-1
 50 412 l 2,9,10
 50 430 50 430 53.5 446 c 128,-1,11
 57 462 57 462 66.5 474 c 128,-1,12
 76 486 76 486 93 493 c 128,-1,13
 110 500 110 500 136 500 c 2,14,-1
 487 500 l 1,15,-1
 487 432 l 1,16,-1
 424 432 l 1,17,-1
 424 -182 l 1,18,-1
 487 -182 l 1,19,-1
 487 -250 l 1,20,-1
 279 -250 l 1,21,-1
 279 -182 l 1,0,-1
130 58 m 1,22,-1
 342 192 l 1,23,-1
 342 432 l 1,24,-1
 130 432 l 1,25,-1
 130 58 l 1,22,-1
EndSplineSet
EndChar

StartChar: u
Encoding: 117 117 47
Width: 568
Flags: W
LayerCount: 2
Fore
SplineSet
40 433 m 1,0,-1
 40 501 l 1,1,-1
 185 501 l 1,2,-1
 185 68 l 1,3,-1
 384 193 l 1,4,-1
 384 433 l 1,5,-1
 335 433 l 1,6,-1
 335 501 l 1,7,-1
 465 501 l 1,8,-1
 465 68 l 1,9,-1
 528 68 l 1,10,-1
 528 0 l 1,11,-1
 384 0 l 1,12,-1
 384 112 l 1,13,-1
 218 8 l 2,14,15
 202 -2 202 -2 182 -2 c 0,16,17
 167 -2 167 -2 153 1.5 c 128,-1,18
 139 5 139 5 128 13.5 c 128,-1,19
 117 22 117 22 110.5 37 c 128,-1,20
 104 52 104 52 104 75 c 2,21,-1
 104 433 l 1,22,-1
 40 433 l 1,0,-1
EndSplineSet
EndChar

StartChar: r
Encoding: 114 114 48
Width: 461
Flags: W
LayerCount: 2
Fore
SplineSet
340 334 m 1,0,-1
 340 431 l 1,1,-1
 184 332 l 1,2,-1
 184 68 l 1,3,-1
 233 68 l 1,4,-1
 233 0 l 1,5,-1
 40 0 l 1,6,-1
 40 68 l 1,7,-1
 103 68 l 1,8,-1
 103 433 l 1,9,-1
 40 433 l 1,10,-1
 40 501 l 1,11,-1
 184 501 l 1,12,-1
 184 413 l 1,13,-1
 307 490 l 2,14,15
 323 500 323 500 343 500 c 0,16,17
 358 500 358 500 372 496.5 c 128,-1,18
 386 493 386 493 397 484.5 c 128,-1,19
 408 476 408 476 414.5 461 c 128,-1,20
 421 446 421 446 421 423 c 2,21,-1
 421 334 l 1,22,-1
 340 334 l 1,0,-1
EndSplineSet
EndChar

StartChar: C
Encoding: 67 67 49
Width: 525
Flags: W
LayerCount: 2
Fore
SplineSet
407 185 m 1,0,-1
 475 185 l 1,1,-1
 475 0 l 1,2,-1
 168 0 l 2,3,4
 138 0 138 0 117 8.5 c 128,-1,5
 96 17 96 17 83.5 31.5 c 128,-1,6
 71 46 71 46 65.5 65.5 c 128,-1,7
 60 85 60 85 60 107 c 2,8,-1
 60 642 l 2,9,10
 60 661 60 661 65 680.5 c 128,-1,11
 70 700 70 700 81 715.5 c 128,-1,12
 92 731 92 731 111 740.5 c 128,-1,13
 130 750 130 750 158 750 c 2,14,-1
 475 750 l 1,15,-1
 475 565 l 1,16,-1
 407 565 l 1,17,-1
 407 682 l 1,18,-1
 142 682 l 1,19,-1
 142 68 l 1,20,-1
 407 68 l 1,21,-1
 407 185 l 1,0,-1
EndSplineSet
EndChar

StartChar: D
Encoding: 68 68 50
Width: 604
Flags: W
LayerCount: 2
Fore
SplineSet
462 682 m 1,0,-1
 205 682 l 1,1,-1
 205 68 l 1,2,-1
 462 68 l 1,3,-1
 462 682 l 1,0,-1
413 750 m 2,4,5
 487 750 487 750 515.5 717.5 c 128,-1,6
 544 685 544 685 544 619 c 2,7,-1
 544 131 l 2,8,9
 544 62 544 62 512 31 c 128,-1,10
 480 0 480 0 413 0 c 2,11,-1
 60 0 l 1,12,-1
 60 68 l 1,13,-1
 123 68 l 1,14,-1
 123 682 l 1,15,-1
 60 682 l 1,16,-1
 60 750 l 1,17,-1
 413 750 l 2,4,5
EndSplineSet
EndChar

StartChar: P
Encoding: 80 80 51
Width: 594
Flags: W
LayerCount: 2
Fore
SplineSet
461 681 m 1,0,-1
 210 681 l 1,1,-1
 210 358 l 1,2,-1
 461 513 l 1,3,-1
 461 681 l 1,0,-1
422 750 m 2,4,5
 455 750 455 750 476.5 744.5 c 128,-1,6
 498 739 498 739 511 725 c 128,-1,7
 524 711 524 711 529 687 c 128,-1,8
 534 663 534 663 534 626 c 2,9,-1
 534 553 l 2,10,11
 534 522 534 522 528.5 503 c 128,-1,12
 523 484 523 484 510.5 470.5 c 128,-1,13
 498 457 498 457 478.5 445 c 128,-1,14
 459 433 459 433 431 416 c 2,15,-1
 210 278 l 1,16,-1
 210 68 l 1,17,-1
 275 68 l 1,18,-1
 275 0 l 1,19,-1
 65 0 l 1,20,-1
 65 68 l 1,21,-1
 128 68 l 1,22,-1
 128 681 l 1,23,-1
 65 681 l 1,24,-1
 65 750 l 1,25,-1
 422 750 l 2,4,5
EndSplineSet
EndChar

StartChar: R
Encoding: 82 82 52
Width: 599
Flags: W
LayerCount: 2
Fore
SplineSet
210 358 m 1,0,-1
 461 513 l 1,1,-1
 461 682 l 1,2,-1
 210 682 l 1,3,-1
 210 358 l 1,0,-1
559 68 m 1,4,-1
 559 0 l 1,5,-1
 362 0 l 1,6,-1
 362 68 l 1,7,-1
 416 68 l 1,8,-1
 287 326 l 1,9,-1
 210 278 l 1,10,-1
 210 68 l 1,11,-1
 275 68 l 1,12,-1
 275 0 l 1,13,-1
 65 0 l 1,14,-1
 65 68 l 1,15,-1
 128 68 l 1,16,-1
 128 682 l 1,17,-1
 65 682 l 1,18,-1
 65 750 l 1,19,-1
 422 750 l 2,20,21
 455 750 455 750 476.5 744.5 c 128,-1,22
 498 739 498 739 511 724.5 c 128,-1,23
 524 710 524 710 529 686 c 128,-1,24
 534 662 534 662 534 625 c 2,25,-1
 534 563 l 2,26,27
 534 526 534 526 527.5 505 c 128,-1,28
 521 484 521 484 508.5 470 c 128,-1,29
 496 456 496 456 477 445 c 128,-1,30
 458 434 458 434 433 417 c 1,31,-1
 349 365 l 1,32,-1
 499 68 l 1,33,-1
 559 68 l 1,4,-1
EndSplineSet
EndChar

StartChar: zero
Encoding: 48 48 53
Width: 522
Flags: W
LayerCount: 2
Fore
SplineSet
140 68 m 1,0,-1
 382 68 l 1,1,-1
 382 682 l 1,2,-1
 140 682 l 1,3,-1
 140 68 l 1,0,-1
346 750 m 2,4,5
 407 750 407 750 434.5 716.5 c 128,-1,6
 462 683 462 683 462 617 c 2,7,-1
 462 136 l 2,8,9
 462 64 462 64 438 32 c 128,-1,10
 414 0 414 0 351 0 c 2,11,-1
 179 0 l 2,12,13
 144 0 144 0 121.5 8.5 c 128,-1,14
 99 17 99 17 85 33 c 128,-1,15
 71 49 71 49 65.5 71.5 c 128,-1,16
 60 94 60 94 60 121 c 2,17,-1
 60 617 l 2,18,19
 60 648 60 648 64.5 672.5 c 128,-1,20
 69 697 69 697 81.5 714.5 c 128,-1,21
 94 732 94 732 115.5 741 c 128,-1,22
 137 750 137 750 171 750 c 2,23,-1
 346 750 l 2,4,5
EndSplineSet
EndChar

StartChar: one
Encoding: 49 49 54
Width: 350
Flags: W
LayerCount: 2
Fore
SplineSet
58 68 m 1,0,-1
 126 68 l 1,1,-1
 126 681 l 1,2,-1
 30 681 l 1,3,-1
 30 750 l 1,4,-1
 116 750 l 2,5,6
 167 750 167 750 187.5 728 c 128,-1,7
 208 706 208 706 208 664 c 2,8,-1
 208 68 l 1,9,-1
 270 68 l 1,10,-1
 270 0 l 1,11,-1
 58 0 l 1,12,-1
 58 68 l 1,0,-1
EndSplineSet
EndChar

StartChar: two
Encoding: 50 50 55
Width: 525
Flags: W
LayerCount: 2
Fore
SplineSet
50 181 m 2,0,1
 50 219 50 219 62.5 249 c 128,-1,2
 75 279 75 279 104 297 c 2,3,-1
 392 476 l 1,4,-1
 392 682 l 1,5,-1
 129 682 l 1,6,-1
 129 560 l 1,7,-1
 51 560 l 1,8,-1
 51 750 l 1,9,-1
 342 750 l 2,10,11
 379 750 379 750 404.5 744 c 128,-1,12
 430 738 430 738 445.5 724.5 c 128,-1,13
 461 711 461 711 467.5 689 c 128,-1,14
 474 667 474 667 474 634 c 2,15,-1
 474 517 l 2,16,17
 474 489 474 489 463.5 462 c 128,-1,18
 453 435 453 435 425 418 c 2,19,-1
 128 230 l 1,20,-1
 128 68 l 1,21,-1
 391 68 l 1,22,-1
 391 160 l 1,23,-1
 475 160 l 1,24,-1
 475 0 l 1,25,-1
 50 0 l 1,26,-1
 50 181 l 2,0,1
EndSplineSet
EndChar

StartChar: three
Encoding: 51 51 56
Width: 514
Flags: W
LayerCount: 2
Fore
SplineSet
464 682 m 1,0,-1
 219 438 l 1,1,-1
 348 438 l 2,2,3
 381 438 381 438 403.5 431.5 c 128,-1,4
 426 425 426 425 439 411 c 128,-1,5
 452 397 452 397 457.5 375 c 128,-1,6
 463 353 463 353 463 321 c 2,7,-1
 463 134 l 2,8,9
 463 101 463 101 459 75.5 c 128,-1,10
 455 50 455 50 440.5 33.5 c 128,-1,11
 426 17 426 17 398.5 8.5 c 128,-1,12
 371 0 371 0 325 0 c 2,13,-1
 173 0 l 2,14,15
 130 0 130 0 105.5 11 c 128,-1,16
 81 22 81 22 68.5 40.5 c 128,-1,17
 56 59 56 59 53 84 c 128,-1,18
 50 109 50 109 50 137 c 2,19,-1
 50 190 l 1,20,-1
 123 190 l 1,21,-1
 123 62 l 1,22,-1
 382 62 l 1,23,-1
 382 373 l 1,24,-1
 123 373 l 1,25,-1
 123 438 l 1,26,-1
 371 682 l 1,27,-1
 123 682 l 1,28,-1
 123 612 l 1,29,-1
 50 612 l 1,30,-1
 50 750 l 1,31,-1
 464 750 l 1,32,-1
 464 682 l 1,0,-1
EndSplineSet
EndChar

StartChar: four
Encoding: 52 52 57
Width: 519
Flags: W
LayerCount: 2
Fore
SplineSet
327 601 m 1,0,-1
 133 261 l 1,1,-1
 327 261 l 1,2,-1
 327 601 l 1,0,-1
217 68 m 1,3,-1
 327 68 l 1,4,-1
 327 193 l 1,5,-1
 10 193 l 1,6,-1
 326 750 l 1,7,-1
 407 750 l 1,8,-1
 407 261 l 1,9,-1
 479 261 l 1,10,-1
 479 193 l 1,11,-1
 407 193 l 1,12,-1
 407 68 l 1,13,-1
 479 68 l 1,14,-1
 479 0 l 1,15,-1
 217 0 l 1,16,-1
 217 68 l 1,3,-1
EndSplineSet
EndChar

StartChar: five
Encoding: 53 53 58
Width: 518
Flags: W
LayerCount: 2
Fore
SplineSet
374 457 m 2,0,1
 404 457 404 457 422.5 450.5 c 128,-1,2
 441 444 441 444 451 431.5 c 128,-1,3
 461 419 461 419 464.5 401 c 128,-1,4
 468 383 468 383 468 360 c 2,5,-1
 468 121 l 2,6,7
 468 97 468 97 464 75 c 128,-1,8
 460 53 460 53 447.5 36.5 c 128,-1,9
 435 20 435 20 411.5 10 c 128,-1,10
 388 0 388 0 349 0 c 2,11,-1
 163 0 l 2,12,13
 127 0 127 0 105 9 c 128,-1,14
 83 18 83 18 70.5 34 c 128,-1,15
 58 50 58 50 54 72 c 128,-1,16
 50 94 50 94 50 120 c 2,17,-1
 50 190 l 1,18,-1
 128 190 l 1,19,-1
 128 68 l 1,20,-1
 387 68 l 1,21,-1
 387 389 l 1,22,-1
 61 389 l 1,23,-1
 61 750 l 1,24,-1
 438 750 l 1,25,-1
 438 682 l 1,26,-1
 139 682 l 1,27,-1
 139 457 l 1,28,-1
 374 457 l 2,0,1
EndSplineSet
EndChar

StartChar: eight
Encoding: 56 56 59
Width: 525
Flags: W
LayerCount: 2
Fore
SplineSet
147 443 m 1,0,-1
 378 443 l 1,1,-1
 378 687 l 1,2,-1
 147 687 l 1,3,-1
 147 443 l 1,0,-1
393 368 m 1,4,-1
 132 368 l 1,5,-1
 132 68 l 1,6,-1
 393 68 l 1,7,-1
 393 368 l 1,4,-1
455 502 m 2,8,9
 455 463 455 463 436.5 437 c 128,-1,10
 418 411 418 411 395 409 c 1,11,12
 407 408 407 408 421 401 c 128,-1,13
 435 394 435 394 447 381 c 128,-1,14
 459 368 459 368 467 348.5 c 128,-1,15
 475 329 475 329 475 304 c 2,16,-1
 475 134 l 2,17,18
 475 68 475 68 442 34 c 128,-1,19
 409 0 409 0 334 0 c 2,20,-1
 187 0 l 2,21,22
 110 0 110 0 80 34.5 c 128,-1,23
 50 69 50 69 50 134 c 2,24,-1
 50 301 l 2,25,26
 50 327 50 327 58.5 347 c 128,-1,27
 67 367 67 367 79.5 380.5 c 128,-1,28
 92 394 92 394 106.5 401 c 128,-1,29
 121 408 121 408 132 409 c 1,30,31
 110 411 110 411 90 437.5 c 128,-1,32
 70 464 70 464 70 502 c 2,33,-1
 70 631 l 2,34,35
 70 656 70 656 76 677.5 c 128,-1,36
 82 699 82 699 95.5 715 c 128,-1,37
 109 731 109 731 131 740.5 c 128,-1,38
 153 750 153 750 185 750 c 2,39,-1
 342 750 l 2,40,41
 373 750 373 750 394.5 740.5 c 128,-1,42
 416 731 416 731 429.5 715 c 128,-1,43
 443 699 443 699 449 677.5 c 128,-1,44
 455 656 455 656 455 631 c 2,45,-1
 455 502 l 2,8,9
EndSplineSet
EndChar

StartChar: six
Encoding: 54 54 60
Width: 525
Flags: W
LayerCount: 2
Fore
SplineSet
393 374 m 1,0,-1
 132 374 l 1,1,-1
 132 68 l 1,2,-1
 393 68 l 1,3,-1
 393 374 l 1,0,-1
387 687 m 1,4,-1
 132 687 l 1,5,-1
 132 443 l 1,6,-1
 350 443 l 2,7,8
 387 443 387 443 411 435 c 128,-1,9
 435 427 435 427 449 412 c 128,-1,10
 463 397 463 397 469 376 c 128,-1,11
 475 355 475 355 475 330 c 2,12,-1
 475 127 l 2,13,14
 475 61 475 61 442 30.5 c 128,-1,15
 409 0 409 0 334 0 c 2,16,-1
 187 0 l 2,17,18
 110 0 110 0 80 29.5 c 128,-1,19
 50 59 50 59 50 124 c 2,20,-1
 50 631 l 2,21,22
 50 656 50 656 56.5 677.5 c 128,-1,23
 63 699 63 699 77.5 715 c 128,-1,24
 92 731 92 731 115 740.5 c 128,-1,25
 138 750 138 750 170 750 c 2,26,-1
 354 750 l 2,27,28
 384 750 384 750 404 740.5 c 128,-1,29
 424 731 424 731 435 715.5 c 128,-1,30
 446 700 446 700 450.5 678.5 c 128,-1,31
 455 657 455 657 455 633 c 2,32,-1
 455 611 l 1,33,-1
 387 611 l 1,34,-1
 387 687 l 1,4,-1
EndSplineSet
EndChar

StartChar: nine
Encoding: 57 57 61
Width: 525
Flags: W
LayerCount: 2
Fore
SplineSet
132 409 m 1,0,-1
 393 409 l 1,1,-1
 393 682 l 1,2,-1
 132 682 l 1,3,-1
 132 409 l 1,0,-1
132 65 m 1,4,-1
 393 65 l 1,5,-1
 393 340 l 1,6,-1
 175 340 l 2,7,8
 138 340 138 340 114 348 c 128,-1,9
 90 356 90 356 75.5 371 c 128,-1,10
 61 386 61 386 55.5 407 c 128,-1,11
 50 428 50 428 50 453 c 2,12,-1
 50 623 l 2,13,14
 50 689 50 689 83 719.5 c 128,-1,15
 116 750 116 750 191 750 c 2,16,-1
 338 750 l 2,17,18
 415 750 415 750 445 720.5 c 128,-1,19
 475 691 475 691 475 626 c 2,20,-1
 475 119 l 2,21,22
 475 69 475 69 447 34.5 c 128,-1,23
 419 0 419 0 355 0 c 2,24,-1
 165 0 l 2,25,26
 135 0 135 0 113 9.5 c 128,-1,27
 91 19 91 19 77 34.5 c 128,-1,28
 63 50 63 50 56.5 71.5 c 128,-1,29
 50 93 50 93 50 117 c 2,30,-1
 50 139 l 1,31,-1
 132 139 l 1,32,-1
 132 65 l 1,4,-1
EndSplineSet
EndChar

StartChar: seven
Encoding: 55 55 62
Width: 455
Flags: W
LayerCount: 2
Fore
SplineSet
121 0 m 1,0,-1
 30 0 l 1,1,-1
 372 682 l 1,2,-1
 102 682 l 1,3,-1
 102 533 l 1,4,-1
 30 533 l 1,5,-1
 30 750 l 1,6,-1
 445 750 l 1,7,-1
 445 648 l 1,8,-1
 121 0 l 1,0,-1
EndSplineSet
EndChar

StartChar: exclam
Encoding: 33 33 63
Width: 301
Flags: W
LayerCount: 2
Fore
SplineSet
201 47 m 0,0,1
 201 25 201 25 186.5 10.5 c 128,-1,2
 172 -4 172 -4 150 -4 c 0,3,4
 130 -4 130 -4 115 10.5 c 128,-1,5
 100 25 100 25 100 47 c 0,6,7
 100 67 100 67 115.5 83 c 128,-1,8
 131 99 131 99 151 99 c 0,9,10
 172 99 172 99 186.5 83 c 128,-1,11
 201 67 201 67 201 47 c 0,0,1
109 193 m 1,12,-1
 109 727 l 1,13,-1
 191 727 l 1,14,-1
 191 193 l 1,15,-1
 109 193 l 1,12,-1
EndSplineSet
EndChar

StartChar: B
Encoding: 66 66 64
Width: 557
Flags: W
LayerCount: 2
Fore
SplineSet
417 424 m 1,0,-1
 205 291 l 1,1,-1
 205 69 l 1,2,-1
 417 69 l 1,3,-1
 417 424 l 1,0,-1
291 425 m 1,4,-1
 291 679 l 1,5,-1
 205 679 l 1,6,-1
 205 371 l 1,7,-1
 291 425 l 1,4,-1
376 479 m 2,8,9
 387 486 387 486 400 489 c 128,-1,10
 413 492 413 492 425 492 c 0,11,12
 454 492 454 492 475.5 471 c 128,-1,13
 497 450 497 450 497 406 c 2,14,-1
 497 88 l 2,15,16
 497 70 497 70 493.5 54 c 128,-1,17
 490 38 490 38 480 26 c 128,-1,18
 470 14 470 14 453 7 c 128,-1,19
 436 0 436 0 408 0 c 2,20,-1
 60 0 l 1,21,-1
 60 68 l 1,22,-1
 123 68 l 1,23,-1
 123 682 l 1,24,-1
 61 682 l 1,25,-1
 61 750 l 1,26,-1
 270 750 l 2,27,28
 323 750 323 750 347.5 726.5 c 128,-1,29
 372 703 372 703 372 661 c 2,30,-1
 372 476 l 1,31,-1
 376 479 l 2,8,9
EndSplineSet
EndChar

StartChar: H
Encoding: 72 72 65
Width: 698
Flags: W
LayerCount: 2
Fore
SplineSet
570 682 m 1,0,-1
 570 68 l 1,1,-1
 633 68 l 1,2,-1
 633 0 l 1,3,-1
 427 0 l 1,4,-1
 427 68 l 1,5,-1
 488 68 l 1,6,-1
 488 354 l 1,7,-1
 210 354 l 1,8,-1
 210 68 l 1,9,-1
 271 68 l 1,10,-1
 271 0 l 1,11,-1
 65 0 l 1,12,-1
 65 68 l 1,13,-1
 128 68 l 1,14,-1
 128 682 l 1,15,-1
 65 682 l 1,16,-1
 65 750 l 1,17,-1
 271 750 l 1,18,-1
 271 682 l 1,19,-1
 210 682 l 1,20,-1
 210 421 l 1,21,-1
 488 421 l 1,22,-1
 488 682 l 1,23,-1
 427 682 l 1,24,-1
 427 750 l 1,25,-1
 633 750 l 1,26,-1
 633 682 l 1,27,-1
 570 682 l 1,0,-1
EndSplineSet
EndChar

StartChar: A
Encoding: 65 65 66
Width: 641
Flags: W
LayerCount: 2
Fore
SplineSet
616 68 m 1,0,-1
 616 0 l 1,1,-1
 421 0 l 1,2,-1
 421 68 l 1,3,-1
 475 68 l 1,4,-1
 425 267 l 1,5,-1
 215 267 l 1,6,-1
 165 68 l 1,7,-1
 220 68 l 1,8,-1
 220 0 l 1,9,-1
 25 0 l 1,10,-1
 25 68 l 1,11,-1
 88 68 l 1,12,-1
 262 750 l 1,13,-1
 380 750 l 1,14,-1
 551 68 l 1,15,-1
 616 68 l 1,0,-1
409 330 m 1,16,-1
 320 682 l 1,17,-1
 231 330 l 1,18,-1
 409 330 l 1,16,-1
EndSplineSet
EndChar

StartChar: quotedbl
Encoding: 34 34 67
Width: 326
Flags: W
LayerCount: 2
Fore
SplineSet
40 510 m 1,0,-1
 40 750 l 1,1,-1
 122 750 l 1,2,-1
 122 510 l 1,3,-1
 40 510 l 1,0,-1
204 510 m 1,4,-1
 204 750 l 1,5,-1
 286 750 l 1,6,-1
 286 510 l 1,7,-1
 204 510 l 1,4,-1
EndSplineSet
EndChar

StartChar: numbersign
Encoding: 35 35 68
Width: 767
Flags: W
LayerCount: 2
Fore
SplineSet
315 423 m 1,0,-1
 286 321 l 1,1,-1
 417 321 l 1,2,-1
 444 423 l 1,3,-1
 315 423 l 1,0,-1
525 423 m 1,4,-1
 498 321 l 1,5,-1
 699 321 l 1,6,-1
 681 248 l 1,7,-1
 478 248 l 1,8,-1
 415 0 l 1,9,-1
 334 0 l 1,10,-1
 398 248 l 1,11,-1
 268 248 l 1,12,-1
 203 0 l 1,13,-1
 124 0 l 1,14,-1
 191 248 l 1,15,-1
 20 248 l 1,16,-1
 40 321 l 1,17,-1
 209 321 l 1,18,-1
 235 423 l 1,19,-1
 67 423 l 1,20,-1
 87 500 l 1,21,-1
 255 500 l 1,22,-1
 319 750 l 1,23,-1
 397 750 l 1,24,-1
 333 500 l 1,25,-1
 464 500 l 1,26,-1
 528 750 l 1,27,-1
 608 750 l 1,28,-1
 545 500 l 1,29,-1
 747 500 l 1,30,-1
 727 423 l 1,31,-1
 525 423 l 1,4,-1
EndSplineSet
EndChar

StartChar: bar
Encoding: 124 124 69
Width: 270
Flags: W
LayerCount: 2
Fore
SplineSet
100 -151 m 1,0,-1
 100 871 l 1,1,-1
 170 871 l 1,2,-1
 170 -151 l 1,3,-1
 100 -151 l 1,0,-1
EndSplineSet
EndChar

StartChar: dollar
Encoding: 36 36 70
Width: 582
Flags: W
LayerCount: 2
Fore
SplineSet
256 462 m 1,0,-1
 256 682 l 1,1,-1
 160 682 l 1,2,-1
 160 522 l 1,3,-1
 256 462 l 1,0,-1
326 322 m 1,4,-1
 326 68 l 1,5,-1
 422 68 l 1,6,-1
 422 263 l 1,7,-1
 326 322 l 1,4,-1
256 -150 m 1,8,-1
 256 0 l 1,9,-1
 80 0 l 1,10,-1
 80 185 l 1,11,-1
 152 185 l 1,12,-1
 152 68 l 1,13,-1
 256 68 l 1,14,-1
 256 365 l 1,15,-1
 160 424 l 1,16,17
 125 444 125 444 102.5 465.5 c 128,-1,18
 80 487 80 487 80 524 c 2,19,-1
 80 650 l 2,20,21
 80 681 80 681 87 700.5 c 128,-1,22
 94 720 94 720 108 731 c 128,-1,23
 122 742 122 742 142.5 746 c 128,-1,24
 163 750 163 750 191 750 c 2,25,-1
 256 750 l 1,26,-1
 256 900 l 1,27,-1
 326 900 l 1,28,-1
 326 750 l 1,29,-1
 493 750 l 1,30,-1
 493 565 l 1,31,-1
 421 565 l 1,32,-1
 421 682 l 1,33,-1
 326 682 l 1,34,-1
 326 418 l 1,35,-1
 408 367 l 1,36,37
 428 353 428 353 445.5 342.5 c 128,-1,38
 463 332 463 332 475.5 320.5 c 128,-1,39
 488 309 488 309 495 295.5 c 128,-1,40
 502 282 502 282 502 261 c 2,41,-1
 502 91 l 2,42,43
 502 67 502 67 493.5 50 c 128,-1,44
 485 33 485 33 470.5 21.5 c 128,-1,45
 456 10 456 10 437.5 5 c 128,-1,46
 419 0 419 0 399 0 c 2,47,-1
 326 0 l 1,48,-1
 326 -150 l 1,49,-1
 256 -150 l 1,8,-1
EndSplineSet
EndChar

StartChar: percent
Encoding: 37 37 71
Width: 825
Flags: W
LayerCount: 2
Fore
SplineSet
531 870 m 1,0,-1
 608 870 l 1,1,-1
 276 -151 l 1,2,-1
 198 -151 l 1,3,-1
 531 870 l 1,0,-1
694 381 m 1,4,-1
 564 381 l 1,5,-1
 564 66 l 1,6,-1
 694 66 l 1,7,-1
 694 381 l 1,4,-1
640 443 m 2,8,9
 680 443 680 443 705 437.5 c 128,-1,10
 730 432 730 432 743 417.5 c 128,-1,11
 756 403 756 403 760.5 378 c 128,-1,12
 765 353 765 353 765 315 c 2,13,-1
 765 123 l 2,14,15
 765 87 765 87 761.5 63.5 c 128,-1,16
 758 40 758 40 746 25.5 c 128,-1,17
 734 11 734 11 711.5 5.5 c 128,-1,18
 689 0 689 0 650 0 c 2,19,-1
 612 0 l 2,20,21
 577 0 577 0 553.5 4.5 c 128,-1,22
 530 9 530 9 516 21.5 c 128,-1,23
 502 34 502 34 496.5 56.5 c 128,-1,24
 491 79 491 79 491 115 c 2,25,-1
 491 331 l 2,26,27
 491 364 491 364 497 385.5 c 128,-1,28
 503 407 503 407 516.5 420 c 128,-1,29
 530 433 530 433 552 438 c 128,-1,30
 574 443 574 443 606 443 c 2,31,-1
 640 443 l 2,8,9
262 377 m 1,32,-1
 262 692 l 1,33,-1
 132 692 l 1,34,-1
 132 377 l 1,35,-1
 262 377 l 1,32,-1
332 439 m 2,36,37
 332 403 332 403 329 378.5 c 128,-1,38
 326 354 326 354 314.5 339.5 c 128,-1,39
 303 325 303 325 280.5 319 c 128,-1,40
 258 313 258 313 220 313 c 2,41,-1
 180 313 l 2,42,43
 145 313 145 313 121.5 317.5 c 128,-1,44
 98 322 98 322 84.5 334 c 128,-1,45
 71 346 71 346 65.5 368.5 c 128,-1,46
 60 391 60 391 60 427 c 2,47,-1
 60 642 l 2,48,49
 60 677 60 677 65.5 699.5 c 128,-1,50
 71 722 71 722 84.5 735 c 128,-1,51
 98 748 98 748 120 753 c 128,-1,52
 142 758 142 758 174 758 c 2,53,-1
 210 758 l 2,54,55
 250 758 250 758 274 752 c 128,-1,56
 298 746 298 746 311 731.5 c 128,-1,57
 324 717 324 717 328 692 c 128,-1,58
 332 667 332 667 332 630 c 2,59,-1
 332 439 l 2,36,37
EndSplineSet
EndChar

StartChar: backslash
Encoding: 92 92 72
Width: 419
Flags: W
LayerCount: 2
Fore
SplineSet
5 870 m 1,0,-1
 83 870 l 1,1,-1
 414 -150 l 1,2,-1
 337 -150 l 1,3,-1
 5 870 l 1,0,-1
EndSplineSet
EndChar

StartChar: ampersand
Encoding: 38 38 73
Width: 726
Flags: W
LayerCount: 2
Fore
SplineSet
360 67 m 2,0,1
 381 67 381 67 393 69.5 c 128,-1,2
 405 72 405 72 410.5 78.5 c 128,-1,3
 416 85 416 85 417 97 c 128,-1,4
 418 109 418 109 418 129 c 2,5,-1
 418 243 l 1,6,-1
 298 390 l 1,7,-1
 127 238 l 1,8,-1
 127 138 l 2,9,10
 127 115 127 115 128.5 101.5 c 128,-1,11
 130 88 130 88 136.5 80 c 128,-1,12
 143 72 143 72 156 69.5 c 128,-1,13
 169 67 169 67 191 67 c 2,14,-1
 360 67 l 2,0,1
311 490 m 1,15,-1
 396 559 l 1,16,-1
 396 617 l 2,17,18
 396 639 396 639 395 653 c 128,-1,19
 394 667 394 667 388 675 c 128,-1,20
 382 683 382 683 370 685.5 c 128,-1,21
 358 688 358 688 336 688 c 2,22,-1
 293 688 l 2,23,24
 272 688 272 688 259.5 685.5 c 128,-1,25
 247 683 247 683 240.5 676.5 c 128,-1,26
 234 670 234 670 232.5 657.5 c 128,-1,27
 231 645 231 645 231 626 c 2,28,-1
 231 571 l 1,29,-1
 311 490 l 1,15,-1
631 -6 m 1,30,-1
 487 161 l 1,31,-1
 487 124 l 2,32,33
 487 91 487 91 483 67.5 c 128,-1,34
 479 44 479 44 467 29 c 128,-1,35
 455 14 455 14 432 6.5 c 128,-1,36
 409 -1 409 -1 371 -1 c 2,37,-1
 180 -1 l 2,38,39
 136 -1 136 -1 111.5 5.5 c 128,-1,40
 87 12 87 12 75.5 28 c 128,-1,41
 64 44 64 44 62 71 c 128,-1,42
 60 98 60 98 60 140 c 2,43,-1
 60 274 l 1,44,-1
 254 440 l 1,45,-1
 162 550 l 1,46,-1
 162 631 l 2,47,48
 162 664 162 664 165 687.5 c 128,-1,49
 168 711 168 711 179 726 c 128,-1,50
 190 741 190 741 211.5 748.5 c 128,-1,51
 233 756 233 756 271 756 c 2,52,-1
 336 756 l 2,53,54
 380 756 380 756 405.5 749.5 c 128,-1,55
 431 743 431 743 443.5 727 c 128,-1,56
 456 711 456 711 459.5 684 c 128,-1,57
 463 657 463 657 463 615 c 2,58,-1
 463 523 l 1,59,-1
 355 436 l 1,60,-1
 440 334 l 1,61,-1
 559 432 l 1,62,-1
 607 378 l 1,63,-1
 487 279 l 1,64,-1
 686 40 l 1,65,-1
 631 -6 l 1,30,-1
EndSplineSet
EndChar

StartChar: quotesingle
Encoding: 39 39 74
Width: 202
Flags: W
LayerCount: 2
Fore
SplineSet
60 511 m 1,0,-1
 60 750 l 1,1,-1
 142 750 l 1,2,-1
 142 511 l 1,3,-1
 60 511 l 1,0,-1
EndSplineSet
EndChar

StartChar: parenleft
Encoding: 40 40 75
Width: 273
Flags: W
LayerCount: 2
Fore
SplineSet
263 -151 m 1,0,1
 207 -151 207 -151 171 -127 c 128,-1,2
 135 -103 135 -103 115 -64 c 128,-1,3
 95 -25 95 -25 87.5 23.5 c 128,-1,4
 80 72 80 72 80 122 c 2,5,-1
 80 630 l 2,6,7
 80 678 80 678 88 721.5 c 128,-1,8
 96 765 96 765 116 798 c 128,-1,9
 136 831 136 831 171.5 850.5 c 128,-1,10
 207 870 207 870 263 870 c 1,11,-1
 263 819 l 1,12,13
 206 819 206 819 178 768 c 128,-1,14
 150 717 150 717 150 628 c 2,15,-1
 150 127 l 2,16,17
 150 79 150 79 156.5 37.5 c 128,-1,18
 163 -4 163 -4 176.5 -35.5 c 128,-1,19
 190 -67 190 -67 211.5 -85 c 128,-1,20
 233 -103 233 -103 263 -103 c 1,21,-1
 263 -151 l 1,0,1
EndSplineSet
EndChar

StartChar: parenright
Encoding: 41 41 76
Width: 273
Flags: W
LayerCount: 2
Fore
SplineSet
10 870 m 1,0,1
 66 870 66 870 101.5 846 c 128,-1,2
 137 822 137 822 157.5 783 c 128,-1,3
 178 744 178 744 185.5 695 c 128,-1,4
 193 646 193 646 193 597 c 2,5,-1
 193 89 l 2,6,7
 193 41 193 41 185 -2.5 c 128,-1,8
 177 -46 177 -46 157 -79 c 128,-1,9
 137 -112 137 -112 101 -131.5 c 128,-1,10
 65 -151 65 -151 10 -151 c 1,11,-1
 10 -100 l 1,12,13
 67 -100 67 -100 95 -49 c 128,-1,14
 123 2 123 2 123 91 c 2,15,-1
 123 592 l 2,16,17
 123 640 123 640 116.5 681.5 c 128,-1,18
 110 723 110 723 96.5 754.5 c 128,-1,19
 83 786 83 786 61.5 804 c 128,-1,20
 40 822 40 822 10 822 c 1,21,-1
 10 870 l 1,0,1
EndSplineSet
EndChar

StartChar: asterisk
Encoding: 42 42 77
Width: 407
Flags: W
LayerCount: 2
Fore
SplineSet
262 592 m 1,0,-1
 365 533 l 1,1,-1
 336 483 l 1,2,-1
 232 538 l 1,3,-1
 232 419 l 1,4,-1
 174 419 l 1,5,-1
 174 539 l 1,6,-1
 69 482 l 1,7,-1
 40 538 l 1,8,-1
 141 592 l 1,9,-1
 42 652 l 1,10,-1
 69 703 l 1,11,-1
 174 643 l 1,12,-1
 174 761 l 1,13,-1
 232 761 l 1,14,-1
 232 643 l 1,15,-1
 338 701 l 1,16,-1
 367 651 l 1,17,-1
 262 592 l 1,0,-1
EndSplineSet
EndChar

StartChar: plus
Encoding: 43 43 78
Width: 604
Flags: W
LayerCount: 2
Fore
SplineSet
524 420 m 1,0,-1
 524 354 l 1,1,-1
 337 354 l 1,2,-1
 337 167 l 1,3,-1
 267 167 l 1,4,-1
 267 354 l 1,5,-1
 80 354 l 1,6,-1
 80 420 l 1,7,-1
 267 420 l 1,8,-1
 267 609 l 1,9,-1
 337 609 l 1,10,-1
 337 420 l 1,11,-1
 524 420 l 1,0,-1
EndSplineSet
EndChar

StartChar: hyphen
Encoding: 45 45 79
Width: 451
Flags: W
LayerCount: 2
Fore
SplineSet
371 420 m 1,0,-1
 371 354 l 1,1,-1
 80 354 l 1,2,-1
 80 420 l 1,3,-1
 371 420 l 1,0,-1
EndSplineSet
EndChar

StartChar: endash
Encoding: 8211 8211 80
Width: 604
Flags: W
LayerCount: 2
Fore
SplineSet
524 420 m 1,0,-1
 524 354 l 1,1,-1
 80 354 l 1,2,-1
 80 420 l 1,3,-1
 524 420 l 1,0,-1
EndSplineSet
EndChar

StartChar: emdash
Encoding: 8212 8212 81
Width: 732
Flags: W
LayerCount: 2
Fore
SplineSet
661 420 m 1,0,-1
 661 354 l 1,1,-1
 80 354 l 1,2,-1
 80 420 l 1,3,-1
 661 420 l 1,0,-1
EndSplineSet
EndChar

StartChar: period
Encoding: 46 46 82
Width: 221
Flags: W
LayerCount: 2
Fore
SplineSet
161 47 m 0,0,1
 161 25 161 25 146.5 10.5 c 128,-1,2
 132 -4 132 -4 110 -4 c 0,3,4
 90 -4 90 -4 75 10.5 c 128,-1,5
 60 25 60 25 60 47 c 0,6,7
 60 67 60 67 75.5 83 c 128,-1,8
 91 99 91 99 111 99 c 0,9,10
 132 99 132 99 146.5 83 c 128,-1,11
 161 67 161 67 161 47 c 0,0,1
EndSplineSet
EndChar

StartChar: slash
Encoding: 47 47 83
Width: 419
Flags: W
LayerCount: 2
Fore
SplineSet
337 870 m 1,0,-1
 414 870 l 1,1,-1
 83 -150 l 1,2,-1
 5 -150 l 1,3,-1
 337 870 l 1,0,-1
EndSplineSet
EndChar

StartChar: colon
Encoding: 58 58 84
Width: 221
Flags: W
LayerCount: 2
Fore
SplineSet
161 406 m 0,0,1
 161 383 161 383 146.5 368.5 c 128,-1,2
 132 354 132 354 110 354 c 0,3,4
 90 354 90 354 75 368.5 c 128,-1,5
 60 383 60 383 60 406 c 0,6,7
 60 427 60 427 75.5 442.5 c 128,-1,8
 91 458 91 458 111 458 c 0,9,10
 132 458 132 458 146.5 442.5 c 128,-1,11
 161 427 161 427 161 406 c 0,0,1
161 47 m 0,12,13
 161 25 161 25 146.5 10.5 c 128,-1,14
 132 -4 132 -4 110 -4 c 0,15,16
 90 -4 90 -4 75 10.5 c 128,-1,17
 60 25 60 25 60 47 c 0,18,19
 60 67 60 67 75.5 83 c 128,-1,20
 91 99 91 99 111 99 c 0,21,22
 132 99 132 99 146.5 83 c 128,-1,23
 161 67 161 67 161 47 c 0,12,13
EndSplineSet
EndChar

StartChar: semicolon
Encoding: 59 59 85
Width: 242
Flags: W
LayerCount: 2
Fore
SplineSet
182 406 m 0,0,1
 182 383 182 383 166.5 368.5 c 128,-1,2
 151 354 151 354 129 354 c 0,3,4
 109 354 109 354 94 368.5 c 128,-1,5
 79 383 79 383 79 406 c 0,6,7
 79 427 79 427 94.5 442.5 c 128,-1,8
 110 458 110 458 130 458 c 0,9,10
 151 458 151 458 166.5 442.5 c 128,-1,11
 182 427 182 427 182 406 c 0,0,1
93 -150 m 1,12,-1
 20 -150 l 1,13,-1
 97 98 l 1,14,-1
 171 98 l 1,15,-1
 93 -150 l 1,12,-1
EndSplineSet
EndChar

StartChar: comma
Encoding: 44 44 86
Width: 231
Flags: W
LayerCount: 2
Fore
SplineSet
93 -150 m 1,0,-1
 20 -150 l 1,1,-1
 97 98 l 1,2,-1
 171 98 l 1,3,-1
 93 -150 l 1,0,-1
EndSplineSet
EndChar

StartChar: less
Encoding: 60 60 87
Width: 541
Flags: W
LayerCount: 2
Fore
SplineSet
60 341 m 1,0,-1
 60 417 l 1,1,-1
 511 634 l 1,2,-1
 511 565 l 1,3,-1
 133 379 l 1,4,-1
 511 192 l 1,5,-1
 511 123 l 1,6,-1
 60 341 l 1,0,-1
EndSplineSet
EndChar

StartChar: equal
Encoding: 61 61 88
Width: 564
Flags: W
LayerCount: 2
Fore
SplineSet
80 274 m 1,0,-1
 80 338 l 1,1,-1
 484 338 l 1,2,-1
 484 274 l 1,3,-1
 80 274 l 1,0,-1
80 427 m 1,4,-1
 80 492 l 1,5,-1
 484 492 l 1,6,-1
 484 427 l 1,7,-1
 80 427 l 1,4,-1
EndSplineSet
EndChar

StartChar: greater
Encoding: 62 62 89
Width: 541
Flags: W
LayerCount: 2
Fore
SplineSet
30 123 m 1,0,-1
 30 192 l 1,1,-1
 408 379 l 1,2,3
 315 424 315 424 219.5 472 c 128,-1,4
 124 520 124 520 30 565 c 1,5,-1
 30 634 l 1,6,7
 145 580 145 580 255.5 526 c 128,-1,8
 366 472 366 472 481 417 c 1,9,-1
 481 341 l 1,10,-1
 30 123 l 1,0,-1
EndSplineSet
EndChar

StartChar: question
Encoding: 63 63 90
Width: 481
Flags: W
LayerCount: 2
Fore
SplineSet
138 99 m 256,0,1
 159 99 159 99 174 83 c 128,-1,2
 189 67 189 67 189 47 c 0,3,4
 189 25 189 25 174 10.5 c 128,-1,5
 159 -4 159 -4 137 -4 c 0,6,7
 117 -4 117 -4 102 10.5 c 128,-1,8
 87 25 87 25 87 47 c 0,9,10
 87 67 87 67 102 83 c 128,-1,11
 117 99 117 99 138 99 c 256,0,1
93 568 m 1,12,-1
 20 568 l 1,13,-1
 20 750 l 1,14,-1
 289 750 l 2,15,16
 344 750 344 750 372.5 728 c 128,-1,17
 401 706 401 706 401 643 c 2,18,-1
 401 450 l 2,19,20
 401 403 401 403 378.5 375.5 c 128,-1,21
 356 348 356 348 307 348 c 2,22,-1
 178 348 l 1,23,-1
 178 194 l 1,24,-1
 98 194 l 1,25,-1
 98 329 l 2,26,27
 98 376 98 376 121 396.5 c 128,-1,28
 144 417 144 417 193 417 c 2,29,-1
 315 417 l 1,30,-1
 315 682 l 1,31,-1
 93 682 l 1,32,-1
 93 568 l 1,12,-1
EndSplineSet
EndChar

StartChar: bracketleft
Encoding: 91 91 91
Width: 259
Flags: W
LayerCount: 2
Fore
SplineSet
152 -149 m 2,0,1
 116 -149 116 -149 98 -134.5 c 128,-1,2
 80 -120 80 -120 80 -84 c 2,3,-1
 80 804 l 2,4,5
 80 840 80 840 98 855 c 128,-1,6
 116 870 116 870 152 870 c 2,7,-1
 254 870 l 1,8,-1
 254 821 l 1,9,-1
 150 821 l 1,10,-1
 150 -99 l 1,11,-1
 254 -99 l 1,12,-1
 254 -149 l 1,13,-1
 152 -149 l 2,0,1
EndSplineSet
EndChar

StartChar: bracketright
Encoding: 93 93 92
Width: 259
Flags: W
LayerCount: 2
Fore
SplineSet
107 870 m 2,0,1
 143 870 143 870 161 855.5 c 128,-1,2
 179 841 179 841 179 805 c 2,3,-1
 179 -83 l 2,4,5
 179 -119 179 -119 161 -134 c 128,-1,6
 143 -149 143 -149 107 -149 c 2,7,-1
 5 -149 l 1,8,-1
 5 -100 l 1,9,-1
 109 -100 l 1,10,-1
 109 820 l 1,11,-1
 5 820 l 1,12,-1
 5 870 l 1,13,-1
 107 870 l 2,0,1
EndSplineSet
EndChar

StartChar: braceleft
Encoding: 123 123 93
Width: 329
Flags: W
LayerCount: 2
Fore
SplineSet
211 523 m 2,0,1
 211 498 211 498 206 474 c 128,-1,2
 201 450 201 450 189 429 c 128,-1,3
 177 408 177 408 157 390.5 c 128,-1,4
 137 373 137 373 108 361 c 1,5,6
 137 349 137 349 157 331.5 c 128,-1,7
 177 314 177 314 189 293 c 128,-1,8
 201 272 201 272 206 248 c 128,-1,9
 211 224 211 224 211 199 c 2,10,-1
 211 78 l 2,11,12
 211 38 211 38 213.5 4 c 128,-1,13
 216 -30 216 -30 226.5 -55.5 c 128,-1,14
 237 -81 237 -81 259 -95.5 c 128,-1,15
 281 -110 281 -110 319 -110 c 1,16,-1
 319 -151 l 1,17,18
 258 -151 258 -151 223 -137 c 128,-1,19
 188 -123 188 -123 170 -97 c 128,-1,20
 152 -71 152 -71 147.5 -32.5 c 128,-1,21
 143 6 143 6 143 56 c 2,22,-1
 143 199 l 2,23,24
 143 244 143 244 122.5 281.5 c 128,-1,25
 102 319 102 319 50 341 c 1,26,-1
 50 381 l 1,27,28
 102 403 102 403 122.5 440.5 c 128,-1,29
 143 478 143 478 143 523 c 2,30,-1
 143 666 l 2,31,32
 143 715 143 715 147.5 754 c 128,-1,33
 152 793 152 793 170 819 c 128,-1,34
 188 845 188 845 223 859 c 128,-1,35
 258 873 258 873 319 873 c 1,36,-1
 319 832 l 1,37,38
 281 832 281 832 259 817.5 c 128,-1,39
 237 803 237 803 226.5 777.5 c 128,-1,40
 216 752 216 752 213.5 718 c 128,-1,41
 211 684 211 684 211 644 c 2,42,-1
 211 523 l 2,0,1
EndSplineSet
EndChar

StartChar: braceright
Encoding: 125 125 94
Width: 329
Flags: W
LayerCount: 2
Fore
SplineSet
118 644 m 2,0,1
 118 684 118 684 115.5 718 c 128,-1,2
 113 752 113 752 102.5 777.5 c 128,-1,3
 92 803 92 803 70 817.5 c 128,-1,4
 48 832 48 832 10 832 c 1,5,-1
 10 873 l 1,6,7
 71 873 71 873 106 859 c 128,-1,8
 141 845 141 845 159 819 c 128,-1,9
 177 793 177 793 181.5 754 c 128,-1,10
 186 715 186 715 186 666 c 2,11,-1
 186 523 l 2,12,13
 186 478 186 478 206.5 440.5 c 128,-1,14
 227 403 227 403 279 381 c 1,15,-1
 279 341 l 1,16,17
 227 319 227 319 206.5 281.5 c 128,-1,18
 186 244 186 244 186 199 c 2,19,-1
 186 56 l 2,20,21
 186 6 186 6 181.5 -32.5 c 128,-1,22
 177 -71 177 -71 159 -97 c 128,-1,23
 141 -123 141 -123 106 -137 c 128,-1,24
 71 -151 71 -151 10 -151 c 1,25,-1
 10 -110 l 1,26,27
 48 -110 48 -110 70 -95.5 c 128,-1,28
 92 -81 92 -81 102.5 -55.5 c 128,-1,29
 113 -30 113 -30 115.5 4 c 128,-1,30
 118 38 118 38 118 78 c 2,31,-1
 118 199 l 2,32,33
 118 224 118 224 123 248 c 128,-1,34
 128 272 128 272 140 293 c 128,-1,35
 152 314 152 314 172 331.5 c 128,-1,36
 192 349 192 349 221 361 c 1,37,38
 192 373 192 373 172 390.5 c 128,-1,39
 152 408 152 408 140 429 c 128,-1,40
 128 450 128 450 123 474 c 128,-1,41
 118 498 118 498 118 523 c 2,42,-1
 118 644 l 2,0,1
EndSplineSet
EndChar

StartChar: asciicircum
Encoding: 94 94 95
Width: 596
Flags: W
LayerCount: 2
Fore
SplineSet
516 375 m 1,0,-1
 447 375 l 1,1,-1
 301 679 l 1,2,-1
 150 375 l 1,3,-1
 80 375 l 1,4,-1
 272 750 l 1,5,-1
 334 750 l 1,6,-1
 516 375 l 1,0,-1
EndSplineSet
EndChar

StartChar: underscore
Encoding: 95 95 96
Width: 542
Flags: W
LayerCount: 2
Fore
SplineSet
5 -72 m 1,0,-1
 537 -72 l 1,1,-1
 537 -112 l 1,2,-1
 5 -112 l 1,3,-1
 5 -72 l 1,0,-1
EndSplineSet
EndChar

StartChar: asciitilde
Encoding: 126 126 97
Width: 595
Flags: W
LayerCount: 2
Fore
SplineSet
555 335 m 1,0,1
 541 318 541 318 525 301.5 c 128,-1,2
 509 285 509 285 491 272 c 128,-1,3
 473 259 473 259 453.5 251 c 128,-1,4
 434 243 434 243 412 243 c 0,5,6
 389 243 389 243 358.5 255 c 128,-1,7
 328 267 328 267 296.5 281.5 c 128,-1,8
 265 296 265 296 235 308 c 128,-1,9
 205 320 205 320 184 320 c 0,10,11
 168 320 168 320 156 316.5 c 128,-1,12
 144 313 144 313 133 304.5 c 128,-1,13
 122 296 122 296 110.5 283.5 c 128,-1,14
 99 271 99 271 85 253 c 1,15,-1
 40 287 l 1,16,17
 48 298 48 298 61.5 314.5 c 128,-1,18
 75 331 75 331 93.5 347 c 128,-1,19
 112 363 112 363 134.5 374 c 128,-1,20
 157 385 157 385 182 385 c 0,21,22
 214 385 214 385 247 372.5 c 128,-1,23
 280 360 280 360 310.5 345.5 c 128,-1,24
 341 331 341 331 367 318.5 c 128,-1,25
 393 306 393 306 411 306 c 256,26,27
 429 306 429 306 444.5 312 c 128,-1,28
 460 318 460 318 473 327.5 c 128,-1,29
 486 337 486 337 496.5 348.5 c 128,-1,30
 507 360 507 360 516 371 c 1,31,-1
 555 335 l 1,0,1
EndSplineSet
EndChar

StartChar: daggerdbl
Encoding: 8225 8225 98
Width: 549
Flags: W
LayerCount: 2
Fore
SplineSet
313 60 m 1,0,-1
 313 -197 l 1,1,-1
 237 -197 l 1,2,-1
 237 60 l 1,3,-1
 40 60 l 1,4,-1
 40 128 l 1,5,-1
 237 128 l 1,6,-1
 237 420 l 1,7,-1
 40 420 l 1,8,-1
 40 487 l 1,9,-1
 237 487 l 1,10,-1
 237 750 l 1,11,-1
 313 750 l 1,12,-1
 313 487 l 1,13,-1
 509 487 l 1,14,-1
 509 420 l 1,15,-1
 313 420 l 1,16,-1
 313 128 l 1,17,-1
 509 128 l 1,18,-1
 509 60 l 1,19,-1
 313 60 l 1,0,-1
EndSplineSet
EndChar

StartChar: dagger
Encoding: 8224 8224 99
Width: 549
Flags: W
LayerCount: 2
Fore
SplineSet
313 -197 m 1,0,-1
 237 -197 l 1,1,-1
 237 420 l 1,2,-1
 40 420 l 1,3,-1
 40 487 l 1,4,-1
 237 487 l 1,5,-1
 237 750 l 1,6,-1
 313 750 l 1,7,-1
 313 487 l 1,8,-1
 509 487 l 1,9,-1
 509 420 l 1,10,-1
 313 420 l 1,11,-1
 313 -197 l 1,0,-1
EndSplineSet
EndChar

StartChar: quoteleft
Encoding: 8216 8216 100
Width: 177
Flags: W
LayerCount: 2
Fore
SplineSet
75 510 m 1,0,-1
 2 510 l 1,1,-1
 77 750 l 1,2,-1
 151 750 l 1,3,-1
 75 510 l 1,0,-1
EndSplineSet
EndChar

StartChar: quoteright
Encoding: 8217 8217 101
Width: 177
Flags: W
LayerCount: 2
Fore
SplineSet
75 510 m 1,0,-1
 2 510 l 1,1,-1
 77 750 l 1,2,-1
 151 750 l 1,3,-1
 75 510 l 1,0,-1
EndSplineSet
EndChar

StartChar: quotedblleft
Encoding: 8220 8220 102
Width: 343
Flags: W
LayerCount: 2
Fore
SplineSet
252 510 m 1,0,-1
 179 510 l 1,1,-1
 254 750 l 1,2,-1
 328 750 l 1,3,-1
 252 510 l 1,0,-1
75 510 m 1,4,-1
 2 510 l 1,5,-1
 77 750 l 1,6,-1
 151 750 l 1,7,-1
 75 510 l 1,4,-1
EndSplineSet
EndChar

StartChar: quotedblright
Encoding: 8221 8221 103
Width: 343
Flags: W
LayerCount: 2
Fore
SplineSet
252 510 m 1,0,-1
 179 510 l 1,1,-1
 254 750 l 1,2,-1
 328 750 l 1,3,-1
 252 510 l 1,0,-1
75 510 m 1,4,-1
 2 510 l 1,5,-1
 77 750 l 1,6,-1
 151 750 l 1,7,-1
 75 510 l 1,4,-1
EndSplineSet
EndChar

StartChar: bullet
Encoding: 8226 8226 104
Width: 414
Flags: W
LayerCount: 2
Fore
SplineSet
87 382 m 0,0,1
 87 408 87 408 97 431.5 c 128,-1,2
 107 455 107 455 124.5 472 c 128,-1,3
 142 489 142 489 165.5 499.5 c 128,-1,4
 189 510 189 510 216 510 c 0,5,6
 242 510 242 510 265 500 c 128,-1,7
 288 490 288 490 305 472.5 c 128,-1,8
 322 455 322 455 332 432 c 128,-1,9
 342 409 342 409 342 382 c 256,10,11
 342 355 342 355 332 331.5 c 128,-1,12
 322 308 322 308 305 290 c 128,-1,13
 288 272 288 272 265 262 c 128,-1,14
 242 252 242 252 216 252 c 0,15,16
 189 252 189 252 166 262 c 128,-1,17
 143 272 143 272 125.5 290 c 128,-1,18
 108 308 108 308 97.5 331.5 c 128,-1,19
 87 355 87 355 87 382 c 0,0,1
EndSplineSet
EndChar

StartChar: quotesinglbase
Encoding: 8218 8218 105
Width: 189
Flags: W
LayerCount: 2
Fore
SplineSet
83 -149 m 1,0,-1
 10 -149 l 1,1,-1
 85 91 l 1,2,-1
 159 91 l 1,3,-1
 83 -149 l 1,0,-1
EndSplineSet
EndChar

StartChar: quotedblbase
Encoding: 8222 8222 106
Width: 366
Flags: W
LayerCount: 2
Fore
SplineSet
260 -150 m 1,0,-1
 187 -150 l 1,1,-1
 262 90 l 1,2,-1
 336 90 l 1,3,-1
 260 -150 l 1,0,-1
83 -150 m 1,4,-1
 10 -150 l 1,5,-1
 85 90 l 1,6,-1
 159 90 l 1,7,-1
 83 -150 l 1,4,-1
EndSplineSet
EndChar

StartChar: ellipsis
Encoding: 8230 8230 107
Width: 609
Flags: W
LayerCount: 2
Fore
SplineSet
569 47 m 0,0,1
 569 25 569 25 554.5 10.5 c 128,-1,2
 540 -4 540 -4 518 -4 c 0,3,4
 498 -4 498 -4 483 10.5 c 128,-1,5
 468 25 468 25 468 47 c 0,6,7
 468 67 468 67 483.5 83 c 128,-1,8
 499 99 499 99 519 99 c 0,9,10
 540 99 540 99 554.5 83 c 128,-1,11
 569 67 569 67 569 47 c 0,0,1
355 47 m 0,12,13
 355 25 355 25 340.5 10.5 c 128,-1,14
 326 -4 326 -4 304 -4 c 0,15,16
 284 -4 284 -4 269 10.5 c 128,-1,17
 254 25 254 25 254 47 c 0,18,19
 254 67 254 67 269.5 83 c 128,-1,20
 285 99 285 99 305 99 c 0,21,22
 326 99 326 99 340.5 83 c 128,-1,23
 355 67 355 67 355 47 c 0,12,13
141 47 m 0,24,25
 141 25 141 25 126.5 10.5 c 128,-1,26
 112 -4 112 -4 90 -4 c 0,27,28
 70 -4 70 -4 55 10.5 c 128,-1,29
 40 25 40 25 40 47 c 0,30,31
 40 67 40 67 55.5 83 c 128,-1,32
 71 99 71 99 91 99 c 0,33,34
 112 99 112 99 126.5 83 c 128,-1,35
 141 67 141 67 141 47 c 0,24,25
EndSplineSet
EndChar

StartChar: guillemotleft
Encoding: 171 171 108
Width: 443
Flags: W
LayerCount: 2
Fore
SplineSet
433 114 m 1,0,-1
 378 73 l 1,1,-1
 222 270 l 1,2,-1
 376 482 l 1,3,-1
 433 442 l 1,4,-1
 306 270 l 1,5,-1
 433 114 l 1,0,-1
241 114 m 1,6,-1
 186 73 l 1,7,-1
 30 270 l 1,8,-1
 184 482 l 1,9,-1
 241 442 l 1,10,-1
 114 270 l 1,11,-1
 241 114 l 1,6,-1
EndSplineSet
EndChar

StartChar: guillemotright
Encoding: 187 187 109
Width: 443
Flags: W
LayerCount: 2
Fore
SplineSet
10 441 m 1,0,-1
 65 482 l 1,1,-1
 221 285 l 1,2,-1
 67 73 l 1,3,-1
 10 113 l 1,4,-1
 137 285 l 1,5,-1
 10 441 l 1,0,-1
202 441 m 1,6,-1
 257 482 l 1,7,-1
 413 285 l 1,8,-1
 259 73 l 1,9,-1
 202 113 l 1,10,-1
 329 285 l 1,11,-1
 202 441 l 1,6,-1
EndSplineSet
EndChar

StartChar: guilsinglleft
Encoding: 8249 8249 110
Width: 251
Flags: W
LayerCount: 2
Fore
SplineSet
241 114 m 1,0,-1
 186 73 l 1,1,-1
 30 270 l 1,2,-1
 184 482 l 1,3,-1
 241 442 l 1,4,-1
 114 270 l 1,5,-1
 241 114 l 1,0,-1
EndSplineSet
EndChar

StartChar: guilsinglright
Encoding: 8250 8250 111
Width: 251
Flags: W
LayerCount: 2
Fore
SplineSet
10 441 m 1,0,-1
 65 482 l 1,1,-1
 221 285 l 1,2,-1
 67 73 l 1,3,-1
 10 113 l 1,4,-1
 137 285 l 1,5,-1
 10 441 l 1,0,-1
EndSplineSet
EndChar

StartChar: logicalnot
Encoding: 172 172 112
Width: 649
Flags: W
LayerCount: 2
Fore
SplineSet
493 354 m 1,0,-1
 43 354 l 1,1,-1
 43 421 l 1,2,-1
 566 421 l 1,3,-1
 566 83 l 1,4,-1
 493 83 l 1,5,-1
 493 354 l 1,0,-1
EndSplineSet
EndChar

StartChar: plusminus
Encoding: 177 177 113
Width: 604
Flags: W
LayerCount: 2
Fore
SplineSet
80 187 m 1,0,-1
 524 187 l 1,1,-1
 524 121 l 1,2,-1
 80 121 l 1,3,-1
 80 187 l 1,0,-1
524 486 m 1,4,-1
 524 420 l 1,5,-1
 337 420 l 1,6,-1
 337 253 l 1,7,-1
 267 253 l 1,8,-1
 267 420 l 1,9,-1
 80 420 l 1,10,-1
 80 486 l 1,11,-1
 267 486 l 1,12,-1
 267 656 l 1,13,-1
 337 656 l 1,14,-1
 337 486 l 1,15,-1
 524 486 l 1,4,-1
EndSplineSet
EndChar

StartChar: perthousand
Encoding: 8240 8240 114
Width: 1180
Flags: W
LayerCount: 2
Fore
SplineSet
1049 381 m 1,0,-1
 919 381 l 1,1,-1
 919 66 l 1,2,-1
 1049 66 l 1,3,-1
 1049 381 l 1,0,-1
995 443 m 2,4,5
 1035 443 1035 443 1060 437.5 c 128,-1,6
 1085 432 1085 432 1098 417.5 c 128,-1,7
 1111 403 1111 403 1115.5 378 c 128,-1,8
 1120 353 1120 353 1120 315 c 2,9,-1
 1120 123 l 2,10,11
 1120 87 1120 87 1116.5 63.5 c 128,-1,12
 1113 40 1113 40 1101 25.5 c 128,-1,13
 1089 11 1089 11 1066.5 5.5 c 128,-1,14
 1044 0 1044 0 1005 0 c 2,15,-1
 967 0 l 2,16,17
 932 0 932 0 908.5 4.5 c 128,-1,18
 885 9 885 9 871 21.5 c 128,-1,19
 857 34 857 34 851.5 56.5 c 128,-1,20
 846 79 846 79 846 115 c 2,21,-1
 846 331 l 2,22,23
 846 364 846 364 852 385.5 c 128,-1,24
 858 407 858 407 871.5 420 c 128,-1,25
 885 433 885 433 907 438 c 128,-1,26
 929 443 929 443 961 443 c 2,27,-1
 995 443 l 2,4,5
531 870 m 1,28,-1
 608 870 l 1,29,-1
 276 -151 l 1,30,-1
 198 -151 l 1,31,-1
 531 870 l 1,28,-1
694 381 m 1,32,-1
 564 381 l 1,33,-1
 564 66 l 1,34,-1
 694 66 l 1,35,-1
 694 381 l 1,32,-1
640 443 m 2,36,37
 680 443 680 443 705 437.5 c 128,-1,38
 730 432 730 432 743 417.5 c 128,-1,39
 756 403 756 403 760.5 378 c 128,-1,40
 765 353 765 353 765 315 c 2,41,-1
 765 123 l 2,42,43
 765 87 765 87 761.5 63.5 c 128,-1,44
 758 40 758 40 746 25.5 c 128,-1,45
 734 11 734 11 711.5 5.5 c 128,-1,46
 689 0 689 0 650 0 c 2,47,-1
 612 0 l 2,48,49
 577 0 577 0 553.5 4.5 c 128,-1,50
 530 9 530 9 516 21.5 c 128,-1,51
 502 34 502 34 496.5 56.5 c 128,-1,52
 491 79 491 79 491 115 c 2,53,-1
 491 331 l 2,54,55
 491 364 491 364 497 385.5 c 128,-1,56
 503 407 503 407 516.5 420 c 128,-1,57
 530 433 530 433 552 438 c 128,-1,58
 574 443 574 443 606 443 c 2,59,-1
 640 443 l 2,36,37
262 377 m 1,60,-1
 262 692 l 1,61,-1
 132 692 l 1,62,-1
 132 377 l 1,63,-1
 262 377 l 1,60,-1
332 439 m 2,64,65
 332 403 332 403 329 378.5 c 128,-1,66
 326 354 326 354 314.5 339.5 c 128,-1,67
 303 325 303 325 280.5 319 c 128,-1,68
 258 313 258 313 220 313 c 2,69,-1
 180 313 l 2,70,71
 145 313 145 313 121.5 317.5 c 128,-1,72
 98 322 98 322 84.5 334 c 128,-1,73
 71 346 71 346 65.5 368.5 c 128,-1,74
 60 391 60 391 60 427 c 2,75,-1
 60 642 l 2,76,77
 60 677 60 677 65.5 699.5 c 128,-1,78
 71 722 71 722 84.5 735 c 128,-1,79
 98 748 98 748 120 753 c 128,-1,80
 142 758 142 758 174 758 c 2,81,-1
 210 758 l 2,82,83
 250 758 250 758 274 752 c 128,-1,84
 298 746 298 746 311 731.5 c 128,-1,85
 324 717 324 717 328 692 c 128,-1,86
 332 667 332 667 332 630 c 2,87,-1
 332 439 l 2,64,65
EndSplineSet
EndChar

StartChar: currency
Encoding: 164 164 115
Width: 484
Flags: W
LayerCount: 2
Fore
SplineSet
98 305 m 0,0,1
 98 273 98 273 109.5 245.5 c 128,-1,2
 121 218 121 218 141 197 c 128,-1,3
 161 176 161 176 187.5 164 c 128,-1,4
 214 152 214 152 245 152 c 0,5,6
 277 152 277 152 304 164.5 c 128,-1,7
 331 177 331 177 351 198 c 128,-1,8
 371 219 371 219 382 246.5 c 128,-1,9
 393 274 393 274 393 305 c 256,10,11
 393 336 393 336 381.5 363.5 c 128,-1,12
 370 391 370 391 350.5 412 c 128,-1,13
 331 433 331 433 303.5 445 c 128,-1,14
 276 457 276 457 245 457 c 256,15,16
 214 457 214 457 187.5 445 c 128,-1,17
 161 433 161 433 141 412.5 c 128,-1,18
 121 392 121 392 109.5 364 c 128,-1,19
 98 336 98 336 98 305 c 0,0,1
76 174 m 1,20,21
 52 202 52 202 40.5 235.5 c 128,-1,22
 29 269 29 269 30 305 c 0,23,24
 30 340 30 340 40.5 375 c 128,-1,25
 51 410 51 410 76 437 c 1,26,27
 65 447 65 447 51.5 461 c 128,-1,28
 38 475 38 475 27 486 c 1,29,-1
 64 523 l 1,30,-1
 112 474 l 1,31,32
 139 495 139 495 174.5 508 c 128,-1,33
 210 521 210 521 245 521 c 0,34,35
 283 521 283 521 317 508 c 128,-1,36
 351 495 351 495 379 474 c 1,37,-1
 427 523 l 1,38,-1
 464 487 l 1,39,-1
 414 437 l 1,40,41
 437 411 437 411 448.5 377 c 128,-1,42
 460 343 460 343 460 305 c 0,43,44
 460 270 460 270 448.5 235 c 128,-1,45
 437 200 437 200 414 174 c 1,46,-1
 464 124 l 1,47,-1
 427 88 l 1,48,-1
 379 138 l 1,49,50
 353 115 353 115 318 102.5 c 128,-1,51
 283 90 283 90 244 90 c 0,52,53
 208 90 208 90 173 102 c 128,-1,54
 138 114 138 114 112 137 c 1,55,-1
 64 88 l 1,56,-1
 27 125 l 1,57,-1
 76 174 l 1,20,21
EndSplineSet
EndChar

StartChar: section
Encoding: 167 167 116
Width: 562
Flags: W
LayerCount: 2
Fore
SplineSet
423 500 m 1,0,-1
 141 500 l 1,1,-1
 141 252 l 1,2,-1
 423 252 l 1,3,-1
 423 500 l 1,0,-1
502 333 m 2,4,5
 502 307 502 307 500.5 285.5 c 128,-1,6
 499 264 499 264 492 248.5 c 128,-1,7
 485 233 485 233 471 224.5 c 128,-1,8
 457 216 457 216 433 215 c 1,9,10
 454 214 454 214 465 204.5 c 128,-1,11
 476 195 476 195 481.5 180 c 128,-1,12
 487 165 487 165 488 146 c 128,-1,13
 489 127 489 127 489 108 c 2,14,-1
 489 46 l 2,15,16
 489 2 489 2 481 -21.5 c 128,-1,17
 473 -45 473 -45 455.5 -55.5 c 128,-1,18
 438 -66 438 -66 412 -68 c 128,-1,19
 386 -70 386 -70 350 -70 c 2,20,-1
 211 -70 l 2,21,22
 164 -70 164 -70 137.5 -65 c 128,-1,23
 111 -60 111 -60 97 -47 c 128,-1,24
 83 -34 83 -34 79.5 -12 c 128,-1,25
 76 10 76 10 76 43 c 2,26,-1
 76 109 l 1,27,-1
 149 109 l 1,28,-1
 149 0 l 1,29,-1
 410 0 l 1,30,-1
 410 178 l 1,31,-1
 194 178 l 2,32,33
 152 178 152 178 126 182 c 128,-1,34
 100 186 100 186 85.5 198.5 c 128,-1,35
 71 211 71 211 65.5 235.5 c 128,-1,36
 60 260 60 260 60 302 c 2,37,-1
 60 422 l 2,38,39
 60 448 60 448 61.5 469.5 c 128,-1,40
 63 491 63 491 69.5 506.5 c 128,-1,41
 76 522 76 522 90 530.5 c 128,-1,42
 104 539 104 539 129 540 c 1,43,44
 110 540 110 540 99 546.5 c 128,-1,45
 88 553 88 553 82 563 c 128,-1,46
 76 573 76 573 74.5 586.5 c 128,-1,47
 73 600 73 600 73 615 c 2,48,-1
 73 704 l 2,49,50
 73 747 73 747 81 771 c 128,-1,51
 89 795 89 795 106.5 805.5 c 128,-1,52
 124 816 124 816 150 818 c 128,-1,53
 176 820 176 820 212 820 c 2,54,-1
 351 820 l 2,55,56
 397 820 397 820 424 815 c 128,-1,57
 451 810 451 810 465 797 c 128,-1,58
 479 784 479 784 482.5 762 c 128,-1,59
 486 740 486 740 486 707 c 2,60,-1
 486 641 l 1,61,-1
 413 641 l 1,62,-1
 413 750 l 1,63,-1
 152 750 l 1,64,-1
 152 574 l 1,65,-1
 368 574 l 2,66,67
 410 574 410 574 436 570 c 128,-1,68
 462 566 462 566 476.5 553.5 c 128,-1,69
 491 541 491 541 496.5 516.5 c 128,-1,70
 502 492 502 492 502 450 c 2,71,-1
 502 333 l 2,4,5
EndSplineSet
EndChar

StartChar: copyright
Encoding: 169 169 117
Width: 886
Flags: W
LayerCount: 2
Fore
SplineSet
582 134 m 1,0,-1
 346 134 l 2,1,2
 321 134 321 134 305 140.5 c 128,-1,3
 289 147 289 147 280 158.5 c 128,-1,4
 271 170 271 170 267.5 185 c 128,-1,5
 264 200 264 200 264 217 c 2,6,-1
 264 523 l 2,7,8
 264 563 264 563 286.5 585 c 128,-1,9
 309 607 309 607 354 607 c 2,10,-1
 582 607 l 1,11,-1
 582 487 l 1,12,-1
 517 487 l 1,13,-1
 517 542 l 1,14,-1
 340 542 l 1,15,-1
 340 198 l 1,16,-1
 517 198 l 1,17,-1
 517 253 l 1,18,-1
 582 253 l 1,19,-1
 582 134 l 1,0,-1
758 372 m 0,20,21
 758 437 758 437 733 495 c 128,-1,22
 708 553 708 553 665 596.5 c 128,-1,23
 622 640 622 640 564.5 665.5 c 128,-1,24
 507 691 507 691 441 691 c 256,25,26
 375 691 375 691 316.5 666 c 128,-1,27
 258 641 258 641 214.5 597.5 c 128,-1,28
 171 554 171 554 146 496.5 c 128,-1,29
 121 439 121 439 121 373 c 256,30,31
 121 307 121 307 146 249.5 c 128,-1,32
 171 192 171 192 214.5 148.5 c 128,-1,33
 258 105 258 105 316.5 80 c 128,-1,34
 375 55 375 55 441 55 c 256,35,36
 507 55 507 55 564.5 80 c 128,-1,37
 622 105 622 105 665 148 c 128,-1,38
 708 191 708 191 733 248.5 c 128,-1,39
 758 306 758 306 758 372 c 0,20,21
826 373 m 0,40,41
 826 293 826 293 795.5 223 c 128,-1,42
 765 153 765 153 713 101 c 128,-1,43
 661 49 661 49 590.5 19 c 128,-1,44
 520 -11 520 -11 441 -11 c 0,45,46
 361 -11 361 -11 291 19 c 128,-1,47
 221 49 221 49 168.5 101 c 128,-1,48
 116 153 116 153 85.5 223 c 128,-1,49
 55 293 55 293 55 373 c 0,50,51
 55 452 55 452 85.5 522.5 c 128,-1,52
 116 593 116 593 168.5 645.5 c 128,-1,53
 221 698 221 698 291.5 728.5 c 128,-1,54
 362 759 362 759 442 759 c 0,55,56
 521 759 521 759 591 728.5 c 128,-1,57
 661 698 661 698 713 645.5 c 128,-1,58
 765 593 765 593 795.5 522.5 c 128,-1,59
 826 452 826 452 826 373 c 0,40,41
EndSplineSet
EndChar

StartChar: registered
Encoding: 174 174 118
Width: 899
Flags: W
LayerCount: 2
Fore
SplineSet
385 342 m 1,0,-1
 554 450 l 1,1,-1
 554 535 l 1,2,-1
 385 535 l 1,3,-1
 385 342 l 1,0,-1
258 535 m 1,4,-1
 258 599 l 1,5,-1
 536 599 l 2,6,7
 570 599 570 599 595.5 583 c 128,-1,8
 621 567 621 567 621 529 c 2,9,-1
 621 476 l 2,10,11
 621 438 621 438 602 419.5 c 128,-1,12
 583 401 583 401 560 387 c 2,13,-1
 517 360 l 1,14,-1
 557 209 l 1,15,-1
 627 209 l 1,16,-1
 627 149 l 1,17,-1
 577 149 l 2,18,19
 538 149 538 149 517 168.5 c 128,-1,20
 496 188 496 188 485 229 c 2,21,-1
 460 322 l 1,22,-1
 385 276 l 1,23,-1
 385 209 l 1,24,-1
 435 209 l 1,25,-1
 435 149 l 1,26,-1
 258 149 l 1,27,-1
 258 209 l 1,28,-1
 314 209 l 1,29,-1
 314 535 l 1,30,-1
 258 535 l 1,4,-1
758 372 m 0,31,32
 758 437 758 437 733 495 c 128,-1,33
 708 553 708 553 665 596.5 c 128,-1,34
 622 640 622 640 564.5 665.5 c 128,-1,35
 507 691 507 691 441 691 c 256,36,37
 375 691 375 691 316.5 666 c 128,-1,38
 258 641 258 641 214.5 597.5 c 128,-1,39
 171 554 171 554 146 496.5 c 128,-1,40
 121 439 121 439 121 373 c 256,41,42
 121 307 121 307 146 249.5 c 128,-1,43
 171 192 171 192 214.5 148.5 c 128,-1,44
 258 105 258 105 316.5 80 c 128,-1,45
 375 55 375 55 441 55 c 256,46,47
 507 55 507 55 564.5 80 c 128,-1,48
 622 105 622 105 665 148 c 128,-1,49
 708 191 708 191 733 248.5 c 128,-1,50
 758 306 758 306 758 372 c 0,31,32
826 373 m 0,51,52
 826 293 826 293 795.5 223 c 128,-1,53
 765 153 765 153 713 101 c 128,-1,54
 661 49 661 49 590.5 19 c 128,-1,55
 520 -11 520 -11 441 -11 c 0,56,57
 361 -11 361 -11 291 19 c 128,-1,58
 221 49 221 49 168.5 101 c 128,-1,59
 116 153 116 153 85.5 223 c 128,-1,60
 55 293 55 293 55 373 c 0,61,62
 55 452 55 452 85.5 522.5 c 128,-1,63
 116 593 116 593 168.5 645.5 c 128,-1,64
 221 698 221 698 291.5 728.5 c 128,-1,65
 362 759 362 759 442 759 c 0,66,67
 521 759 521 759 591 728.5 c 128,-1,68
 661 698 661 698 713 645.5 c 128,-1,69
 765 593 765 593 795.5 522.5 c 128,-1,70
 826 452 826 452 826 373 c 0,51,52
EndSplineSet
EndChar

StartChar: degree
Encoding: 176 176 119
Width: 376
Flags: W
LayerCount: 2
Fore
SplineSet
90 649 m 0,0,1
 90 629 90 629 98 610.5 c 128,-1,2
 106 592 106 592 119.5 578 c 128,-1,3
 133 564 133 564 151.5 556 c 128,-1,4
 170 548 170 548 191 548 c 256,5,6
 212 548 212 548 230 556 c 128,-1,7
 248 564 248 564 261.5 577.5 c 128,-1,8
 275 591 275 591 283 609.5 c 128,-1,9
 291 628 291 628 291 648 c 0,10,11
 291 669 291 669 283 687.5 c 128,-1,12
 275 706 275 706 261.5 719.5 c 128,-1,13
 248 733 248 733 230 741 c 128,-1,14
 212 749 212 749 192 749 c 0,15,16
 171 749 171 749 152 741 c 128,-1,17
 133 733 133 733 119.5 719.5 c 128,-1,18
 106 706 106 706 98 688 c 128,-1,19
 90 670 90 670 90 649 c 0,0,1
37 648 m 256,20,21
 37 680 37 680 49 708 c 128,-1,22
 61 736 61 736 82 756.5 c 128,-1,23
 103 777 103 777 131 789 c 128,-1,24
 159 801 159 801 192 801 c 0,25,26
 223 801 223 801 250.5 789 c 128,-1,27
 278 777 278 777 299 756 c 128,-1,28
 320 735 320 735 332 707 c 128,-1,29
 344 679 344 679 344 647 c 256,30,31
 344 615 344 615 332 587 c 128,-1,32
 320 559 320 559 299 538.5 c 128,-1,33
 278 518 278 518 250 506 c 128,-1,34
 222 494 222 494 191 494 c 0,35,36
 159 494 159 494 131 506 c 128,-1,37
 103 518 103 518 82 539 c 128,-1,38
 61 560 61 560 49 588 c 128,-1,39
 37 616 37 616 37 648 c 256,20,21
EndSplineSet
EndChar

StartChar: paragraph
Encoding: 182 182 120
Width: 542
Flags: W
LayerCount: 2
Fore
SplineSet
222 434 m 1,0,1
 177 434 177 434 141 445.5 c 128,-1,2
 105 457 105 457 79.5 477.5 c 128,-1,3
 54 498 54 498 40 527 c 128,-1,4
 26 556 26 556 26 591 c 0,5,6
 26 635 26 635 41 665.5 c 128,-1,7
 56 696 56 696 83.5 715 c 128,-1,8
 111 734 111 734 149 742.5 c 128,-1,9
 187 751 187 751 233 751 c 2,10,-1
 474 751 l 1,11,-1
 474 -101 l 1,12,-1
 406 -101 l 1,13,-1
 406 700 l 1,14,-1
 290 700 l 1,15,-1
 290 -101 l 1,16,-1
 221 -101 l 1,17,-1
 222 434 l 1,0,1
EndSplineSet
EndChar

StartChar: periodcentered
Encoding: 183 183 121
Width: 221
Flags: W
LayerCount: 2
Fore
SplineSet
161 264 m 0,0,1
 161 242 161 242 146.5 227.5 c 128,-1,2
 132 213 132 213 110 213 c 0,3,4
 90 213 90 213 75 227.5 c 128,-1,5
 60 242 60 242 60 264 c 0,6,7
 60 284 60 284 75.5 300 c 128,-1,8
 91 316 91 316 111 316 c 0,9,10
 132 316 132 316 146.5 300 c 128,-1,11
 161 284 161 284 161 264 c 0,0,1
EndSplineSet
EndChar

StartChar: trademark
Encoding: 8482 8482 122
Width: 758
Flags: W
LayerCount: 2
Fore
SplineSet
738 420 m 1,0,-1
 592 420 l 1,1,-1
 592 474 l 1,2,-1
 636 474 l 1,3,-1
 636 676 l 1,4,-1
 549 500 l 1,5,-1
 509 500 l 1,6,-1
 423 674 l 1,7,-1
 423 474 l 1,8,-1
 468 474 l 1,9,-1
 468 420 l 1,10,-1
 322 420 l 1,11,-1
 322 474 l 1,12,-1
 365 474 l 1,13,-1
 365 696 l 1,14,-1
 322 696 l 1,15,-1
 322 750 l 1,16,-1
 447 750 l 1,17,-1
 530 586 l 1,18,-1
 613 750 l 1,19,-1
 738 750 l 1,20,-1
 738 696 l 1,21,-1
 696 696 l 1,22,-1
 696 474 l 1,23,-1
 738 474 l 1,24,-1
 738 420 l 1,0,-1
72 474 m 1,25,-1
 123 474 l 1,26,-1
 123 694 l 1,27,-1
 76 694 l 1,28,-1
 76 633 l 1,29,-1
 20 633 l 1,30,-1
 20 750 l 1,31,-1
 288 750 l 1,32,-1
 288 633 l 1,33,-1
 234 633 l 1,34,-1
 234 694 l 1,35,-1
 185 694 l 1,36,-1
 185 474 l 1,37,-1
 236 474 l 1,38,-1
 236 420 l 1,39,-1
 72 420 l 1,40,-1
 72 474 l 1,25,-1
EndSplineSet
EndChar

StartChar: AE
Encoding: 198 198 123
Width: 856
Flags: W
LayerCount: 2
Fore
SplineSet
302 420 m 1,0,-1
 450 420 l 1,1,-1
 450 682 l 1,2,-1
 395 682 l 1,3,-1
 302 420 l 1,0,-1
711 68 m 1,4,-1
 711 185 l 1,5,-1
 779 185 l 1,6,-1
 779 0 l 1,7,-1
 387 0 l 1,8,-1
 387 70 l 1,9,-1
 450 70 l 1,10,-1
 450 353 l 1,11,-1
 278 353 l 1,12,-1
 178 68 l 1,13,-1
 238 68 l 1,14,-1
 238 0 l 1,15,-1
 44 0 l 1,16,-1
 44 68 l 1,17,-1
 102 68 l 1,18,-1
 320 682 l 1,19,-1
 241 682 l 1,20,-1
 241 750 l 1,21,-1
 779 750 l 1,22,-1
 779 565 l 1,23,-1
 711 565 l 1,24,-1
 711 682 l 1,25,-1
 532 682 l 1,26,-1
 532 420 l 1,27,-1
 700 420 l 1,28,-1
 700 353 l 1,29,-1
 532 353 l 1,30,-1
 532 69 l 1,31,-1
 711 68 l 1,4,-1
EndSplineSet
EndChar

StartChar: ae
Encoding: 230 230 124
Width: 710
Flags: W
LayerCount: 2
Fore
SplineSet
318 259 m 1,0,-1
 130 148 l 1,1,-1
 130 68 l 1,2,-1
 318 68 l 1,3,-1
 318 259 l 1,0,-1
396 236 m 1,4,-1
 580 349 l 1,5,-1
 580 432 l 1,6,-1
 396 432 l 1,7,-1
 396 236 l 1,4,-1
142 374 m 1,8,-1
 78 374 l 1,9,-1
 78 500 l 1,10,-1
 567 500 l 2,11,12
 616 500 616 500 638 481.5 c 128,-1,13
 660 463 660 463 660 412 c 2,14,-1
 660 319 l 1,15,-1
 396 155 l 1,16,-1
 396 68 l 1,17,-1
 581 68 l 1,18,-1
 581 126 l 1,19,-1
 660 126 l 1,20,-1
 660 73 l 2,21,22
 660 43 660 43 641.5 21.5 c 128,-1,23
 623 0 623 0 580 0 c 2,24,-1
 135 0 l 2,25,26
 109 0 109 0 92.5 4.5 c 128,-1,27
 76 9 76 9 66.5 19.5 c 128,-1,28
 57 30 57 30 53.5 47 c 128,-1,29
 50 64 50 64 50 88 c 2,30,-1
 50 123 l 2,31,32
 50 141 50 141 52 153.5 c 128,-1,33
 54 166 54 166 61 176.5 c 128,-1,34
 68 187 68 187 81.5 197 c 128,-1,35
 95 207 95 207 118 221 c 2,36,-1
 318 339 l 1,37,-1
 318 432 l 1,38,-1
 142 432 l 1,39,-1
 142 374 l 1,8,-1
EndSplineSet
EndChar

StartChar: OE
Encoding: 338 338 125
Width: 819
Flags: W
LayerCount: 2
Fore
SplineSet
140 68 m 1,0,-1
 376 68 l 1,1,-1
 376 285 l 1,2,-1
 313 245 l 1,3,-1
 313 326 l 1,4,-1
 376 366 l 1,5,-1
 376 682 l 1,6,-1
 140 682 l 1,7,-1
 140 68 l 1,0,-1
759 750 m 1,8,-1
 759 565 l 1,9,-1
 691 565 l 1,10,-1
 691 682 l 1,11,-1
 458 682 l 1,12,-1
 458 416 l 1,13,-1
 630 525 l 1,14,-1
 630 444 l 1,15,-1
 458 337 l 1,16,-1
 458 68 l 1,17,-1
 691 68 l 1,18,-1
 691 185 l 1,19,-1
 759 185 l 1,20,-1
 759 0 l 1,21,-1
 179 0 l 2,22,23
 144 0 144 0 121.5 8.5 c 128,-1,24
 99 17 99 17 85 33 c 128,-1,25
 71 49 71 49 65.5 71.5 c 128,-1,26
 60 94 60 94 60 121 c 2,27,-1
 60 617 l 2,28,29
 60 648 60 648 64.5 672.5 c 128,-1,30
 69 697 69 697 81.5 714.5 c 128,-1,31
 94 732 94 732 115.5 741 c 128,-1,32
 137 750 137 750 171 750 c 2,33,-1
 759 750 l 1,8,-1
EndSplineSet
EndChar

StartChar: oe
Encoding: 339 339 126
Width: 744
Flags: W
LayerCount: 2
Fore
SplineSet
411 220 m 1,0,-1
 604 349 l 1,1,-1
 604 432 l 1,2,-1
 410 432 l 1,3,-1
 411 220 l 1,0,-1
141 68 m 1,4,-1
 330 68 l 1,5,-1
 330 432 l 1,6,-1
 141 432 l 1,7,-1
 141 68 l 1,4,-1
153 0 m 2,8,9
 102 0 102 0 81 23.5 c 128,-1,10
 60 47 60 47 60 89 c 2,11,-1
 60 411 l 2,12,13
 60 451 60 451 78.5 475.5 c 128,-1,14
 97 500 97 500 153 500 c 2,15,-1
 591 500 l 2,16,17
 640 500 640 500 662 481.5 c 128,-1,18
 684 463 684 463 684 412 c 2,19,-1
 684 319 l 1,20,-1
 410 139 l 1,21,-1
 410 68 l 1,22,-1
 605 68 l 1,23,-1
 605 126 l 1,24,-1
 684 126 l 1,25,-1
 684 73 l 2,26,27
 684 43 684 43 665.5 21.5 c 128,-1,28
 647 0 647 0 604 0 c 2,29,-1
 153 0 l 2,8,9
EndSplineSet
EndChar

StartChar: florin
Encoding: 402 402 127
Width: 354
Flags: W
LayerCount: 2
Fore
SplineSet
209 -114 m 2,0,1
 209 -156 209 -156 190 -178 c 128,-1,2
 171 -200 171 -200 120 -200 c 2,3,-1
 26 -200 l 1,4,-1
 26 -131 l 1,5,-1
 130 -131 l 1,6,-1
 130 428 l 1,7,-1
 25 428 l 1,8,-1
 25 500 l 1,9,-1
 130 500 l 1,10,-1
 130 646 l 2,11,12
 130 703 130 703 152 726.5 c 128,-1,13
 174 750 174 750 219 750 c 2,14,-1
 329 750 l 1,15,-1
 329 682 l 1,16,-1
 208 682 l 1,17,-1
 208 500 l 1,18,-1
 329 500 l 1,19,-1
 329 428 l 1,20,-1
 208 428 l 1,21,-1
 209 -114 l 2,0,1
EndSplineSet
EndChar

StartChar: yen
Encoding: 165 165 128
Width: 556
Flags: W
LayerCount: 2
Fore
SplineSet
318 217 m 1,0,-1
 318 68 l 1,1,-1
 383 68 l 1,2,-1
 383 0 l 1,3,-1
 173 0 l 1,4,-1
 173 68 l 1,5,-1
 236 68 l 1,6,-1
 236 217 l 1,7,-1
 76 217 l 1,8,-1
 76 281 l 1,9,-1
 237 281 l 1,10,-1
 237 370 l 1,11,-1
 76 370 l 1,12,-1
 76 435 l 1,13,-1
 201 435 l 1,14,-1
 70 682 l 1,15,-1
 25 682 l 1,16,-1
 25 750 l 1,17,-1
 187 750 l 1,18,-1
 187 682 l 1,19,-1
 151 682 l 1,20,-1
 278 438 l 1,21,-1
 408 682 l 1,22,-1
 372 682 l 1,23,-1
 372 750 l 1,24,-1
 531 750 l 1,25,-1
 531 682 l 1,26,-1
 493 682 l 1,27,-1
 355 435 l 1,28,-1
 480 435 l 1,29,-1
 480 369 l 1,30,-1
 318 369 l 1,31,-1
 318 281 l 1,32,-1
 480 281 l 1,33,-1
 480 217 l 1,34,-1
 318 217 l 1,0,-1
EndSplineSet
EndChar

StartChar: germandbls
Encoding: 223 223 129
Width: 549
Flags: W
LayerCount: 2
Fore
SplineSet
208 0 m 1,0,-1
 50 0 l 1,1,-1
 50 68 l 1,2,-1
 130 68 l 1,3,-1
 130 646 l 2,4,5
 130 703 130 703 152 726.5 c 128,-1,6
 174 750 174 750 219 750 c 2,7,-1
 356 750 l 2,8,9
 387 750 387 750 408.5 740.5 c 128,-1,10
 430 731 430 731 443.5 715 c 128,-1,11
 457 699 457 699 463 677.5 c 128,-1,12
 469 656 469 656 469 631 c 2,13,-1
 469 502 l 2,14,15
 469 464 469 464 451.5 437.5 c 128,-1,16
 434 411 434 411 411 409 c 1,17,18
 423 407 423 407 436.5 400 c 128,-1,19
 450 393 450 393 462 379.5 c 128,-1,20
 474 366 474 366 481.5 347 c 128,-1,21
 489 328 489 328 489 304 c 2,22,-1
 489 134 l 2,23,24
 489 68 489 68 456 34 c 128,-1,25
 423 0 423 0 348 0 c 2,26,-1
 276 0 l 1,27,-1
 276 68 l 1,28,-1
 407 68 l 1,29,-1
 407 368 l 1,30,-1
 276 368 l 1,31,-1
 276 443 l 1,32,-1
 392 443 l 1,33,-1
 392 682 l 1,34,-1
 208 682 l 1,35,-1
 208 0 l 1,0,-1
EndSplineSet
EndChar

StartChar: cent
Encoding: 162 162 130
Width: 452
Flags: W
LayerCount: 2
Fore
SplineSet
130 68 m 1,0,-1
 210 68 l 1,1,-1
 210 432 l 1,2,-1
 130 432 l 1,3,-1
 130 68 l 1,0,-1
210 -117 m 1,4,-1
 210 0 l 1,5,-1
 137 0 l 2,6,7
 110 0 110 0 93.5 7 c 128,-1,8
 77 14 77 14 67 26 c 128,-1,9
 57 38 57 38 53.5 54 c 128,-1,10
 50 70 50 70 50 88 c 2,11,-1
 50 412 l 2,12,13
 50 454 50 454 73.5 477.5 c 128,-1,14
 97 501 97 501 145 501 c 2,15,-1
 210 501 l 1,16,-1
 210 586 l 1,17,-1
 269 586 l 1,18,-1
 269 501 l 1,19,-1
 403 501 l 1,20,-1
 403 374 l 1,21,-1
 335 374 l 1,22,-1
 335 432 l 1,23,-1
 269 432 l 1,24,-1
 269 68 l 1,25,-1
 335 68 l 1,26,-1
 335 126 l 1,27,-1
 403 126 l 1,28,-1
 403 0 l 1,29,-1
 269 0 l 1,30,-1
 269 -117 l 1,31,-1
 210 -117 l 1,4,-1
EndSplineSet
EndChar

StartChar: sterling
Encoding: 163 163 131
Width: 531
Flags: W
LayerCount: 2
Fore
SplineSet
198 428 m 1,0,-1
 198 68 l 1,1,-1
 411 68 l 1,2,-1
 411 185 l 1,3,-1
 479 185 l 1,4,-1
 479 0 l 1,5,-1
 33 0 l 1,6,-1
 33 68 l 1,7,-1
 120 68 l 1,8,-1
 120 428 l 1,9,-1
 33 428 l 1,10,-1
 33 500 l 1,11,-1
 120 500 l 1,12,-1
 120 646 l 2,13,14
 120 703 120 703 142 726.5 c 128,-1,15
 164 750 164 750 209 750 c 2,16,-1
 331 750 l 1,17,-1
 331 682 l 1,18,-1
 198 682 l 1,19,-1
 198 500 l 1,20,-1
 318 500 l 1,21,-1
 318 428 l 1,22,-1
 198 428 l 1,0,-1
EndSplineSet
EndChar

StartChar: circumflex
Encoding: 710 710 132
Width: 292
Flags: W
LayerCount: 2
Fore
SplineSet
289 559 m 1,0,-1
 216 559 l 1,1,-1
 147 639 l 1,2,-1
 77 559 l 1,3,-1
 3 559 l 1,4,-1
 115 682 l 1,5,-1
 182 682 l 1,6,-1
 289 559 l 1,0,-1
EndSplineSet
EndChar

StartChar: caron
Encoding: 711 711 133
Width: 292
Flags: W
LayerCount: 2
Fore
SplineSet
182 559 m 1,0,-1
 115 559 l 1,1,-1
 3 682 l 1,2,-1
 77 682 l 1,3,-1
 147 602 l 1,4,-1
 216 682 l 1,5,-1
 289 682 l 1,6,-1
 182 559 l 1,0,-1
EndSplineSet
EndChar

StartChar: tilde
Encoding: 732 732 134
Width: 335
Flags: W
LayerCount: 2
Fore
SplineSet
333 638 m 1,0,1
 330 629 330 629 320.5 615.5 c 128,-1,2
 311 602 311 602 297.5 590 c 128,-1,3
 284 578 284 578 267.5 569.5 c 128,-1,4
 251 561 251 561 233 561 c 256,5,6
 215 561 215 561 197.5 569.5 c 128,-1,7
 180 578 180 578 163 588 c 128,-1,8
 146 598 146 598 129.5 606.5 c 128,-1,9
 113 615 113 615 97 615 c 0,10,11
 80 615 80 615 69 605 c 128,-1,12
 58 595 58 595 44 566 c 1,13,-1
 3 596 l 1,14,15
 6 605 6 605 15 618 c 128,-1,16
 24 631 24 631 36.5 643 c 128,-1,17
 49 655 49 655 64.5 663.5 c 128,-1,18
 80 672 80 672 96 672 c 0,19,20
 115 672 115 672 135.5 663.5 c 128,-1,21
 156 655 156 655 174.5 644.5 c 128,-1,22
 193 634 193 634 208 625.5 c 128,-1,23
 223 617 223 617 233 617 c 0,24,25
 252 617 252 617 269.5 632 c 128,-1,26
 287 647 287 647 295 666 c 1,27,-1
 333 638 l 1,0,1
EndSplineSet
EndChar

StartChar: cedilla
Encoding: 184 184 135
Width: 170
Flags: W
LayerCount: 2
Fore
SplineSet
0 2 m 1,0,-1
 59 2 l 1,1,-1
 59 -42 l 1,2,-1
 96 -42 l 2,3,4
 134 -42 134 -42 152 -61 c 128,-1,5
 170 -80 170 -80 170 -112 c 2,6,-1
 170 -149 l 2,7,8
 170 -177 170 -177 157 -197 c 128,-1,9
 144 -217 144 -217 102 -217 c 2,10,-1
 0 -217 l 1,11,-1
 0 -164 l 1,12,-1
 108 -164 l 1,13,-1
 108 -97 l 1,14,-1
 0 -97 l 1,15,-1
 0 2 l 1,0,-1
EndSplineSet
EndChar

StartChar: ogonek
Encoding: 731 731 136
Width: 170
Flags: W
LayerCount: 2
Fore
SplineSet
170 0 m 1,0,-1
 62 -89 l 1,1,-1
 62 -164 l 1,2,-1
 150 -164 l 1,3,-1
 150 -217 l 1,4,-1
 68 -217 l 2,5,6
 26 -217 26 -217 13 -197 c 128,-1,7
 0 -177 0 -177 0 -149 c 2,8,-1
 0 -118 l 2,9,10
 0 -102 0 -102 3 -91 c 128,-1,11
 6 -80 6 -80 12 -71 c 128,-1,12
 18 -62 18 -62 28.5 -53.5 c 128,-1,13
 39 -45 39 -45 54 -34 c 2,14,-1
 98 0 l 1,15,-1
 170 0 l 1,0,-1
EndSplineSet
EndChar

StartChar: ring
Encoding: 730 730 137
Width: 178
Flags: W
LayerCount: 2
Fore
SplineSet
49 624 m 256,0,1
 49 607 49 607 60.5 595 c 128,-1,2
 72 583 72 583 89 583 c 256,3,4
 106 583 106 583 118 595 c 128,-1,5
 130 607 130 607 130 623 c 0,6,7
 130 640 130 640 118 652 c 128,-1,8
 106 664 106 664 90 664 c 0,9,10
 73 664 73 664 61 652.5 c 128,-1,11
 49 641 49 641 49 624 c 256,0,1
0 623 m 0,12,13
 0 660 0 660 26 686 c 128,-1,14
 52 712 52 712 90 712 c 0,15,16
 108 712 108 712 124 705 c 128,-1,17
 140 698 140 698 152 686 c 128,-1,18
 164 674 164 674 171 657.5 c 128,-1,19
 178 641 178 641 178 623 c 0,20,21
 178 586 178 586 152 560 c 128,-1,22
 126 534 126 534 89 534 c 0,23,24
 71 534 71 534 54.5 541 c 128,-1,25
 38 548 38 548 26 560.5 c 128,-1,26
 14 573 14 573 7 589 c 128,-1,27
 0 605 0 605 0 623 c 0,12,13
EndSplineSet
EndChar

StartChar: grave
Encoding: 96 96 138
Width: 182
Flags: W
LayerCount: 2
Fore
SplineSet
179 559 m 1,0,-1
 106 559 l 1,1,-1
 1 682 l 1,2,-1
 72 682 l 1,3,-1
 179 559 l 1,0,-1
EndSplineSet
EndChar

StartChar: acute
Encoding: 180 180 139
Width: 182
Flags: W
LayerCount: 2
Fore
SplineSet
108 682 m 1,0,-1
 179 682 l 1,1,-1
 74 559 l 1,2,-1
 1 559 l 1,3,-1
 108 682 l 1,0,-1
EndSplineSet
EndChar

StartChar: breve
Encoding: 728 728 140
Width: 335
Flags: W
LayerCount: 2
Fore
SplineSet
328 697 m 1,0,1
 328 665 328 665 316 637 c 128,-1,2
 304 609 304 609 283 588.5 c 128,-1,3
 262 568 262 568 234 556 c 128,-1,4
 206 544 206 544 175 544 c 0,5,6
 143 544 143 544 115 556 c 128,-1,7
 87 568 87 568 66 589 c 128,-1,8
 45 610 45 610 33 638 c 128,-1,9
 21 666 21 666 21 697 c 1,10,-1
 74 697 l 1,11,12
 74 677 74 677 82 659 c 128,-1,13
 90 641 90 641 103.5 627.5 c 128,-1,14
 117 614 117 614 135.5 606 c 128,-1,15
 154 598 154 598 175 598 c 256,16,17
 196 598 196 598 214 606 c 128,-1,18
 232 614 232 614 245.5 627.5 c 128,-1,19
 259 641 259 641 267 659 c 128,-1,20
 275 677 275 677 275 697 c 1,21,-1
 328 697 l 1,0,1
EndSplineSet
EndChar

StartChar: hungarumlaut
Encoding: 733 733 141
Width: 330
Flags: W
LayerCount: 2
Fore
SplineSet
257 682 m 1,0,-1
 328 682 l 1,1,-1
 223 559 l 1,2,-1
 150 559 l 1,3,-1
 257 682 l 1,0,-1
108 682 m 1,4,-1
 179 682 l 1,5,-1
 74 559 l 1,6,-1
 1 559 l 1,7,-1
 108 682 l 1,4,-1
EndSplineSet
EndChar

StartChar: dieresis
Encoding: 168 168 142
Width: 235
Flags: W
LayerCount: 2
Fore
SplineSet
235 602 m 0,0,1
 235 583 235 583 222.5 570.5 c 128,-1,2
 210 558 210 558 191 558 c 0,3,4
 174 558 174 558 161.5 570.5 c 128,-1,5
 149 583 149 583 149 602 c 0,6,7
 149 619 149 619 162 632.5 c 128,-1,8
 175 646 175 646 192 646 c 0,9,10
 210 646 210 646 222.5 632.5 c 128,-1,11
 235 619 235 619 235 602 c 0,0,1
87 602 m 0,12,13
 87 583 87 583 74.5 570.5 c 128,-1,14
 62 558 62 558 43 558 c 0,15,16
 26 558 26 558 13.5 570.5 c 128,-1,17
 1 583 1 583 1 602 c 0,18,19
 1 619 1 619 14 632.5 c 128,-1,20
 27 646 27 646 44 646 c 0,21,22
 62 646 62 646 74.5 632.5 c 128,-1,23
 87 619 87 619 87 602 c 0,12,13
EndSplineSet
EndChar

StartChar: dotaccent
Encoding: 729 729 143
Width: 85
Flags: W
LayerCount: 2
Fore
SplineSet
86 624 m 0,0,1
 86 605 86 605 73.5 592.5 c 128,-1,2
 61 580 61 580 42 580 c 0,3,4
 25 580 25 580 12.5 592.5 c 128,-1,5
 0 605 0 605 0 624 c 0,6,7
 0 641 0 641 13 654.5 c 128,-1,8
 26 668 26 668 43 668 c 0,9,10
 61 668 61 668 73.5 654.5 c 128,-1,11
 86 641 86 641 86 624 c 0,0,1
EndSplineSet
EndChar

StartChar: macron
Encoding: 175 175 144
Width: 255
Flags: W
LayerCount: 2
Fore
SplineSet
0 638 m 1,0,-1
 255 638 l 1,1,-1
 255 575 l 1,2,-1
 0 575 l 1,3,-1
 0 638 l 1,0,-1
EndSplineSet
EndChar

StartChar: lessequal
Encoding: 8804 8804 145
Width: 541
Flags: W
LayerCount: 2
Fore
SplineSet
60 139 m 1,0,-1
 510 139 l 1,1,-1
 510 73 l 1,2,-1
 60 73 l 1,3,-1
 60 139 l 1,0,-1
60 418 m 1,4,-1
 60 494 l 1,5,-1
 511 711 l 1,6,-1
 511 642 l 1,7,-1
 133 456 l 1,8,-1
 511 269 l 1,9,-1
 511 200 l 1,10,-1
 60 418 l 1,4,-1
EndSplineSet
EndChar

StartChar: greaterequal
Encoding: 8805 8805 146
Width: 541
Flags: W
LayerCount: 2
Fore
SplineSet
511 73 m 1,0,-1
 61 73 l 1,1,-1
 61 139 l 1,2,-1
 511 139 l 1,3,-1
 511 73 l 1,0,-1
60 200 m 1,4,-1
 60 269 l 1,5,-1
 438 456 l 1,6,-1
 60 642 l 1,7,-1
 60 711 l 1,8,-1
 511 494 l 1,9,-1
 511 418 l 1,10,-1
 60 200 l 1,4,-1
EndSplineSet
EndChar

StartChar: divide
Encoding: 247 247 147
Width: 362
Flags: W
LayerCount: 2
Fore
SplineSet
229 522 m 0,0,1
 229 499 229 499 214.5 484.5 c 128,-1,2
 200 470 200 470 178 470 c 0,3,4
 158 470 158 470 143 484.5 c 128,-1,5
 128 499 128 499 128 522 c 0,6,7
 128 543 128 543 143.5 558.5 c 128,-1,8
 159 574 159 574 179 574 c 0,9,10
 200 574 200 574 214.5 558.5 c 128,-1,11
 229 543 229 543 229 522 c 0,0,1
229 256 m 0,12,13
 229 234 229 234 214.5 219.5 c 128,-1,14
 200 205 200 205 178 205 c 0,15,16
 158 205 158 205 143 219.5 c 128,-1,17
 128 234 128 234 128 256 c 0,18,19
 128 276 128 276 143.5 292 c 128,-1,20
 159 308 159 308 179 308 c 0,21,22
 200 308 200 308 214.5 292 c 128,-1,23
 229 276 229 276 229 256 c 0,12,13
15 420 m 1,24,-1
 344 420 l 1,25,-1
 344 354 l 1,26,-1
 15 354 l 1,27,-1
 15 420 l 1,24,-1
EndSplineSet
EndChar

StartChar: Oslash
Encoding: 216 216 148
Width: 542
Flags: W
LayerCount: 2
Fore
SplineSet
140 68 m 1,0,-1
 149 68 l 1,1,-1
 323 682 l 1,2,-1
 140 682 l 1,3,-1
 140 68 l 1,0,-1
391 682 m 1,4,-1
 217 68 l 1,5,-1
 402 68 l 1,6,-1
 402 682 l 1,7,-1
 391 682 l 1,4,-1
131 5 m 1,8,9
 90 16 90 16 75 46.5 c 128,-1,10
 60 77 60 77 60 121 c 2,11,-1
 60 617 l 2,12,13
 60 648 60 648 64.5 672.5 c 128,-1,14
 69 697 69 697 81.5 714.5 c 128,-1,15
 94 732 94 732 115.5 741 c 128,-1,16
 137 750 137 750 171 750 c 2,17,-1
 343 750 l 1,18,-1
 362 817 l 1,19,-1
 429 817 l 1,20,-1
 408 744 l 1,21,22
 482 724 482 724 482 617 c 2,23,-1
 482 136 l 2,24,25
 482 64 482 64 458 32 c 128,-1,26
 434 0 434 0 371 0 c 2,27,-1
 197 0 l 1,28,-1
 176 -76 l 1,29,-1
 108 -76 l 1,30,-1
 131 5 l 1,8,9
EndSplineSet
EndChar

StartChar: oslash
Encoding: 248 248 149
Width: 451
Flags: W
LayerCount: 2
Fore
SplineSet
320 432 m 1,0,-1
 211 68 l 1,1,-1
 330 68 l 1,2,-1
 330 432 l 1,3,-1
 320 432 l 1,0,-1
121 68 m 1,4,-1
 139 68 l 1,5,-1
 248 432 l 1,6,-1
 121 432 l 1,7,-1
 121 68 l 1,4,-1
119 0 m 1,8,9
 75 4 75 4 57.5 27.5 c 128,-1,10
 40 51 40 51 40 89 c 2,11,-1
 40 411 l 2,12,13
 40 451 40 451 58.5 475.5 c 128,-1,14
 77 500 77 500 133 500 c 2,15,-1
 269 500 l 1,16,-1
 288 563 l 1,17,-1
 359 563 l 1,18,-1
 340 499 l 1,19,20
 382 494 382 494 396.5 470 c 128,-1,21
 411 446 411 446 411 411 c 2,22,-1
 411 89 l 2,23,24
 411 47 411 47 390 23.5 c 128,-1,25
 369 0 369 0 318 0 c 2,26,-1
 190 0 l 1,27,-1
 165 -85 l 1,28,-1
 94 -85 l 1,29,-1
 119 0 l 1,8,9
EndSplineSet
EndChar

StartChar: ordfeminine
Encoding: 170 170 150
Width: 338
Flags: W
LayerCount: 2
Fore
SplineSet
208 594 m 1,0,-1
 86 519 l 1,1,-1
 86 476 l 1,2,-1
 208 476 l 1,3,-1
 208 594 l 1,0,-1
328 476 m 1,4,-1
 328 420 l 1,5,-1
 83 420 l 2,6,7
 46 420 46 420 34 434 c 128,-1,8
 22 448 22 448 22 483 c 2,9,-1
 22 506 l 2,10,11
 22 530 22 530 32.5 543 c 128,-1,12
 43 556 43 556 69 573 c 2,13,-1
 208 659 l 1,14,-1
 208 694 l 1,15,-1
 89 694 l 1,16,-1
 89 647 l 1,17,-1
 36 647 l 1,18,-1
 36 750 l 1,19,-1
 208 750 l 2,20,21
 243 750 243 750 258 734.5 c 128,-1,22
 273 719 273 719 273 689 c 2,23,-1
 273 476 l 1,24,-1
 328 476 l 1,4,-1
EndSplineSet
EndChar

StartChar: ordmasculine
Encoding: 186 186 151
Width: 308
Flags: W
LayerCount: 2
Fore
SplineSet
238 705 m 1,0,-1
 73 705 l 1,1,-1
 73 465 l 1,2,-1
 238 465 l 1,3,-1
 238 705 l 1,0,-1
173 750 m 2,4,5
 213 750 213 750 236.5 744.5 c 128,-1,6
 260 739 260 739 271 724.5 c 128,-1,7
 282 710 282 710 285 685 c 128,-1,8
 288 660 288 660 288 622 c 2,9,-1
 288 543 l 2,10,11
 288 507 288 507 286 483.5 c 128,-1,12
 284 460 284 460 274 445.5 c 128,-1,13
 264 431 264 431 243 425.5 c 128,-1,14
 222 420 222 420 183 420 c 2,15,-1
 133 420 l 2,16,17
 98 420 98 420 76.5 424.5 c 128,-1,18
 55 429 55 429 43 441.5 c 128,-1,19
 31 454 31 454 27 476.5 c 128,-1,20
 23 499 23 499 23 535 c 2,21,-1
 23 638 l 2,22,23
 23 671 23 671 27.5 692.5 c 128,-1,24
 32 714 32 714 43.5 727 c 128,-1,25
 55 740 55 740 75 745 c 128,-1,26
 95 750 95 750 127 750 c 2,27,-1
 173 750 l 2,4,5
EndSplineSet
EndChar

StartChar: exclamdown
Encoding: 161 161 152
Width: 301
Flags: W
LayerCount: 2
Fore
SplineSet
201 676 m 0,0,1
 201 656 201 656 186.5 640 c 128,-1,2
 172 624 172 624 151 624 c 0,3,4
 131 624 131 624 115.5 640 c 128,-1,5
 100 656 100 656 100 676 c 0,6,7
 100 698 100 698 115 712.5 c 128,-1,8
 130 727 130 727 150 727 c 0,9,10
 172 727 172 727 186.5 712.5 c 128,-1,11
 201 698 201 698 201 676 c 0,0,1
191 530 m 1,12,-1
 191 -4 l 1,13,-1
 109 -4 l 1,14,-1
 109 530 l 1,15,-1
 191 530 l 1,12,-1
EndSplineSet
EndChar

StartChar: questiondown
Encoding: 191 191 153
Width: 481
Flags: W
LayerCount: 2
Fore
SplineSet
283 647 m 256,0,1
 262 647 262 647 247 663 c 128,-1,2
 232 679 232 679 232 699 c 0,3,4
 232 721 232 721 247 735.5 c 128,-1,5
 262 750 262 750 284 750 c 0,6,7
 304 750 304 750 319 735.5 c 128,-1,8
 334 721 334 721 334 699 c 0,9,10
 334 679 334 679 319 663 c 128,-1,11
 304 647 304 647 283 647 c 256,0,1
328 178 m 1,12,-1
 401 178 l 1,13,-1
 401 -4 l 1,14,-1
 132 -4 l 2,15,16
 77 -4 77 -4 48.5 18 c 128,-1,17
 20 40 20 40 20 103 c 2,18,-1
 20 296 l 2,19,20
 20 343 20 343 42.5 370.5 c 128,-1,21
 65 398 65 398 114 398 c 2,22,-1
 243 398 l 1,23,-1
 243 552 l 1,24,-1
 323 552 l 1,25,-1
 323 417 l 2,26,27
 323 370 323 370 300 349.5 c 128,-1,28
 277 329 277 329 228 329 c 2,29,-1
 106 329 l 1,30,-1
 106 64 l 1,31,-1
 328 64 l 1,32,-1
 328 178 l 1,12,-1
EndSplineSet
EndChar

StartChar: Ydieresis
Encoding: 376 376 154
Width: 556
Flags: W
LayerCount: 2
Fore
SplineSet
395 852 m 0,0,1
 395 833 395 833 382.5 820.5 c 128,-1,2
 370 808 370 808 351 808 c 0,3,4
 334 808 334 808 321.5 820.5 c 128,-1,5
 309 833 309 833 309 852 c 0,6,7
 309 869 309 869 322 882.5 c 128,-1,8
 335 896 335 896 352 896 c 0,9,10
 370 896 370 896 382.5 882.5 c 128,-1,11
 395 869 395 869 395 852 c 0,0,1
247 852 m 0,12,13
 247 833 247 833 234.5 820.5 c 128,-1,14
 222 808 222 808 203 808 c 0,15,16
 186 808 186 808 173.5 820.5 c 128,-1,17
 161 833 161 833 161 852 c 0,18,19
 161 869 161 869 174 882.5 c 128,-1,20
 187 896 187 896 204 896 c 0,21,22
 222 896 222 896 234.5 882.5 c 128,-1,23
 247 869 247 869 247 852 c 0,12,13
531 750 m 1,24,-1
 531 682 l 1,25,-1
 493 682 l 1,26,-1
 318 369 l 1,27,-1
 318 68 l 1,28,-1
 383 68 l 1,29,-1
 383 0 l 1,30,-1
 173 0 l 1,31,-1
 173 68 l 1,32,-1
 236 68 l 1,33,-1
 236 369 l 1,34,-1
 70 682 l 1,35,-1
 25 682 l 1,36,-1
 25 750 l 1,37,-1
 187 750 l 1,38,-1
 187 682 l 1,39,-1
 151 682 l 1,40,-1
 278 438 l 1,41,-1
 408 682 l 1,42,-1
 372 682 l 1,43,-1
 372 750 l 1,44,-1
 531 750 l 1,24,-1
EndSplineSet
EndChar

StartChar: Agrave
Encoding: 192 192 155
Width: 641
Flags: W
LayerCount: 2
Fore
SplineSet
409 809 m 1,0,-1
 336 809 l 1,1,-1
 231 932 l 1,2,-1
 302 932 l 1,3,-1
 409 809 l 1,0,-1
616 68 m 1,4,-1
 616 0 l 1,5,-1
 421 0 l 1,6,-1
 421 68 l 1,7,-1
 475 68 l 1,8,-1
 425 267 l 1,9,-1
 215 267 l 1,10,-1
 165 68 l 1,11,-1
 220 68 l 1,12,-1
 220 0 l 1,13,-1
 25 0 l 1,14,-1
 25 68 l 1,15,-1
 88 68 l 1,16,-1
 262 750 l 1,17,-1
 380 750 l 1,18,-1
 551 68 l 1,19,-1
 616 68 l 1,4,-1
409 330 m 1,20,-1
 320 682 l 1,21,-1
 231 330 l 1,22,-1
 409 330 l 1,20,-1
EndSplineSet
EndChar

StartChar: Aacute
Encoding: 193 193 156
Width: 641
Flags: W
LayerCount: 2
Fore
SplineSet
338 932 m 1,0,-1
 409 932 l 1,1,-1
 304 809 l 1,2,-1
 231 809 l 1,3,-1
 338 932 l 1,0,-1
616 68 m 1,4,-1
 616 0 l 1,5,-1
 421 0 l 1,6,-1
 421 68 l 1,7,-1
 475 68 l 1,8,-1
 425 267 l 1,9,-1
 215 267 l 1,10,-1
 165 68 l 1,11,-1
 220 68 l 1,12,-1
 220 0 l 1,13,-1
 25 0 l 1,14,-1
 25 68 l 1,15,-1
 88 68 l 1,16,-1
 262 750 l 1,17,-1
 380 750 l 1,18,-1
 551 68 l 1,19,-1
 616 68 l 1,4,-1
409 330 m 1,20,-1
 320 682 l 1,21,-1
 231 330 l 1,22,-1
 409 330 l 1,20,-1
EndSplineSet
EndChar

StartChar: Acircumflex
Encoding: 194 194 157
Width: 641
Flags: W
LayerCount: 2
Fore
SplineSet
463 809 m 1,0,-1
 390 809 l 1,1,-1
 321 889 l 1,2,-1
 251 809 l 1,3,-1
 177 809 l 1,4,-1
 289 932 l 1,5,-1
 356 932 l 1,6,-1
 463 809 l 1,0,-1
616 68 m 1,7,-1
 616 0 l 1,8,-1
 421 0 l 1,9,-1
 421 68 l 1,10,-1
 475 68 l 1,11,-1
 425 267 l 1,12,-1
 215 267 l 1,13,-1
 165 68 l 1,14,-1
 220 68 l 1,15,-1
 220 0 l 1,16,-1
 25 0 l 1,17,-1
 25 68 l 1,18,-1
 88 68 l 1,19,-1
 262 750 l 1,20,-1
 380 750 l 1,21,-1
 551 68 l 1,22,-1
 616 68 l 1,7,-1
409 330 m 1,23,-1
 320 682 l 1,24,-1
 231 330 l 1,25,-1
 409 330 l 1,23,-1
EndSplineSet
EndChar

StartChar: Atilde
Encoding: 195 195 158
Width: 641
Flags: W
LayerCount: 2
Fore
SplineSet
485 888 m 1,0,1
 482 879 482 879 472.5 865.5 c 128,-1,2
 463 852 463 852 449.5 840 c 128,-1,3
 436 828 436 828 419.5 819.5 c 128,-1,4
 403 811 403 811 385 811 c 256,5,6
 367 811 367 811 349.5 819.5 c 128,-1,7
 332 828 332 828 315 838 c 128,-1,8
 298 848 298 848 281.5 856.5 c 128,-1,9
 265 865 265 865 249 865 c 0,10,11
 232 865 232 865 221 855 c 128,-1,12
 210 845 210 845 196 816 c 1,13,-1
 155 846 l 1,14,15
 158 855 158 855 167 868 c 128,-1,16
 176 881 176 881 188.5 893 c 128,-1,17
 201 905 201 905 216.5 913.5 c 128,-1,18
 232 922 232 922 248 922 c 0,19,20
 267 922 267 922 287.5 913.5 c 128,-1,21
 308 905 308 905 326.5 894.5 c 128,-1,22
 345 884 345 884 360 875.5 c 128,-1,23
 375 867 375 867 385 867 c 0,24,25
 404 867 404 867 421.5 882 c 128,-1,26
 439 897 439 897 447 916 c 1,27,-1
 485 888 l 1,0,1
616 68 m 1,28,-1
 616 0 l 1,29,-1
 421 0 l 1,30,-1
 421 68 l 1,31,-1
 475 68 l 1,32,-1
 425 267 l 1,33,-1
 215 267 l 1,34,-1
 165 68 l 1,35,-1
 220 68 l 1,36,-1
 220 0 l 1,37,-1
 25 0 l 1,38,-1
 25 68 l 1,39,-1
 88 68 l 1,40,-1
 262 750 l 1,41,-1
 380 750 l 1,42,-1
 551 68 l 1,43,-1
 616 68 l 1,28,-1
409 330 m 1,44,-1
 320 682 l 1,45,-1
 231 330 l 1,46,-1
 409 330 l 1,44,-1
EndSplineSet
EndChar

StartChar: Adieresis
Encoding: 196 196 159
Width: 641
Flags: W
LayerCount: 2
Fore
SplineSet
437 852 m 0,0,1
 437 833 437 833 424.5 820.5 c 128,-1,2
 412 808 412 808 393 808 c 0,3,4
 376 808 376 808 363.5 820.5 c 128,-1,5
 351 833 351 833 351 852 c 0,6,7
 351 869 351 869 364 882.5 c 128,-1,8
 377 896 377 896 394 896 c 0,9,10
 412 896 412 896 424.5 882.5 c 128,-1,11
 437 869 437 869 437 852 c 0,0,1
289 852 m 0,12,13
 289 833 289 833 276.5 820.5 c 128,-1,14
 264 808 264 808 245 808 c 0,15,16
 228 808 228 808 215.5 820.5 c 128,-1,17
 203 833 203 833 203 852 c 0,18,19
 203 869 203 869 216 882.5 c 128,-1,20
 229 896 229 896 246 896 c 0,21,22
 264 896 264 896 276.5 882.5 c 128,-1,23
 289 869 289 869 289 852 c 0,12,13
616 68 m 1,24,-1
 616 0 l 1,25,-1
 421 0 l 1,26,-1
 421 68 l 1,27,-1
 475 68 l 1,28,-1
 425 267 l 1,29,-1
 215 267 l 1,30,-1
 165 68 l 1,31,-1
 220 68 l 1,32,-1
 220 0 l 1,33,-1
 25 0 l 1,34,-1
 25 68 l 1,35,-1
 88 68 l 1,36,-1
 262 750 l 1,37,-1
 380 750 l 1,38,-1
 551 68 l 1,39,-1
 616 68 l 1,24,-1
409 330 m 1,40,-1
 320 682 l 1,41,-1
 231 330 l 1,42,-1
 409 330 l 1,40,-1
EndSplineSet
EndChar

StartChar: Aring
Encoding: 197 197 160
Width: 641
Flags: W
LayerCount: 2
Fore
SplineSet
280 874 m 256,0,1
 280 857 280 857 291.5 845 c 128,-1,2
 303 833 303 833 320 833 c 256,3,4
 337 833 337 833 349 845 c 128,-1,5
 361 857 361 857 361 873 c 0,6,7
 361 890 361 890 349 902 c 128,-1,8
 337 914 337 914 321 914 c 0,9,10
 304 914 304 914 292 902.5 c 128,-1,11
 280 891 280 891 280 874 c 256,0,1
231 873 m 0,12,13
 231 910 231 910 257 936 c 128,-1,14
 283 962 283 962 321 962 c 0,15,16
 339 962 339 962 355 955 c 128,-1,17
 371 948 371 948 383 936 c 128,-1,18
 395 924 395 924 402 907.5 c 128,-1,19
 409 891 409 891 409 873 c 0,20,21
 409 836 409 836 383 810 c 128,-1,22
 357 784 357 784 320 784 c 0,23,24
 302 784 302 784 285.5 791 c 128,-1,25
 269 798 269 798 257 810.5 c 128,-1,26
 245 823 245 823 238 839 c 128,-1,27
 231 855 231 855 231 873 c 0,12,13
616 68 m 1,28,-1
 616 0 l 1,29,-1
 421 0 l 1,30,-1
 421 68 l 1,31,-1
 475 68 l 1,32,-1
 425 267 l 1,33,-1
 215 267 l 1,34,-1
 165 68 l 1,35,-1
 220 68 l 1,36,-1
 220 0 l 1,37,-1
 25 0 l 1,38,-1
 25 68 l 1,39,-1
 88 68 l 1,40,-1
 262 750 l 1,41,-1
 380 750 l 1,42,-1
 551 68 l 1,43,-1
 616 68 l 1,28,-1
409 330 m 1,44,-1
 320 682 l 1,45,-1
 231 330 l 1,46,-1
 409 330 l 1,44,-1
EndSplineSet
EndChar

StartChar: agrave
Encoding: 224 224 161
Width: 493
Flags: W
LayerCount: 2
Fore
SplineSet
335 559 m 1,0,-1
 262 559 l 1,1,-1
 157 682 l 1,2,-1
 228 682 l 1,3,-1
 335 559 l 1,0,-1
308 278 m 1,4,-1
 100 148 l 1,5,-1
 100 68 l 1,6,-1
 308 68 l 1,7,-1
 308 278 l 1,4,-1
453 68 m 1,8,-1
 453 0 l 1,9,-1
 105 0 l 2,10,11
 79 0 79 0 62.5 4.5 c 128,-1,12
 46 9 46 9 36.5 19.5 c 128,-1,13
 27 30 27 30 23.5 47 c 128,-1,14
 20 64 20 64 20 88 c 2,15,-1
 20 125 l 2,16,17
 20 143 20 143 22 155 c 128,-1,18
 24 167 24 167 31 177 c 128,-1,19
 38 187 38 187 51.5 197 c 128,-1,20
 65 207 65 207 88 221 c 2,21,-1
 308 358 l 1,22,-1
 308 432 l 1,23,-1
 112 432 l 1,24,-1
 112 374 l 1,25,-1
 48 374 l 1,26,-1
 48 500 l 1,27,-1
 298 500 l 2,28,29
 349 500 349 500 369.5 478 c 128,-1,30
 390 456 390 456 390 414 c 2,31,-1
 390 68 l 1,32,-1
 453 68 l 1,8,-1
EndSplineSet
EndChar

StartChar: aacute
Encoding: 225 225 162
Width: 493
Flags: W
LayerCount: 2
Fore
SplineSet
264 682 m 1,0,-1
 335 682 l 1,1,-1
 230 559 l 1,2,-1
 157 559 l 1,3,-1
 264 682 l 1,0,-1
308 278 m 1,4,-1
 100 148 l 1,5,-1
 100 68 l 1,6,-1
 308 68 l 1,7,-1
 308 278 l 1,4,-1
453 68 m 1,8,-1
 453 0 l 1,9,-1
 105 0 l 2,10,11
 79 0 79 0 62.5 4.5 c 128,-1,12
 46 9 46 9 36.5 19.5 c 128,-1,13
 27 30 27 30 23.5 47 c 128,-1,14
 20 64 20 64 20 88 c 2,15,-1
 20 125 l 2,16,17
 20 143 20 143 22 155 c 128,-1,18
 24 167 24 167 31 177 c 128,-1,19
 38 187 38 187 51.5 197 c 128,-1,20
 65 207 65 207 88 221 c 2,21,-1
 308 358 l 1,22,-1
 308 432 l 1,23,-1
 112 432 l 1,24,-1
 112 374 l 1,25,-1
 48 374 l 1,26,-1
 48 500 l 1,27,-1
 298 500 l 2,28,29
 349 500 349 500 369.5 478 c 128,-1,30
 390 456 390 456 390 414 c 2,31,-1
 390 68 l 1,32,-1
 453 68 l 1,8,-1
EndSplineSet
EndChar

StartChar: acircumflex
Encoding: 226 226 163
Width: 493
Flags: W
LayerCount: 2
Fore
SplineSet
350 559 m 1,0,-1
 277 559 l 1,1,-1
 208 639 l 1,2,-1
 138 559 l 1,3,-1
 64 559 l 1,4,-1
 176 682 l 1,5,-1
 243 682 l 1,6,-1
 350 559 l 1,0,-1
308 278 m 1,7,-1
 100 148 l 1,8,-1
 100 68 l 1,9,-1
 308 68 l 1,10,-1
 308 278 l 1,7,-1
453 68 m 1,11,-1
 453 0 l 1,12,-1
 105 0 l 2,13,14
 79 0 79 0 62.5 4.5 c 128,-1,15
 46 9 46 9 36.5 19.5 c 128,-1,16
 27 30 27 30 23.5 47 c 128,-1,17
 20 64 20 64 20 88 c 2,18,-1
 20 125 l 2,19,20
 20 143 20 143 22 155 c 128,-1,21
 24 167 24 167 31 177 c 128,-1,22
 38 187 38 187 51.5 197 c 128,-1,23
 65 207 65 207 88 221 c 2,24,-1
 308 358 l 1,25,-1
 308 432 l 1,26,-1
 112 432 l 1,27,-1
 112 374 l 1,28,-1
 48 374 l 1,29,-1
 48 500 l 1,30,-1
 298 500 l 2,31,32
 349 500 349 500 369.5 478 c 128,-1,33
 390 456 390 456 390 414 c 2,34,-1
 390 68 l 1,35,-1
 453 68 l 1,11,-1
EndSplineSet
EndChar

StartChar: atilde
Encoding: 227 227 164
Width: 493
Flags: W
LayerCount: 2
Fore
SplineSet
375 638 m 1,0,1
 372 629 372 629 362.5 615.5 c 128,-1,2
 353 602 353 602 339.5 590 c 128,-1,3
 326 578 326 578 309.5 569.5 c 128,-1,4
 293 561 293 561 275 561 c 256,5,6
 257 561 257 561 239.5 569.5 c 128,-1,7
 222 578 222 578 205 588 c 128,-1,8
 188 598 188 598 171.5 606.5 c 128,-1,9
 155 615 155 615 139 615 c 0,10,11
 122 615 122 615 111 605 c 128,-1,12
 100 595 100 595 86 566 c 1,13,-1
 45 596 l 1,14,15
 48 605 48 605 57 618 c 128,-1,16
 66 631 66 631 78.5 643 c 128,-1,17
 91 655 91 655 106.5 663.5 c 128,-1,18
 122 672 122 672 138 672 c 0,19,20
 157 672 157 672 177.5 663.5 c 128,-1,21
 198 655 198 655 216.5 644.5 c 128,-1,22
 235 634 235 634 250 625.5 c 128,-1,23
 265 617 265 617 275 617 c 0,24,25
 294 617 294 617 311.5 632 c 128,-1,26
 329 647 329 647 337 666 c 1,27,-1
 375 638 l 1,0,1
308 278 m 1,28,-1
 100 148 l 1,29,-1
 100 68 l 1,30,-1
 308 68 l 1,31,-1
 308 278 l 1,28,-1
453 68 m 1,32,-1
 453 0 l 1,33,-1
 105 0 l 2,34,35
 79 0 79 0 62.5 4.5 c 128,-1,36
 46 9 46 9 36.5 19.5 c 128,-1,37
 27 30 27 30 23.5 47 c 128,-1,38
 20 64 20 64 20 88 c 2,39,-1
 20 125 l 2,40,41
 20 143 20 143 22 155 c 128,-1,42
 24 167 24 167 31 177 c 128,-1,43
 38 187 38 187 51.5 197 c 128,-1,44
 65 207 65 207 88 221 c 2,45,-1
 308 358 l 1,46,-1
 308 432 l 1,47,-1
 112 432 l 1,48,-1
 112 374 l 1,49,-1
 48 374 l 1,50,-1
 48 500 l 1,51,-1
 298 500 l 2,52,53
 349 500 349 500 369.5 478 c 128,-1,54
 390 456 390 456 390 414 c 2,55,-1
 390 68 l 1,56,-1
 453 68 l 1,32,-1
EndSplineSet
EndChar

StartChar: adieresis
Encoding: 228 228 165
Width: 493
Flags: W
LayerCount: 2
Fore
SplineSet
320 602 m 0,0,1
 320 583 320 583 307.5 570.5 c 128,-1,2
 295 558 295 558 276 558 c 0,3,4
 259 558 259 558 246.5 570.5 c 128,-1,5
 234 583 234 583 234 602 c 0,6,7
 234 619 234 619 247 632.5 c 128,-1,8
 260 646 260 646 277 646 c 0,9,10
 295 646 295 646 307.5 632.5 c 128,-1,11
 320 619 320 619 320 602 c 0,0,1
172 602 m 0,12,13
 172 583 172 583 159.5 570.5 c 128,-1,14
 147 558 147 558 128 558 c 0,15,16
 111 558 111 558 98.5 570.5 c 128,-1,17
 86 583 86 583 86 602 c 0,18,19
 86 619 86 619 99 632.5 c 128,-1,20
 112 646 112 646 129 646 c 0,21,22
 147 646 147 646 159.5 632.5 c 128,-1,23
 172 619 172 619 172 602 c 0,12,13
308 278 m 1,24,-1
 100 148 l 1,25,-1
 100 68 l 1,26,-1
 308 68 l 1,27,-1
 308 278 l 1,24,-1
453 68 m 1,28,-1
 453 0 l 1,29,-1
 105 0 l 2,30,31
 79 0 79 0 62.5 4.5 c 128,-1,32
 46 9 46 9 36.5 19.5 c 128,-1,33
 27 30 27 30 23.5 47 c 128,-1,34
 20 64 20 64 20 88 c 2,35,-1
 20 125 l 2,36,37
 20 143 20 143 22 155 c 128,-1,38
 24 167 24 167 31 177 c 128,-1,39
 38 187 38 187 51.5 197 c 128,-1,40
 65 207 65 207 88 221 c 2,41,-1
 308 358 l 1,42,-1
 308 432 l 1,43,-1
 112 432 l 1,44,-1
 112 374 l 1,45,-1
 48 374 l 1,46,-1
 48 500 l 1,47,-1
 298 500 l 2,48,49
 349 500 349 500 369.5 478 c 128,-1,50
 390 456 390 456 390 414 c 2,51,-1
 390 68 l 1,52,-1
 453 68 l 1,28,-1
EndSplineSet
EndChar

StartChar: aring
Encoding: 229 229 166
Width: 493
Flags: W
LayerCount: 2
Fore
SplineSet
166 624 m 256,0,1
 166 607 166 607 177.5 595 c 128,-1,2
 189 583 189 583 206 583 c 256,3,4
 223 583 223 583 235 595 c 128,-1,5
 247 607 247 607 247 623 c 0,6,7
 247 640 247 640 235 652 c 128,-1,8
 223 664 223 664 207 664 c 0,9,10
 190 664 190 664 178 652.5 c 128,-1,11
 166 641 166 641 166 624 c 256,0,1
117 623 m 0,12,13
 117 660 117 660 143 686 c 128,-1,14
 169 712 169 712 207 712 c 0,15,16
 225 712 225 712 241 705 c 128,-1,17
 257 698 257 698 269 686 c 128,-1,18
 281 674 281 674 288 657.5 c 128,-1,19
 295 641 295 641 295 623 c 0,20,21
 295 586 295 586 269 560 c 128,-1,22
 243 534 243 534 206 534 c 0,23,24
 188 534 188 534 171.5 541 c 128,-1,25
 155 548 155 548 143 560.5 c 128,-1,26
 131 573 131 573 124 589 c 128,-1,27
 117 605 117 605 117 623 c 0,12,13
308 278 m 1,28,-1
 100 148 l 1,29,-1
 100 68 l 1,30,-1
 308 68 l 1,31,-1
 308 278 l 1,28,-1
453 68 m 1,32,-1
 453 0 l 1,33,-1
 105 0 l 2,34,35
 79 0 79 0 62.5 4.5 c 128,-1,36
 46 9 46 9 36.5 19.5 c 128,-1,37
 27 30 27 30 23.5 47 c 128,-1,38
 20 64 20 64 20 88 c 2,39,-1
 20 125 l 2,40,41
 20 143 20 143 22 155 c 128,-1,42
 24 167 24 167 31 177 c 128,-1,43
 38 187 38 187 51.5 197 c 128,-1,44
 65 207 65 207 88 221 c 2,45,-1
 308 358 l 1,46,-1
 308 432 l 1,47,-1
 112 432 l 1,48,-1
 112 374 l 1,49,-1
 48 374 l 1,50,-1
 48 500 l 1,51,-1
 298 500 l 2,52,53
 349 500 349 500 369.5 478 c 128,-1,54
 390 456 390 456 390 414 c 2,55,-1
 390 68 l 1,56,-1
 453 68 l 1,32,-1
EndSplineSet
EndChar

StartChar: Ccedilla
Encoding: 199 199 167
Width: 525
Flags: W
LayerCount: 2
Fore
SplineSet
177 0 m 1,0,-1
 168 0 l 2,1,2
 138 0 138 0 117 8.5 c 128,-1,3
 96 17 96 17 83.5 31.5 c 128,-1,4
 71 46 71 46 65.5 65.5 c 128,-1,5
 60 85 60 85 60 107 c 2,6,-1
 60 642 l 2,7,8
 60 661 60 661 65 680.5 c 128,-1,9
 70 700 70 700 81 715.5 c 128,-1,10
 92 731 92 731 111 740.5 c 128,-1,11
 130 750 130 750 158 750 c 2,12,-1
 475 750 l 1,13,-1
 475 565 l 1,14,-1
 407 565 l 1,15,-1
 407 682 l 1,16,-1
 142 682 l 1,17,-1
 142 68 l 1,18,-1
 407 68 l 1,19,-1
 407 185 l 1,20,-1
 475 185 l 1,21,-1
 475 0 l 1,22,-1
 236 0 l 1,23,-1
 236 -42 l 1,24,-1
 273 -42 l 2,25,26
 311 -42 311 -42 329 -61 c 128,-1,27
 347 -80 347 -80 347 -112 c 2,28,-1
 347 -149 l 2,29,30
 347 -177 347 -177 334 -197 c 128,-1,31
 321 -217 321 -217 279 -217 c 2,32,-1
 177 -217 l 1,33,-1
 177 -164 l 1,34,-1
 285 -164 l 1,35,-1
 285 -97 l 1,36,-1
 177 -97 l 1,37,-1
 177 0 l 1,0,-1
EndSplineSet
EndChar

StartChar: ccedilla
Encoding: 231 231 168
Width: 426
Flags: W
LayerCount: 2
Fore
SplineSet
128 0 m 1,0,1
 104 1 104 1 89 8.5 c 128,-1,2
 74 16 74 16 65.5 28 c 128,-1,3
 57 40 57 40 53.5 55.5 c 128,-1,4
 50 71 50 71 50 88 c 2,5,-1
 50 412 l 2,6,7
 50 454 50 454 73.5 477.5 c 128,-1,8
 97 501 97 501 145 501 c 2,9,-1
 386 501 l 1,10,-1
 386 374 l 1,11,-1
 318 374 l 1,12,-1
 318 432 l 1,13,-1
 130 432 l 1,14,-1
 130 68 l 1,15,-1
 318 68 l 1,16,-1
 318 126 l 1,17,-1
 386 126 l 1,18,-1
 386 0 l 1,19,-1
 187 0 l 1,20,-1
 187 -42 l 1,21,-1
 224 -42 l 2,22,23
 262 -42 262 -42 280 -61 c 128,-1,24
 298 -80 298 -80 298 -112 c 2,25,-1
 298 -149 l 2,26,27
 298 -177 298 -177 285 -197 c 128,-1,28
 272 -217 272 -217 230 -217 c 2,29,-1
 128 -217 l 1,30,-1
 128 -164 l 1,31,-1
 236 -164 l 1,32,-1
 236 -97 l 1,33,-1
 128 -97 l 1,34,-1
 128 0 l 1,0,1
EndSplineSet
EndChar

StartChar: Eacute
Encoding: 201 201 169
Width: 584
Flags: W
LayerCount: 2
Fore
SplineSet
310 932 m 1,0,-1
 381 932 l 1,1,-1
 276 809 l 1,2,-1
 203 809 l 1,3,-1
 310 932 l 1,0,-1
65 326 m 1,4,-1
 128 366 l 1,5,-1
 128 682 l 1,6,-1
 65 682 l 1,7,-1
 65 750 l 1,8,-1
 534 750 l 1,9,-1
 534 565 l 1,10,-1
 466 565 l 1,11,-1
 466 682 l 1,12,-1
 210 682 l 1,13,-1
 210 416 l 1,14,-1
 382 525 l 1,15,-1
 382 444 l 1,16,-1
 210 337 l 1,17,-1
 210 68 l 1,18,-1
 466 68 l 1,19,-1
 466 185 l 1,20,-1
 534 185 l 1,21,-1
 534 0 l 1,22,-1
 65 0 l 1,23,-1
 65 68 l 1,24,-1
 128 68 l 1,25,-1
 128 285 l 1,26,-1
 65 245 l 1,27,-1
 65 326 l 1,4,-1
EndSplineSet
EndChar

StartChar: eacute
Encoding: 233 233 170
Width: 465
Flags: W
LayerCount: 2
Fore
SplineSet
250 682 m 1,0,-1
 321 682 l 1,1,-1
 216 559 l 1,2,-1
 143 559 l 1,3,-1
 250 682 l 1,0,-1
130 220 m 1,4,-1
 335 349 l 1,5,-1
 335 432 l 1,6,-1
 130 432 l 1,7,-1
 130 220 l 1,4,-1
130 68 m 1,8,-1
 336 68 l 1,9,-1
 336 126 l 1,10,-1
 415 126 l 1,11,-1
 415 73 l 2,12,13
 415 43 415 43 396.5 21.5 c 128,-1,14
 378 0 378 0 335 0 c 2,15,-1
 130 0 l 2,16,17
 87 0 87 0 68.5 21.5 c 128,-1,18
 50 43 50 43 50 73 c 2,19,-1
 50 402 l 2,20,21
 50 451 50 451 74.5 476 c 128,-1,22
 99 501 99 501 153 501 c 2,23,-1
 322 501 l 2,24,25
 371 501 371 501 393 482 c 128,-1,26
 415 463 415 463 415 412 c 2,27,-1
 415 319 l 1,28,-1
 130 139 l 1,29,-1
 130 68 l 1,8,-1
EndSplineSet
EndChar

StartChar: Edieresis
Encoding: 203 203 171
Width: 584
Flags: W
LayerCount: 2
Fore
SplineSet
409 852 m 0,0,1
 409 833 409 833 396.5 820.5 c 128,-1,2
 384 808 384 808 365 808 c 0,3,4
 348 808 348 808 335.5 820.5 c 128,-1,5
 323 833 323 833 323 852 c 0,6,7
 323 869 323 869 336 882.5 c 128,-1,8
 349 896 349 896 366 896 c 0,9,10
 384 896 384 896 396.5 882.5 c 128,-1,11
 409 869 409 869 409 852 c 0,0,1
261 852 m 0,12,13
 261 833 261 833 248.5 820.5 c 128,-1,14
 236 808 236 808 217 808 c 0,15,16
 200 808 200 808 187.5 820.5 c 128,-1,17
 175 833 175 833 175 852 c 0,18,19
 175 869 175 869 188 882.5 c 128,-1,20
 201 896 201 896 218 896 c 0,21,22
 236 896 236 896 248.5 882.5 c 128,-1,23
 261 869 261 869 261 852 c 0,12,13
65 326 m 1,24,-1
 128 366 l 1,25,-1
 128 682 l 1,26,-1
 65 682 l 1,27,-1
 65 750 l 1,28,-1
 534 750 l 1,29,-1
 534 565 l 1,30,-1
 466 565 l 1,31,-1
 466 682 l 1,32,-1
 210 682 l 1,33,-1
 210 416 l 1,34,-1
 382 525 l 1,35,-1
 382 444 l 1,36,-1
 210 337 l 1,37,-1
 210 68 l 1,38,-1
 466 68 l 1,39,-1
 466 185 l 1,40,-1
 534 185 l 1,41,-1
 534 0 l 1,42,-1
 65 0 l 1,43,-1
 65 68 l 1,44,-1
 128 68 l 1,45,-1
 128 285 l 1,46,-1
 65 245 l 1,47,-1
 65 326 l 1,24,-1
EndSplineSet
EndChar

StartChar: edieresis
Encoding: 235 235 172
Width: 465
Flags: W
LayerCount: 2
Fore
SplineSet
349 602 m 0,0,1
 349 583 349 583 336.5 570.5 c 128,-1,2
 324 558 324 558 305 558 c 0,3,4
 288 558 288 558 275.5 570.5 c 128,-1,5
 263 583 263 583 263 602 c 0,6,7
 263 619 263 619 276 632.5 c 128,-1,8
 289 646 289 646 306 646 c 0,9,10
 324 646 324 646 336.5 632.5 c 128,-1,11
 349 619 349 619 349 602 c 0,0,1
201 602 m 0,12,13
 201 583 201 583 188.5 570.5 c 128,-1,14
 176 558 176 558 157 558 c 0,15,16
 140 558 140 558 127.5 570.5 c 128,-1,17
 115 583 115 583 115 602 c 0,18,19
 115 619 115 619 128 632.5 c 128,-1,20
 141 646 141 646 158 646 c 0,21,22
 176 646 176 646 188.5 632.5 c 128,-1,23
 201 619 201 619 201 602 c 0,12,13
130 220 m 1,24,-1
 335 349 l 1,25,-1
 335 432 l 1,26,-1
 130 432 l 1,27,-1
 130 220 l 1,24,-1
130 68 m 1,28,-1
 336 68 l 1,29,-1
 336 126 l 1,30,-1
 415 126 l 1,31,-1
 415 73 l 2,32,33
 415 43 415 43 396.5 21.5 c 128,-1,34
 378 0 378 0 335 0 c 2,35,-1
 130 0 l 2,36,37
 87 0 87 0 68.5 21.5 c 128,-1,38
 50 43 50 43 50 73 c 2,39,-1
 50 402 l 2,40,41
 50 451 50 451 74.5 476 c 128,-1,42
 99 501 99 501 153 501 c 2,43,-1
 322 501 l 2,44,45
 371 501 371 501 393 482 c 128,-1,46
 415 463 415 463 415 412 c 2,47,-1
 415 319 l 1,48,-1
 130 139 l 1,49,-1
 130 68 l 1,28,-1
EndSplineSet
EndChar

StartChar: Iacute
Encoding: 205 205 173
Width: 370
Flags: W
LayerCount: 2
Fore
SplineSet
203 932 m 1,0,-1
 274 932 l 1,1,-1
 169 809 l 1,2,-1
 96 809 l 1,3,-1
 203 932 l 1,0,-1
225 68 m 1,4,-1
 290 68 l 1,5,-1
 290 0 l 1,6,-1
 80 0 l 1,7,-1
 80 68 l 1,8,-1
 143 68 l 1,9,-1
 143 682 l 1,10,-1
 80 682 l 1,11,-1
 80 750 l 1,12,-1
 290 750 l 1,13,-1
 290 682 l 1,14,-1
 225 682 l 1,15,-1
 225 68 l 1,4,-1
EndSplineSet
EndChar

StartChar: iacute
Encoding: 237 237 174
Width: 300
Flags: W
LayerCount: 2
Fore
SplineSet
168 682 m 1,0,-1
 239 682 l 1,1,-1
 134 559 l 1,2,-1
 61 559 l 1,3,-1
 168 682 l 1,0,-1
195 68 m 1,4,-1
 260 68 l 1,5,-1
 260 0 l 1,6,-1
 50 0 l 1,7,-1
 50 68 l 1,8,-1
 113 68 l 1,9,-1
 113 432 l 1,10,-1
 50 432 l 1,11,-1
 50 500 l 1,12,-1
 195 500 l 1,13,-1
 195 68 l 1,4,-1
EndSplineSet
EndChar

StartChar: Icircumflex
Encoding: 206 206 175
Width: 370
Flags: W
LayerCount: 2
Fore
SplineSet
328 809 m 1,0,-1
 255 809 l 1,1,-1
 186 889 l 1,2,-1
 116 809 l 1,3,-1
 42 809 l 1,4,-1
 154 932 l 1,5,-1
 221 932 l 1,6,-1
 328 809 l 1,0,-1
225 68 m 1,7,-1
 290 68 l 1,8,-1
 290 0 l 1,9,-1
 80 0 l 1,10,-1
 80 68 l 1,11,-1
 143 68 l 1,12,-1
 143 682 l 1,13,-1
 80 682 l 1,14,-1
 80 750 l 1,15,-1
 290 750 l 1,16,-1
 290 682 l 1,17,-1
 225 682 l 1,18,-1
 225 68 l 1,7,-1
EndSplineSet
EndChar

StartChar: icircumflex
Encoding: 238 238 176
Width: 308
Flags: W
LayerCount: 2
Fore
SplineSet
285 559 m 1,0,-1
 212 559 l 1,1,-1
 143 639 l 1,2,-1
 73 559 l 1,3,-1
 -1 559 l 1,4,-1
 111 682 l 1,5,-1
 178 682 l 1,6,-1
 285 559 l 1,0,-1
203 68 m 1,7,-1
 268 68 l 1,8,-1
 268 0 l 1,9,-1
 58 0 l 1,10,-1
 58 68 l 1,11,-1
 121 68 l 1,12,-1
 121 432 l 1,13,-1
 58 432 l 1,14,-1
 58 500 l 1,15,-1
 203 500 l 1,16,-1
 203 68 l 1,7,-1
EndSplineSet
EndChar

StartChar: Oacute
Encoding: 211 211 177
Width: 542
Flags: W
LayerCount: 2
Fore
SplineSet
289 932 m 1,0,-1
 360 932 l 1,1,-1
 255 809 l 1,2,-1
 182 809 l 1,3,-1
 289 932 l 1,0,-1
140 68 m 1,4,-1
 402 68 l 1,5,-1
 402 682 l 1,6,-1
 140 682 l 1,7,-1
 140 68 l 1,4,-1
366 750 m 2,8,9
 427 750 427 750 454.5 716.5 c 128,-1,10
 482 683 482 683 482 617 c 2,11,-1
 482 136 l 2,12,13
 482 64 482 64 458 32 c 128,-1,14
 434 0 434 0 371 0 c 2,15,-1
 179 0 l 2,16,17
 144 0 144 0 121.5 8.5 c 128,-1,18
 99 17 99 17 85 33 c 128,-1,19
 71 49 71 49 65.5 71.5 c 128,-1,20
 60 94 60 94 60 121 c 2,21,-1
 60 617 l 2,22,23
 60 648 60 648 64.5 672.5 c 128,-1,24
 69 697 69 697 81.5 714.5 c 128,-1,25
 94 732 94 732 115.5 741 c 128,-1,26
 137 750 137 750 171 750 c 2,27,-1
 366 750 l 2,8,9
EndSplineSet
EndChar

StartChar: oacute
Encoding: 243 243 178
Width: 451
Flags: W
LayerCount: 2
Fore
SplineSet
243 682 m 1,0,-1
 314 682 l 1,1,-1
 209 559 l 1,2,-1
 136 559 l 1,3,-1
 243 682 l 1,0,-1
121 68 m 1,4,-1
 330 68 l 1,5,-1
 330 432 l 1,6,-1
 121 432 l 1,7,-1
 121 68 l 1,4,-1
133 0 m 2,8,9
 82 0 82 0 61 23.5 c 128,-1,10
 40 47 40 47 40 89 c 2,11,-1
 40 411 l 2,12,13
 40 451 40 451 58.5 475.5 c 128,-1,14
 77 500 77 500 133 500 c 2,15,-1
 318 500 l 2,16,17
 373 500 373 500 392 475.5 c 128,-1,18
 411 451 411 451 411 411 c 2,19,-1
 411 89 l 2,20,21
 411 47 411 47 390 23.5 c 128,-1,22
 369 0 369 0 318 0 c 2,23,-1
 133 0 l 2,8,9
EndSplineSet
EndChar

StartChar: Ocircumflex
Encoding: 212 212 179
Width: 542
Flags: W
LayerCount: 2
Fore
SplineSet
414 809 m 1,0,-1
 341 809 l 1,1,-1
 272 889 l 1,2,-1
 202 809 l 1,3,-1
 128 809 l 1,4,-1
 240 932 l 1,5,-1
 307 932 l 1,6,-1
 414 809 l 1,0,-1
140 68 m 1,7,-1
 402 68 l 1,8,-1
 402 682 l 1,9,-1
 140 682 l 1,10,-1
 140 68 l 1,7,-1
366 750 m 2,11,12
 427 750 427 750 454.5 716.5 c 128,-1,13
 482 683 482 683 482 617 c 2,14,-1
 482 136 l 2,15,16
 482 64 482 64 458 32 c 128,-1,17
 434 0 434 0 371 0 c 2,18,-1
 179 0 l 2,19,20
 144 0 144 0 121.5 8.5 c 128,-1,21
 99 17 99 17 85 33 c 128,-1,22
 71 49 71 49 65.5 71.5 c 128,-1,23
 60 94 60 94 60 121 c 2,24,-1
 60 617 l 2,25,26
 60 648 60 648 64.5 672.5 c 128,-1,27
 69 697 69 697 81.5 714.5 c 128,-1,28
 94 732 94 732 115.5 741 c 128,-1,29
 137 750 137 750 171 750 c 2,30,-1
 366 750 l 2,11,12
EndSplineSet
EndChar

StartChar: ocircumflex
Encoding: 244 244 180
Width: 451
Flags: W
LayerCount: 2
Fore
SplineSet
368 559 m 1,0,-1
 295 559 l 1,1,-1
 226 639 l 1,2,-1
 156 559 l 1,3,-1
 82 559 l 1,4,-1
 194 682 l 1,5,-1
 261 682 l 1,6,-1
 368 559 l 1,0,-1
121 68 m 1,7,-1
 330 68 l 1,8,-1
 330 432 l 1,9,-1
 121 432 l 1,10,-1
 121 68 l 1,7,-1
133 0 m 2,11,12
 82 0 82 0 61 23.5 c 128,-1,13
 40 47 40 47 40 89 c 2,14,-1
 40 411 l 2,15,16
 40 451 40 451 58.5 475.5 c 128,-1,17
 77 500 77 500 133 500 c 2,18,-1
 318 500 l 2,19,20
 373 500 373 500 392 475.5 c 128,-1,21
 411 451 411 451 411 411 c 2,22,-1
 411 89 l 2,23,24
 411 47 411 47 390 23.5 c 128,-1,25
 369 0 369 0 318 0 c 2,26,-1
 133 0 l 2,11,12
EndSplineSet
EndChar

StartChar: Odieresis
Encoding: 214 214 181
Width: 542
Flags: W
LayerCount: 2
Fore
SplineSet
388 852 m 0,0,1
 388 833 388 833 375.5 820.5 c 128,-1,2
 363 808 363 808 344 808 c 0,3,4
 327 808 327 808 314.5 820.5 c 128,-1,5
 302 833 302 833 302 852 c 0,6,7
 302 869 302 869 315 882.5 c 128,-1,8
 328 896 328 896 345 896 c 0,9,10
 363 896 363 896 375.5 882.5 c 128,-1,11
 388 869 388 869 388 852 c 0,0,1
240 852 m 0,12,13
 240 833 240 833 227.5 820.5 c 128,-1,14
 215 808 215 808 196 808 c 0,15,16
 179 808 179 808 166.5 820.5 c 128,-1,17
 154 833 154 833 154 852 c 0,18,19
 154 869 154 869 167 882.5 c 128,-1,20
 180 896 180 896 197 896 c 0,21,22
 215 896 215 896 227.5 882.5 c 128,-1,23
 240 869 240 869 240 852 c 0,12,13
140 68 m 1,24,-1
 402 68 l 1,25,-1
 402 682 l 1,26,-1
 140 682 l 1,27,-1
 140 68 l 1,24,-1
366 750 m 2,28,29
 427 750 427 750 454.5 716.5 c 128,-1,30
 482 683 482 683 482 617 c 2,31,-1
 482 136 l 2,32,33
 482 64 482 64 458 32 c 128,-1,34
 434 0 434 0 371 0 c 2,35,-1
 179 0 l 2,36,37
 144 0 144 0 121.5 8.5 c 128,-1,38
 99 17 99 17 85 33 c 128,-1,39
 71 49 71 49 65.5 71.5 c 128,-1,40
 60 94 60 94 60 121 c 2,41,-1
 60 617 l 2,42,43
 60 648 60 648 64.5 672.5 c 128,-1,44
 69 697 69 697 81.5 714.5 c 128,-1,45
 94 732 94 732 115.5 741 c 128,-1,46
 137 750 137 750 171 750 c 2,47,-1
 366 750 l 2,28,29
EndSplineSet
EndChar

StartChar: odieresis
Encoding: 246 246 182
Width: 451
Flags: W
LayerCount: 2
Fore
SplineSet
342 602 m 0,0,1
 342 583 342 583 329.5 570.5 c 128,-1,2
 317 558 317 558 298 558 c 0,3,4
 281 558 281 558 268.5 570.5 c 128,-1,5
 256 583 256 583 256 602 c 0,6,7
 256 619 256 619 269 632.5 c 128,-1,8
 282 646 282 646 299 646 c 0,9,10
 317 646 317 646 329.5 632.5 c 128,-1,11
 342 619 342 619 342 602 c 0,0,1
194 602 m 0,12,13
 194 583 194 583 181.5 570.5 c 128,-1,14
 169 558 169 558 150 558 c 0,15,16
 133 558 133 558 120.5 570.5 c 128,-1,17
 108 583 108 583 108 602 c 0,18,19
 108 619 108 619 121 632.5 c 128,-1,20
 134 646 134 646 151 646 c 0,21,22
 169 646 169 646 181.5 632.5 c 128,-1,23
 194 619 194 619 194 602 c 0,12,13
121 68 m 1,24,-1
 330 68 l 1,25,-1
 330 432 l 1,26,-1
 121 432 l 1,27,-1
 121 68 l 1,24,-1
133 0 m 2,28,29
 82 0 82 0 61 23.5 c 128,-1,30
 40 47 40 47 40 89 c 2,31,-1
 40 411 l 2,32,33
 40 451 40 451 58.5 475.5 c 128,-1,34
 77 500 77 500 133 500 c 2,35,-1
 318 500 l 2,36,37
 373 500 373 500 392 475.5 c 128,-1,38
 411 451 411 451 411 411 c 2,39,-1
 411 89 l 2,40,41
 411 47 411 47 390 23.5 c 128,-1,42
 369 0 369 0 318 0 c 2,43,-1
 133 0 l 2,28,29
EndSplineSet
EndChar

StartChar: Uacute
Encoding: 218 218 183
Width: 682
Flags: W
LayerCount: 2
Fore
SplineSet
359 932 m 1,0,-1
 430 932 l 1,1,-1
 325 809 l 1,2,-1
 252 809 l 1,3,-1
 359 932 l 1,0,-1
60 750 m 1,4,-1
 270 750 l 1,5,-1
 270 682 l 1,6,-1
 205 682 l 1,7,-1
 205 68 l 1,8,-1
 477 68 l 1,9,-1
 477 682 l 1,10,-1
 412 682 l 1,11,-1
 412 750 l 1,12,-1
 622 750 l 1,13,-1
 622 682 l 1,14,-1
 559 682 l 1,15,-1
 559 104 l 2,16,17
 559 50 559 50 536.5 25 c 128,-1,18
 514 0 514 0 469 0 c 2,19,-1
 212 0 l 2,20,21
 166 0 166 0 144.5 25.5 c 128,-1,22
 123 51 123 51 123 99 c 2,23,-1
 123 682 l 1,24,-1
 60 682 l 1,25,-1
 60 750 l 1,4,-1
EndSplineSet
EndChar

StartChar: uacute
Encoding: 250 250 184
Width: 568
Flags: W
LayerCount: 2
Fore
SplineSet
302 682 m 1,0,-1
 373 682 l 1,1,-1
 268 559 l 1,2,-1
 195 559 l 1,3,-1
 302 682 l 1,0,-1
40 433 m 1,4,-1
 40 501 l 1,5,-1
 185 501 l 1,6,-1
 185 68 l 1,7,-1
 384 193 l 1,8,-1
 384 433 l 1,9,-1
 335 433 l 1,10,-1
 335 501 l 1,11,-1
 465 501 l 1,12,-1
 465 68 l 1,13,-1
 528 68 l 1,14,-1
 528 0 l 1,15,-1
 384 0 l 1,16,-1
 384 112 l 1,17,-1
 218 8 l 2,18,19
 202 -2 202 -2 182 -2 c 0,20,21
 167 -2 167 -2 153 1.5 c 128,-1,22
 139 5 139 5 128 13.5 c 128,-1,23
 117 22 117 22 110.5 37 c 128,-1,24
 104 52 104 52 104 75 c 2,25,-1
 104 433 l 1,26,-1
 40 433 l 1,4,-1
EndSplineSet
EndChar

StartChar: Udieresis
Encoding: 220 220 185
Width: 682
Flags: W
LayerCount: 2
Fore
SplineSet
458 852 m 0,0,1
 458 833 458 833 445.5 820.5 c 128,-1,2
 433 808 433 808 414 808 c 0,3,4
 397 808 397 808 384.5 820.5 c 128,-1,5
 372 833 372 833 372 852 c 0,6,7
 372 869 372 869 385 882.5 c 128,-1,8
 398 896 398 896 415 896 c 0,9,10
 433 896 433 896 445.5 882.5 c 128,-1,11
 458 869 458 869 458 852 c 0,0,1
310 852 m 0,12,13
 310 833 310 833 297.5 820.5 c 128,-1,14
 285 808 285 808 266 808 c 0,15,16
 249 808 249 808 236.5 820.5 c 128,-1,17
 224 833 224 833 224 852 c 0,18,19
 224 869 224 869 237 882.5 c 128,-1,20
 250 896 250 896 267 896 c 0,21,22
 285 896 285 896 297.5 882.5 c 128,-1,23
 310 869 310 869 310 852 c 0,12,13
60 750 m 1,24,-1
 270 750 l 1,25,-1
 270 682 l 1,26,-1
 205 682 l 1,27,-1
 205 68 l 1,28,-1
 477 68 l 1,29,-1
 477 682 l 1,30,-1
 412 682 l 1,31,-1
 412 750 l 1,32,-1
 622 750 l 1,33,-1
 622 682 l 1,34,-1
 559 682 l 1,35,-1
 559 104 l 2,36,37
 559 50 559 50 536.5 25 c 128,-1,38
 514 0 514 0 469 0 c 2,39,-1
 212 0 l 2,40,41
 166 0 166 0 144.5 25.5 c 128,-1,42
 123 51 123 51 123 99 c 2,43,-1
 123 682 l 1,44,-1
 60 682 l 1,45,-1
 60 750 l 1,24,-1
EndSplineSet
EndChar

StartChar: udieresis
Encoding: 252 252 186
Width: 568
Flags: W
LayerCount: 2
Fore
SplineSet
401 602 m 0,0,1
 401 583 401 583 388.5 570.5 c 128,-1,2
 376 558 376 558 357 558 c 0,3,4
 340 558 340 558 327.5 570.5 c 128,-1,5
 315 583 315 583 315 602 c 0,6,7
 315 619 315 619 328 632.5 c 128,-1,8
 341 646 341 646 358 646 c 0,9,10
 376 646 376 646 388.5 632.5 c 128,-1,11
 401 619 401 619 401 602 c 0,0,1
253 602 m 0,12,13
 253 583 253 583 240.5 570.5 c 128,-1,14
 228 558 228 558 209 558 c 0,15,16
 192 558 192 558 179.5 570.5 c 128,-1,17
 167 583 167 583 167 602 c 0,18,19
 167 619 167 619 180 632.5 c 128,-1,20
 193 646 193 646 210 646 c 0,21,22
 228 646 228 646 240.5 632.5 c 128,-1,23
 253 619 253 619 253 602 c 0,12,13
40 433 m 1,24,-1
 40 501 l 1,25,-1
 185 501 l 1,26,-1
 185 68 l 1,27,-1
 384 193 l 1,28,-1
 384 433 l 1,29,-1
 335 433 l 1,30,-1
 335 501 l 1,31,-1
 465 501 l 1,32,-1
 465 68 l 1,33,-1
 528 68 l 1,34,-1
 528 0 l 1,35,-1
 384 0 l 1,36,-1
 384 112 l 1,37,-1
 218 8 l 2,38,39
 202 -2 202 -2 182 -2 c 0,40,41
 167 -2 167 -2 153 1.5 c 128,-1,42
 139 5 139 5 128 13.5 c 128,-1,43
 117 22 117 22 110.5 37 c 128,-1,44
 104 52 104 52 104 75 c 2,45,-1
 104 433 l 1,46,-1
 40 433 l 1,24,-1
EndSplineSet
EndChar

StartChar: Ecircumflex
Encoding: 202 202 187
Width: 584
Flags: W
LayerCount: 2
Fore
SplineSet
435 809 m 1,0,-1
 362 809 l 1,1,-1
 293 889 l 1,2,-1
 223 809 l 1,3,-1
 149 809 l 1,4,-1
 261 932 l 1,5,-1
 328 932 l 1,6,-1
 435 809 l 1,0,-1
65 326 m 1,7,-1
 128 366 l 1,8,-1
 128 682 l 1,9,-1
 65 682 l 1,10,-1
 65 750 l 1,11,-1
 534 750 l 1,12,-1
 534 565 l 1,13,-1
 466 565 l 1,14,-1
 466 682 l 1,15,-1
 210 682 l 1,16,-1
 210 416 l 1,17,-1
 382 525 l 1,18,-1
 382 444 l 1,19,-1
 210 337 l 1,20,-1
 210 68 l 1,21,-1
 466 68 l 1,22,-1
 466 185 l 1,23,-1
 534 185 l 1,24,-1
 534 0 l 1,25,-1
 65 0 l 1,26,-1
 65 68 l 1,27,-1
 128 68 l 1,28,-1
 128 285 l 1,29,-1
 65 245 l 1,30,-1
 65 326 l 1,7,-1
EndSplineSet
EndChar

StartChar: Egrave
Encoding: 200 200 188
Width: 584
Flags: W
LayerCount: 2
Fore
SplineSet
381 809 m 1,0,-1
 308 809 l 1,1,-1
 203 932 l 1,2,-1
 274 932 l 1,3,-1
 381 809 l 1,0,-1
65 326 m 1,4,-1
 128 366 l 1,5,-1
 128 682 l 1,6,-1
 65 682 l 1,7,-1
 65 750 l 1,8,-1
 534 750 l 1,9,-1
 534 565 l 1,10,-1
 466 565 l 1,11,-1
 466 682 l 1,12,-1
 210 682 l 1,13,-1
 210 416 l 1,14,-1
 382 525 l 1,15,-1
 382 444 l 1,16,-1
 210 337 l 1,17,-1
 210 68 l 1,18,-1
 466 68 l 1,19,-1
 466 185 l 1,20,-1
 534 185 l 1,21,-1
 534 0 l 1,22,-1
 65 0 l 1,23,-1
 65 68 l 1,24,-1
 128 68 l 1,25,-1
 128 285 l 1,26,-1
 65 245 l 1,27,-1
 65 326 l 1,4,-1
EndSplineSet
EndChar

StartChar: Idieresis
Encoding: 207 207 189
Width: 370
Flags: W
LayerCount: 2
Fore
SplineSet
302 852 m 0,0,1
 302 833 302 833 289.5 820.5 c 128,-1,2
 277 808 277 808 258 808 c 0,3,4
 241 808 241 808 228.5 820.5 c 128,-1,5
 216 833 216 833 216 852 c 0,6,7
 216 869 216 869 229 882.5 c 128,-1,8
 242 896 242 896 259 896 c 0,9,10
 277 896 277 896 289.5 882.5 c 128,-1,11
 302 869 302 869 302 852 c 0,0,1
154 852 m 0,12,13
 154 833 154 833 141.5 820.5 c 128,-1,14
 129 808 129 808 110 808 c 0,15,16
 93 808 93 808 80.5 820.5 c 128,-1,17
 68 833 68 833 68 852 c 0,18,19
 68 869 68 869 81 882.5 c 128,-1,20
 94 896 94 896 111 896 c 0,21,22
 129 896 129 896 141.5 882.5 c 128,-1,23
 154 869 154 869 154 852 c 0,12,13
225 68 m 1,24,-1
 290 68 l 1,25,-1
 290 0 l 1,26,-1
 80 0 l 1,27,-1
 80 68 l 1,28,-1
 143 68 l 1,29,-1
 143 682 l 1,30,-1
 80 682 l 1,31,-1
 80 750 l 1,32,-1
 290 750 l 1,33,-1
 290 682 l 1,34,-1
 225 682 l 1,35,-1
 225 68 l 1,24,-1
EndSplineSet
EndChar

StartChar: Igrave
Encoding: 204 204 190
Width: 370
Flags: W
LayerCount: 2
Fore
SplineSet
274 809 m 1,0,-1
 201 809 l 1,1,-1
 96 932 l 1,2,-1
 167 932 l 1,3,-1
 274 809 l 1,0,-1
225 68 m 1,4,-1
 290 68 l 1,5,-1
 290 0 l 1,6,-1
 80 0 l 1,7,-1
 80 68 l 1,8,-1
 143 68 l 1,9,-1
 143 682 l 1,10,-1
 80 682 l 1,11,-1
 80 750 l 1,12,-1
 290 750 l 1,13,-1
 290 682 l 1,14,-1
 225 682 l 1,15,-1
 225 68 l 1,4,-1
EndSplineSet
EndChar

StartChar: Ograve
Encoding: 210 210 191
Width: 542
Flags: W
LayerCount: 2
Fore
SplineSet
360 809 m 1,0,-1
 287 809 l 1,1,-1
 182 932 l 1,2,-1
 253 932 l 1,3,-1
 360 809 l 1,0,-1
140 68 m 1,4,-1
 402 68 l 1,5,-1
 402 682 l 1,6,-1
 140 682 l 1,7,-1
 140 68 l 1,4,-1
366 750 m 2,8,9
 427 750 427 750 454.5 716.5 c 128,-1,10
 482 683 482 683 482 617 c 2,11,-1
 482 136 l 2,12,13
 482 64 482 64 458 32 c 128,-1,14
 434 0 434 0 371 0 c 2,15,-1
 179 0 l 2,16,17
 144 0 144 0 121.5 8.5 c 128,-1,18
 99 17 99 17 85 33 c 128,-1,19
 71 49 71 49 65.5 71.5 c 128,-1,20
 60 94 60 94 60 121 c 2,21,-1
 60 617 l 2,22,23
 60 648 60 648 64.5 672.5 c 128,-1,24
 69 697 69 697 81.5 714.5 c 128,-1,25
 94 732 94 732 115.5 741 c 128,-1,26
 137 750 137 750 171 750 c 2,27,-1
 366 750 l 2,8,9
EndSplineSet
EndChar

StartChar: Ntilde
Encoding: 209 209 192
Width: 719
Flags: W
LayerCount: 2
Fore
SplineSet
524 888 m 1,0,1
 521 879 521 879 511.5 865.5 c 128,-1,2
 502 852 502 852 488.5 840 c 128,-1,3
 475 828 475 828 458.5 819.5 c 128,-1,4
 442 811 442 811 424 811 c 256,5,6
 406 811 406 811 388.5 819.5 c 128,-1,7
 371 828 371 828 354 838 c 128,-1,8
 337 848 337 848 320.5 856.5 c 128,-1,9
 304 865 304 865 288 865 c 0,10,11
 271 865 271 865 260 855 c 128,-1,12
 249 845 249 845 235 816 c 1,13,-1
 194 846 l 1,14,15
 197 855 197 855 206 868 c 128,-1,16
 215 881 215 881 227.5 893 c 128,-1,17
 240 905 240 905 255.5 913.5 c 128,-1,18
 271 922 271 922 287 922 c 0,19,20
 306 922 306 922 326.5 913.5 c 128,-1,21
 347 905 347 905 365.5 894.5 c 128,-1,22
 384 884 384 884 399 875.5 c 128,-1,23
 414 867 414 867 424 867 c 0,24,25
 443 867 443 867 460.5 882 c 128,-1,26
 478 897 478 897 486 916 c 1,27,-1
 524 888 l 1,0,1
654 682 m 1,28,-1
 591 682 l 1,29,-1
 591 0 l 1,30,-1
 493 0 l 1,31,-1
 210 584 l 1,32,-1
 210 68 l 1,33,-1
 275 68 l 1,34,-1
 275 0 l 1,35,-1
 65 0 l 1,36,-1
 65 68 l 1,37,-1
 128 68 l 1,38,-1
 128 682 l 1,39,-1
 65 682 l 1,40,-1
 65 750 l 1,41,-1
 219 750 l 1,42,-1
 509 154 l 1,43,-1
 509 682 l 1,44,-1
 444 682 l 1,45,-1
 444 750 l 1,46,-1
 654 750 l 1,47,-1
 654 682 l 1,28,-1
EndSplineSet
EndChar

StartChar: Otilde
Encoding: 213 213 193
Width: 542
Flags: W
LayerCount: 2
Fore
SplineSet
436 888 m 1,0,1
 433 879 433 879 423.5 865.5 c 128,-1,2
 414 852 414 852 400.5 840 c 128,-1,3
 387 828 387 828 370.5 819.5 c 128,-1,4
 354 811 354 811 336 811 c 256,5,6
 318 811 318 811 300.5 819.5 c 128,-1,7
 283 828 283 828 266 838 c 128,-1,8
 249 848 249 848 232.5 856.5 c 128,-1,9
 216 865 216 865 200 865 c 0,10,11
 183 865 183 865 172 855 c 128,-1,12
 161 845 161 845 147 816 c 1,13,-1
 106 846 l 1,14,15
 109 855 109 855 118 868 c 128,-1,16
 127 881 127 881 139.5 893 c 128,-1,17
 152 905 152 905 167.5 913.5 c 128,-1,18
 183 922 183 922 199 922 c 0,19,20
 218 922 218 922 238.5 913.5 c 128,-1,21
 259 905 259 905 277.5 894.5 c 128,-1,22
 296 884 296 884 311 875.5 c 128,-1,23
 326 867 326 867 336 867 c 0,24,25
 355 867 355 867 372.5 882 c 128,-1,26
 390 897 390 897 398 916 c 1,27,-1
 436 888 l 1,0,1
140 68 m 1,28,-1
 402 68 l 1,29,-1
 402 682 l 1,30,-1
 140 682 l 1,31,-1
 140 68 l 1,28,-1
366 750 m 2,32,33
 427 750 427 750 454.5 716.5 c 128,-1,34
 482 683 482 683 482 617 c 2,35,-1
 482 136 l 2,36,37
 482 64 482 64 458 32 c 128,-1,38
 434 0 434 0 371 0 c 2,39,-1
 179 0 l 2,40,41
 144 0 144 0 121.5 8.5 c 128,-1,42
 99 17 99 17 85 33 c 128,-1,43
 71 49 71 49 65.5 71.5 c 128,-1,44
 60 94 60 94 60 121 c 2,45,-1
 60 617 l 2,46,47
 60 648 60 648 64.5 672.5 c 128,-1,48
 69 697 69 697 81.5 714.5 c 128,-1,49
 94 732 94 732 115.5 741 c 128,-1,50
 137 750 137 750 171 750 c 2,51,-1
 366 750 l 2,32,33
EndSplineSet
EndChar

StartChar: Ucircumflex
Encoding: 219 219 194
Width: 682
Flags: W
LayerCount: 2
Fore
SplineSet
484 809 m 1,0,-1
 411 809 l 1,1,-1
 342 889 l 1,2,-1
 272 809 l 1,3,-1
 198 809 l 1,4,-1
 310 932 l 1,5,-1
 377 932 l 1,6,-1
 484 809 l 1,0,-1
60 750 m 1,7,-1
 270 750 l 1,8,-1
 270 682 l 1,9,-1
 205 682 l 1,10,-1
 205 68 l 1,11,-1
 477 68 l 1,12,-1
 477 682 l 1,13,-1
 412 682 l 1,14,-1
 412 750 l 1,15,-1
 622 750 l 1,16,-1
 622 682 l 1,17,-1
 559 682 l 1,18,-1
 559 104 l 2,19,20
 559 50 559 50 536.5 25 c 128,-1,21
 514 0 514 0 469 0 c 2,22,-1
 212 0 l 2,23,24
 166 0 166 0 144.5 25.5 c 128,-1,25
 123 51 123 51 123 99 c 2,26,-1
 123 682 l 1,27,-1
 60 682 l 1,28,-1
 60 750 l 1,7,-1
EndSplineSet
EndChar

StartChar: Ugrave
Encoding: 217 217 195
Width: 682
Flags: W
LayerCount: 2
Fore
SplineSet
430 809 m 1,0,-1
 357 809 l 1,1,-1
 252 932 l 1,2,-1
 323 932 l 1,3,-1
 430 809 l 1,0,-1
60 750 m 1,4,-1
 270 750 l 1,5,-1
 270 682 l 1,6,-1
 205 682 l 1,7,-1
 205 68 l 1,8,-1
 477 68 l 1,9,-1
 477 682 l 1,10,-1
 412 682 l 1,11,-1
 412 750 l 1,12,-1
 622 750 l 1,13,-1
 622 682 l 1,14,-1
 559 682 l 1,15,-1
 559 104 l 2,16,17
 559 50 559 50 536.5 25 c 128,-1,18
 514 0 514 0 469 0 c 2,19,-1
 212 0 l 2,20,21
 166 0 166 0 144.5 25.5 c 128,-1,22
 123 51 123 51 123 99 c 2,23,-1
 123 682 l 1,24,-1
 60 682 l 1,25,-1
 60 750 l 1,4,-1
EndSplineSet
EndChar

StartChar: ecircumflex
Encoding: 234 234 196
Width: 465
Flags: W
LayerCount: 2
Fore
SplineSet
375 559 m 1,0,-1
 302 559 l 1,1,-1
 233 639 l 1,2,-1
 163 559 l 1,3,-1
 89 559 l 1,4,-1
 201 682 l 1,5,-1
 268 682 l 1,6,-1
 375 559 l 1,0,-1
130 220 m 1,7,-1
 335 349 l 1,8,-1
 335 432 l 1,9,-1
 130 432 l 1,10,-1
 130 220 l 1,7,-1
130 68 m 1,11,-1
 336 68 l 1,12,-1
 336 126 l 1,13,-1
 415 126 l 1,14,-1
 415 73 l 2,15,16
 415 43 415 43 396.5 21.5 c 128,-1,17
 378 0 378 0 335 0 c 2,18,-1
 130 0 l 2,19,20
 87 0 87 0 68.5 21.5 c 128,-1,21
 50 43 50 43 50 73 c 2,22,-1
 50 402 l 2,23,24
 50 451 50 451 74.5 476 c 128,-1,25
 99 501 99 501 153 501 c 2,26,-1
 322 501 l 2,27,28
 371 501 371 501 393 482 c 128,-1,29
 415 463 415 463 415 412 c 2,30,-1
 415 319 l 1,31,-1
 130 139 l 1,32,-1
 130 68 l 1,11,-1
EndSplineSet
EndChar

StartChar: egrave
Encoding: 232 232 197
Width: 465
Flags: W
LayerCount: 2
Fore
SplineSet
321 559 m 1,0,-1
 248 559 l 1,1,-1
 143 682 l 1,2,-1
 214 682 l 1,3,-1
 321 559 l 1,0,-1
130 220 m 1,4,-1
 335 349 l 1,5,-1
 335 432 l 1,6,-1
 130 432 l 1,7,-1
 130 220 l 1,4,-1
130 68 m 1,8,-1
 336 68 l 1,9,-1
 336 126 l 1,10,-1
 415 126 l 1,11,-1
 415 73 l 2,12,13
 415 43 415 43 396.5 21.5 c 128,-1,14
 378 0 378 0 335 0 c 2,15,-1
 130 0 l 2,16,17
 87 0 87 0 68.5 21.5 c 128,-1,18
 50 43 50 43 50 73 c 2,19,-1
 50 402 l 2,20,21
 50 451 50 451 74.5 476 c 128,-1,22
 99 501 99 501 153 501 c 2,23,-1
 322 501 l 2,24,25
 371 501 371 501 393 482 c 128,-1,26
 415 463 415 463 415 412 c 2,27,-1
 415 319 l 1,28,-1
 130 139 l 1,29,-1
 130 68 l 1,8,-1
EndSplineSet
EndChar

StartChar: dotlessi
Encoding: 305 305 198
Width: 300
Flags: W
LayerCount: 2
Fore
SplineSet
195 68 m 1,0,-1
 260 68 l 1,1,-1
 260 0 l 1,2,-1
 50 0 l 1,3,-1
 50 68 l 1,4,-1
 113 68 l 1,5,-1
 113 432 l 1,6,-1
 50 432 l 1,7,-1
 50 500 l 1,8,-1
 195 500 l 1,9,-1
 195 68 l 1,0,-1
EndSplineSet
EndChar

StartChar: igrave
Encoding: 236 236 199
Width: 300
Flags: W
LayerCount: 2
Fore
SplineSet
239 559 m 1,0,-1
 166 559 l 1,1,-1
 61 682 l 1,2,-1
 132 682 l 1,3,-1
 239 559 l 1,0,-1
195 68 m 1,4,-1
 260 68 l 1,5,-1
 260 0 l 1,6,-1
 50 0 l 1,7,-1
 50 68 l 1,8,-1
 113 68 l 1,9,-1
 113 432 l 1,10,-1
 50 432 l 1,11,-1
 50 500 l 1,12,-1
 195 500 l 1,13,-1
 195 68 l 1,4,-1
EndSplineSet
EndChar

StartChar: idieresis
Encoding: 239 239 200
Width: 300
Flags: W
LayerCount: 2
Fore
SplineSet
267 602 m 0,0,1
 267 583 267 583 254.5 570.5 c 128,-1,2
 242 558 242 558 223 558 c 0,3,4
 206 558 206 558 193.5 570.5 c 128,-1,5
 181 583 181 583 181 602 c 0,6,7
 181 619 181 619 194 632.5 c 128,-1,8
 207 646 207 646 224 646 c 0,9,10
 242 646 242 646 254.5 632.5 c 128,-1,11
 267 619 267 619 267 602 c 0,0,1
119 602 m 0,12,13
 119 583 119 583 106.5 570.5 c 128,-1,14
 94 558 94 558 75 558 c 0,15,16
 58 558 58 558 45.5 570.5 c 128,-1,17
 33 583 33 583 33 602 c 0,18,19
 33 619 33 619 46 632.5 c 128,-1,20
 59 646 59 646 76 646 c 0,21,22
 94 646 94 646 106.5 632.5 c 128,-1,23
 119 619 119 619 119 602 c 0,12,13
195 68 m 1,24,-1
 260 68 l 1,25,-1
 260 0 l 1,26,-1
 50 0 l 1,27,-1
 50 68 l 1,28,-1
 113 68 l 1,29,-1
 113 432 l 1,30,-1
 50 432 l 1,31,-1
 50 500 l 1,32,-1
 195 500 l 1,33,-1
 195 68 l 1,24,-1
EndSplineSet
EndChar

StartChar: ntilde
Encoding: 241 241 201
Width: 568
Flags: W
LayerCount: 2
Fore
SplineSet
449 638 m 1,0,1
 446 629 446 629 436.5 615.5 c 128,-1,2
 427 602 427 602 413.5 590 c 128,-1,3
 400 578 400 578 383.5 569.5 c 128,-1,4
 367 561 367 561 349 561 c 256,5,6
 331 561 331 561 313.5 569.5 c 128,-1,7
 296 578 296 578 279 588 c 128,-1,8
 262 598 262 598 245.5 606.5 c 128,-1,9
 229 615 229 615 213 615 c 0,10,11
 196 615 196 615 185 605 c 128,-1,12
 174 595 174 595 160 566 c 1,13,-1
 119 596 l 1,14,15
 122 605 122 605 131 618 c 128,-1,16
 140 631 140 631 152.5 643 c 128,-1,17
 165 655 165 655 180.5 663.5 c 128,-1,18
 196 672 196 672 212 672 c 0,19,20
 231 672 231 672 251.5 663.5 c 128,-1,21
 272 655 272 655 290.5 644.5 c 128,-1,22
 309 634 309 634 324 625.5 c 128,-1,23
 339 617 339 617 349 617 c 0,24,25
 368 617 368 617 385.5 632 c 128,-1,26
 403 647 403 647 411 666 c 1,27,-1
 449 638 l 1,0,1
528 68 m 1,28,-1
 528 0 l 1,29,-1
 335 0 l 1,30,-1
 335 68 l 1,31,-1
 383 68 l 1,32,-1
 383 440 l 1,33,-1
 184 315 l 1,34,-1
 184 68 l 1,35,-1
 233 68 l 1,36,-1
 233 0 l 1,37,-1
 40 0 l 1,38,-1
 40 68 l 1,39,-1
 103 68 l 1,40,-1
 103 433 l 1,41,-1
 40 433 l 1,42,-1
 40 500 l 1,43,-1
 184 500 l 1,44,-1
 184 396 l 1,45,-1
 350 500 l 2,46,47
 366 510 366 510 386 510 c 0,48,49
 401 510 401 510 415 506.5 c 128,-1,50
 429 503 429 503 440 494.5 c 128,-1,51
 451 486 451 486 457.5 471 c 128,-1,52
 464 456 464 456 464 433 c 2,53,-1
 464 68 l 1,54,-1
 528 68 l 1,28,-1
EndSplineSet
EndChar

StartChar: ograve
Encoding: 242 242 202
Width: 451
Flags: W
LayerCount: 2
Fore
SplineSet
314 559 m 1,0,-1
 241 559 l 1,1,-1
 136 682 l 1,2,-1
 207 682 l 1,3,-1
 314 559 l 1,0,-1
121 68 m 1,4,-1
 330 68 l 1,5,-1
 330 432 l 1,6,-1
 121 432 l 1,7,-1
 121 68 l 1,4,-1
133 0 m 2,8,9
 82 0 82 0 61 23.5 c 128,-1,10
 40 47 40 47 40 89 c 2,11,-1
 40 411 l 2,12,13
 40 451 40 451 58.5 475.5 c 128,-1,14
 77 500 77 500 133 500 c 2,15,-1
 318 500 l 2,16,17
 373 500 373 500 392 475.5 c 128,-1,18
 411 451 411 451 411 411 c 2,19,-1
 411 89 l 2,20,21
 411 47 411 47 390 23.5 c 128,-1,22
 369 0 369 0 318 0 c 2,23,-1
 133 0 l 2,8,9
EndSplineSet
EndChar

StartChar: otilde
Encoding: 245 245 203
Width: 451
Flags: W
LayerCount: 2
Fore
SplineSet
390 638 m 1,0,1
 387 629 387 629 377.5 615.5 c 128,-1,2
 368 602 368 602 354.5 590 c 128,-1,3
 341 578 341 578 324.5 569.5 c 128,-1,4
 308 561 308 561 290 561 c 256,5,6
 272 561 272 561 254.5 569.5 c 128,-1,7
 237 578 237 578 220 588 c 128,-1,8
 203 598 203 598 186.5 606.5 c 128,-1,9
 170 615 170 615 154 615 c 0,10,11
 137 615 137 615 126 605 c 128,-1,12
 115 595 115 595 101 566 c 1,13,-1
 60 596 l 1,14,15
 63 605 63 605 72 618 c 128,-1,16
 81 631 81 631 93.5 643 c 128,-1,17
 106 655 106 655 121.5 663.5 c 128,-1,18
 137 672 137 672 153 672 c 0,19,20
 172 672 172 672 192.5 663.5 c 128,-1,21
 213 655 213 655 231.5 644.5 c 128,-1,22
 250 634 250 634 265 625.5 c 128,-1,23
 280 617 280 617 290 617 c 0,24,25
 309 617 309 617 326.5 632 c 128,-1,26
 344 647 344 647 352 666 c 1,27,-1
 390 638 l 1,0,1
121 68 m 1,28,-1
 330 68 l 1,29,-1
 330 432 l 1,30,-1
 121 432 l 1,31,-1
 121 68 l 1,28,-1
133 0 m 2,32,33
 82 0 82 0 61 23.5 c 128,-1,34
 40 47 40 47 40 89 c 2,35,-1
 40 411 l 2,36,37
 40 451 40 451 58.5 475.5 c 128,-1,38
 77 500 77 500 133 500 c 2,39,-1
 318 500 l 2,40,41
 373 500 373 500 392 475.5 c 128,-1,42
 411 451 411 451 411 411 c 2,43,-1
 411 89 l 2,44,45
 411 47 411 47 390 23.5 c 128,-1,46
 369 0 369 0 318 0 c 2,47,-1
 133 0 l 2,32,33
EndSplineSet
EndChar

StartChar: ucircumflex
Encoding: 251 251 204
Width: 568
Flags: W
LayerCount: 2
Fore
SplineSet
427 559 m 1,0,-1
 354 559 l 1,1,-1
 285 639 l 1,2,-1
 215 559 l 1,3,-1
 141 559 l 1,4,-1
 253 682 l 1,5,-1
 320 682 l 1,6,-1
 427 559 l 1,0,-1
40 433 m 1,7,-1
 40 501 l 1,8,-1
 185 501 l 1,9,-1
 185 68 l 1,10,-1
 384 193 l 1,11,-1
 384 433 l 1,12,-1
 335 433 l 1,13,-1
 335 501 l 1,14,-1
 465 501 l 1,15,-1
 465 68 l 1,16,-1
 528 68 l 1,17,-1
 528 0 l 1,18,-1
 384 0 l 1,19,-1
 384 112 l 1,20,-1
 218 8 l 2,21,22
 202 -2 202 -2 182 -2 c 0,23,24
 167 -2 167 -2 153 1.5 c 128,-1,25
 139 5 139 5 128 13.5 c 128,-1,26
 117 22 117 22 110.5 37 c 128,-1,27
 104 52 104 52 104 75 c 2,28,-1
 104 433 l 1,29,-1
 40 433 l 1,7,-1
EndSplineSet
EndChar

StartChar: ugrave
Encoding: 249 249 205
Width: 568
Flags: W
LayerCount: 2
Fore
SplineSet
373 559 m 1,0,-1
 300 559 l 1,1,-1
 195 682 l 1,2,-1
 266 682 l 1,3,-1
 373 559 l 1,0,-1
40 433 m 1,4,-1
 40 501 l 1,5,-1
 185 501 l 1,6,-1
 185 68 l 1,7,-1
 384 193 l 1,8,-1
 384 433 l 1,9,-1
 335 433 l 1,10,-1
 335 501 l 1,11,-1
 465 501 l 1,12,-1
 465 68 l 1,13,-1
 528 68 l 1,14,-1
 528 0 l 1,15,-1
 384 0 l 1,16,-1
 384 112 l 1,17,-1
 218 8 l 2,18,19
 202 -2 202 -2 182 -2 c 0,20,21
 167 -2 167 -2 153 1.5 c 128,-1,22
 139 5 139 5 128 13.5 c 128,-1,23
 117 22 117 22 110.5 37 c 128,-1,24
 104 52 104 52 104 75 c 2,25,-1
 104 433 l 1,26,-1
 40 433 l 1,4,-1
EndSplineSet
EndChar

StartChar: ydieresis
Encoding: 255 255 206
Width: 515
Flags: W
LayerCount: 2
Fore
SplineSet
374 602 m 0,0,1
 374 583 374 583 361.5 570.5 c 128,-1,2
 349 558 349 558 330 558 c 0,3,4
 313 558 313 558 300.5 570.5 c 128,-1,5
 288 583 288 583 288 602 c 0,6,7
 288 619 288 619 301 632.5 c 128,-1,8
 314 646 314 646 331 646 c 0,9,10
 349 646 349 646 361.5 632.5 c 128,-1,11
 374 619 374 619 374 602 c 0,0,1
226 602 m 0,12,13
 226 583 226 583 213.5 570.5 c 128,-1,14
 201 558 201 558 182 558 c 0,15,16
 165 558 165 558 152.5 570.5 c 128,-1,17
 140 583 140 583 140 602 c 0,18,19
 140 619 140 619 153 632.5 c 128,-1,20
 166 646 166 646 183 646 c 0,21,22
 201 646 201 646 213.5 632.5 c 128,-1,23
 226 619 226 619 226 602 c 0,12,13
465 500 m 1,24,-1
 465 -133 l 2,25,26
 465 -175 465 -175 444.5 -197 c 128,-1,27
 424 -219 424 -219 373 -219 c 2,28,-1
 142 -219 l 1,29,-1
 142 -83 l 1,30,-1
 210 -83 l 1,31,-1
 210 -150 l 1,32,-1
 383 -150 l 1,33,-1
 383 113 l 1,34,-1
 207 4 l 2,35,36
 184 -10 184 -10 161 -10 c 256,37,38
 138 -10 138 -10 121 5.5 c 128,-1,39
 104 21 104 21 104 55 c 2,40,-1
 104 432 l 1,41,-1
 40 432 l 1,42,-1
 40 500 l 1,43,-1
 185 500 l 1,44,-1
 185 69 l 1,45,-1
 384 194 l 1,46,-1
 384 432 l 1,47,-1
 335 432 l 1,48,-1
 335 500 l 1,49,-1
 465 500 l 1,24,-1
EndSplineSet
EndChar

StartChar: uni0410
Encoding: 1040 1040 207
Width: 641
Flags: W
LayerCount: 2
Fore
SplineSet
616 68 m 1,0,-1
 616 0 l 1,1,-1
 421 0 l 1,2,-1
 421 68 l 1,3,-1
 475 68 l 1,4,-1
 425 267 l 1,5,-1
 215 267 l 1,6,-1
 165 68 l 1,7,-1
 220 68 l 1,8,-1
 220 0 l 1,9,-1
 25 0 l 1,10,-1
 25 68 l 1,11,-1
 88 68 l 1,12,-1
 262 750 l 1,13,-1
 380 750 l 1,14,-1
 551 68 l 1,15,-1
 616 68 l 1,0,-1
409 330 m 1,16,-1
 320 682 l 1,17,-1
 231 330 l 1,18,-1
 409 330 l 1,16,-1
EndSplineSet
EndChar

StartChar: uni0411
Encoding: 1041 1041 208
Width: 598
Flags: W
LayerCount: 2
Fore
SplineSet
456 273 m 1,0,-1
 205 431 l 1,1,-1
 205 68 l 1,2,-1
 456 68 l 1,3,-1
 456 273 l 1,0,-1
435 368 m 2,4,5
 484 338 484 338 511 303.5 c 128,-1,6
 538 269 538 269 538 226 c 2,7,-1
 538 118 l 2,8,9
 538 83 538 83 531.5 60.5 c 128,-1,10
 525 38 525 38 510.5 24.5 c 128,-1,11
 496 11 496 11 474 5.5 c 128,-1,12
 452 0 452 0 421 0 c 2,13,-1
 60 0 l 1,14,-1
 60 68 l 1,15,-1
 123 68 l 1,16,-1
 123 682 l 1,17,-1
 60 682 l 1,18,-1
 60 750 l 1,19,-1
 512 750 l 1,20,-1
 512 565 l 1,21,-1
 444 565 l 1,22,-1
 444 682 l 1,23,-1
 205 682 l 1,24,-1
 205 513 l 1,25,-1
 435 368 l 2,4,5
EndSplineSet
EndChar

StartChar: uni0413
Encoding: 1043 1043 209
Width: 518
Flags: W
LayerCount: 2
Fore
SplineSet
205 68 m 1,0,-1
 270 68 l 1,1,-1
 270 0 l 1,2,-1
 60 0 l 1,3,-1
 60 68 l 1,4,-1
 123 68 l 1,5,-1
 123 682 l 1,6,-1
 60 682 l 1,7,-1
 60 750 l 1,8,-1
 493 750 l 1,9,-1
 493 565 l 1,10,-1
 425 565 l 1,11,-1
 425 682 l 1,12,-1
 205 682 l 1,13,-1
 205 68 l 1,0,-1
EndSplineSet
EndChar

StartChar: uni0414
Encoding: 1044 1044 210
Width: 659
Flags: W
LayerCount: 2
Fore
SplineSet
469 682 m 1,0,-1
 413 682 l 1,1,-1
 197 68 l 1,2,-1
 469 68 l 1,3,-1
 469 682 l 1,0,-1
335 682 m 1,4,-1
 257 682 l 1,5,-1
 257 750 l 1,6,-1
 550 750 l 1,7,-1
 550 68 l 1,8,-1
 629 68 l 1,9,-1
 629 -150 l 1,10,-1
 549 -150 l 1,11,-1
 549 0 l 1,12,-1
 110 0 l 1,13,-1
 110 -150 l 1,14,-1
 30 -150 l 1,15,-1
 30 68 l 1,16,-1
 117 68 l 1,17,-1
 335 682 l 1,4,-1
EndSplineSet
EndChar

StartChar: uni041A
Encoding: 1050 1050 211
Width: 585
Flags: W
LayerCount: 2
Fore
SplineSet
560 68 m 1,0,-1
 560 0 l 1,1,-1
 446 0 l 1,2,-1
 195 373 l 1,3,-1
 195 68 l 1,4,-1
 260 68 l 1,5,-1
 260 0 l 1,6,-1
 50 0 l 1,7,-1
 50 68 l 1,8,-1
 113 68 l 1,9,-1
 113 682 l 1,10,-1
 50 682 l 1,11,-1
 50 750 l 1,12,-1
 260 750 l 1,13,-1
 260 682 l 1,14,-1
 191 682 l 1,15,-1
 191 403 l 1,16,-1
 446 750 l 1,17,-1
 554 750 l 1,18,-1
 554 682 l 1,19,-1
 487 682 l 1,20,-1
 279 390 l 1,21,-1
 496 68 l 1,22,-1
 560 68 l 1,0,-1
EndSplineSet
EndChar

StartChar: uni0416
Encoding: 1046 1046 212
Width: 798
Flags: W
LayerCount: 2
Fore
SplineSet
768 68 m 1,0,-1
 768 0 l 1,1,-1
 666 0 l 1,2,-1
 440 373 l 1,3,-1
 440 68 l 1,4,-1
 505 68 l 1,5,-1
 505 0 l 1,6,-1
 295 0 l 1,7,-1
 295 68 l 1,8,-1
 358 68 l 1,9,-1
 358 372 l 1,10,-1
 132 0 l 1,11,-1
 30 0 l 1,12,-1
 30 68 l 1,13,-1
 87 68 l 1,14,-1
 283 390 l 1,15,-1
 96 682 l 1,16,-1
 35 682 l 1,17,-1
 35 750 l 1,18,-1
 132 750 l 1,19,-1
 358 409 l 1,20,-1
 358 682 l 1,21,-1
 295 682 l 1,22,-1
 295 750 l 1,23,-1
 505 750 l 1,24,-1
 505 682 l 1,25,-1
 440 682 l 1,26,-1
 440 409 l 1,27,-1
 666 750 l 1,28,-1
 763 750 l 1,29,-1
 763 682 l 1,30,-1
 703 682 l 1,31,-1
 515 390 l 1,32,-1
 711 68 l 1,33,-1
 768 68 l 1,0,-1
EndSplineSet
EndChar

StartChar: uni0417
Encoding: 1047 1047 213
Width: 545
Flags: W
LayerCount: 2
Fore
SplineSet
465 502 m 2,0,1
 465 463 465 463 446.5 437 c 128,-1,2
 428 411 428 411 405 409 c 1,3,4
 417 408 417 408 431 401 c 128,-1,5
 445 394 445 394 457 381 c 128,-1,6
 469 368 469 368 477 348.5 c 128,-1,7
 485 329 485 329 485 304 c 2,8,-1
 485 134 l 2,9,10
 485 68 485 68 452 34 c 128,-1,11
 419 0 419 0 344 0 c 2,12,-1
 197 0 l 2,13,14
 120 0 120 0 90 34.5 c 128,-1,15
 60 69 60 69 60 134 c 2,16,-1
 60 230 l 1,17,-1
 142 230 l 1,18,-1
 142 68 l 1,19,-1
 403 68 l 1,20,-1
 403 367 l 1,21,-1
 257 367 l 1,22,-1
 257 443 l 1,23,-1
 388 443 l 1,24,-1
 388 687 l 1,25,-1
 137 687 l 1,26,-1
 137 563 l 1,27,-1
 60 563 l 1,28,-1
 60 631 l 2,29,30
 60 656 60 656 66 677.5 c 128,-1,31
 72 699 72 699 85.5 715 c 128,-1,32
 99 731 99 731 121 740.5 c 128,-1,33
 143 750 143 750 175 750 c 2,34,-1
 352 750 l 2,35,36
 383 750 383 750 404.5 740.5 c 128,-1,37
 426 731 426 731 439.5 715 c 128,-1,38
 453 699 453 699 459 677.5 c 128,-1,39
 465 656 465 656 465 631 c 2,40,-1
 465 502 l 2,0,1
EndSplineSet
EndChar

StartChar: uni0418
Encoding: 1048 1048 214
Width: 665
Flags: W
LayerCount: 2
Fore
SplineSet
550 68 m 1,0,-1
 615 68 l 1,1,-1
 615 0 l 1,2,-1
 468 0 l 1,3,-1
 468 555 l 1,4,-1
 168 0 l 1,5,-1
 50 0 l 1,6,-1
 50 68 l 1,7,-1
 114 68 l 1,8,-1
 114 682 l 1,9,-1
 50 682 l 1,10,-1
 50 750 l 1,11,-1
 195 750 l 1,12,-1
 195 201 l 1,13,-1
 492 750 l 1,14,-1
 615 750 l 1,15,-1
 615 682 l 1,16,-1
 550 682 l 1,17,-1
 550 68 l 1,0,-1
EndSplineSet
EndChar

StartChar: uni041B
Encoding: 1051 1051 215
Width: 636
Flags: W
LayerCount: 2
Fore
SplineSet
601 69 m 1,0,-1
 601 0 l 1,1,-1
 401 0 l 1,2,-1
 401 69 l 1,3,-1
 460 69 l 1,4,-1
 460 682 l 1,5,-1
 405 682 l 1,6,-1
 199 99 l 1,7,8
 187 54 187 54 159.5 27 c 128,-1,9
 132 0 132 0 83 0 c 2,10,-1
 25 0 l 1,11,-1
 25 68 l 1,12,-1
 112 68 l 1,13,-1
 330 682 l 1,14,-1
 251 682 l 1,15,-1
 251 750 l 1,16,-1
 542 750 l 1,17,-1
 542 69 l 1,18,-1
 601 69 l 1,0,-1
EndSplineSet
EndChar

StartChar: uni041D
Encoding: 1053 1053 216
Width: 668
Flags: W
LayerCount: 2
Fore
SplineSet
555 682 m 1,0,-1
 555 68 l 1,1,-1
 618 68 l 1,2,-1
 618 0 l 1,3,-1
 412 0 l 1,4,-1
 412 68 l 1,5,-1
 473 68 l 1,6,-1
 473 354 l 1,7,-1
 195 354 l 1,8,-1
 195 68 l 1,9,-1
 256 68 l 1,10,-1
 256 0 l 1,11,-1
 50 0 l 1,12,-1
 50 68 l 1,13,-1
 113 68 l 1,14,-1
 113 682 l 1,15,-1
 50 682 l 1,16,-1
 50 750 l 1,17,-1
 256 750 l 1,18,-1
 256 682 l 1,19,-1
 195 682 l 1,20,-1
 195 421 l 1,21,-1
 473 421 l 1,22,-1
 473 682 l 1,23,-1
 412 682 l 1,24,-1
 412 750 l 1,25,-1
 618 750 l 1,26,-1
 618 682 l 1,27,-1
 555 682 l 1,0,-1
EndSplineSet
EndChar

StartChar: uni041E
Encoding: 1054 1054 217
Width: 542
Flags: W
LayerCount: 2
Fore
SplineSet
140 68 m 1,0,-1
 402 68 l 1,1,-1
 402 682 l 1,2,-1
 140 682 l 1,3,-1
 140 68 l 1,0,-1
366 750 m 2,4,5
 427 750 427 750 454.5 716.5 c 128,-1,6
 482 683 482 683 482 617 c 2,7,-1
 482 136 l 2,8,9
 482 64 482 64 458 32 c 128,-1,10
 434 0 434 0 371 0 c 2,11,-1
 179 0 l 2,12,13
 144 0 144 0 121.5 8.5 c 128,-1,14
 99 17 99 17 85 33 c 128,-1,15
 71 49 71 49 65.5 71.5 c 128,-1,16
 60 94 60 94 60 121 c 2,17,-1
 60 617 l 2,18,19
 60 648 60 648 64.5 672.5 c 128,-1,20
 69 697 69 697 81.5 714.5 c 128,-1,21
 94 732 94 732 115.5 741 c 128,-1,22
 137 750 137 750 171 750 c 2,23,-1
 366 750 l 2,4,5
EndSplineSet
EndChar

StartChar: uni0420
Encoding: 1056 1056 218
Width: 579
Flags: W
LayerCount: 2
Fore
SplineSet
446 681 m 1,0,-1
 195 681 l 1,1,-1
 195 358 l 1,2,-1
 446 513 l 1,3,-1
 446 681 l 1,0,-1
407 750 m 2,4,5
 440 750 440 750 461.5 744.5 c 128,-1,6
 483 739 483 739 496 725 c 128,-1,7
 509 711 509 711 514 687 c 128,-1,8
 519 663 519 663 519 626 c 2,9,-1
 519 553 l 2,10,11
 519 522 519 522 513.5 503 c 128,-1,12
 508 484 508 484 495.5 470.5 c 128,-1,13
 483 457 483 457 463.5 445 c 128,-1,14
 444 433 444 433 416 416 c 2,15,-1
 195 278 l 1,16,-1
 195 68 l 1,17,-1
 260 68 l 1,18,-1
 260 0 l 1,19,-1
 50 0 l 1,20,-1
 50 68 l 1,21,-1
 113 68 l 1,22,-1
 113 681 l 1,23,-1
 50 681 l 1,24,-1
 50 750 l 1,25,-1
 407 750 l 2,4,5
EndSplineSet
EndChar

StartChar: uni0421
Encoding: 1057 1057 219
Width: 535
Flags: W
LayerCount: 2
Fore
SplineSet
407 185 m 1,0,-1
 475 185 l 1,1,-1
 475 0 l 1,2,-1
 168 0 l 2,3,4
 138 0 138 0 117 8.5 c 128,-1,5
 96 17 96 17 83.5 31.5 c 128,-1,6
 71 46 71 46 65.5 65.5 c 128,-1,7
 60 85 60 85 60 107 c 2,8,-1
 60 642 l 2,9,10
 60 661 60 661 65 680.5 c 128,-1,11
 70 700 70 700 81 715.5 c 128,-1,12
 92 731 92 731 111 740.5 c 128,-1,13
 130 750 130 750 158 750 c 2,14,-1
 475 750 l 1,15,-1
 475 565 l 1,16,-1
 407 565 l 1,17,-1
 407 682 l 1,18,-1
 142 682 l 1,19,-1
 142 68 l 1,20,-1
 407 68 l 1,21,-1
 407 185 l 1,0,-1
EndSplineSet
EndChar

StartChar: uni0422
Encoding: 1058 1058 220
Width: 529
Flags: W
LayerCount: 2
Fore
SplineSet
160 68 m 1,0,-1
 223 68 l 1,1,-1
 223 682 l 1,2,-1
 97 682 l 1,3,-1
 97 564 l 1,4,-1
 25 564 l 1,5,-1
 25 750 l 1,6,-1
 504 750 l 1,7,-1
 504 564 l 1,8,-1
 431 564 l 1,9,-1
 431 682 l 1,10,-1
 305 682 l 1,11,-1
 305 68 l 1,12,-1
 370 68 l 1,13,-1
 370 0 l 1,14,-1
 160 0 l 1,15,-1
 160 68 l 1,0,-1
EndSplineSet
EndChar

StartChar: uni041F
Encoding: 1055 1055 221
Width: 678
Flags: W
LayerCount: 2
Fore
SplineSet
555 682 m 1,0,-1
 555 68 l 1,1,-1
 618 68 l 1,2,-1
 618 0 l 1,3,-1
 412 0 l 1,4,-1
 412 68 l 1,5,-1
 473 68 l 1,6,-1
 473 682 l 1,7,-1
 205 682 l 1,8,-1
 205 68 l 1,9,-1
 266 68 l 1,10,-1
 266 0 l 1,11,-1
 60 0 l 1,12,-1
 60 68 l 1,13,-1
 123 68 l 1,14,-1
 123 682 l 1,15,-1
 60 682 l 1,16,-1
 60 750 l 1,17,-1
 618 750 l 1,18,-1
 618 682 l 1,19,-1
 555 682 l 1,0,-1
EndSplineSet
EndChar

StartChar: uni0423
Encoding: 1059 1059 222
Width: 596
Flags: W
LayerCount: 2
Fore
SplineSet
76 682 m 1,0,-1
 25 682 l 1,1,-1
 25 750 l 1,2,-1
 199 750 l 1,3,-1
 199 682 l 1,4,-1
 147 682 l 1,5,-1
 297 263 l 1,6,-1
 445 682 l 1,7,-1
 378 682 l 1,8,-1
 378 750 l 1,9,-1
 571 750 l 1,10,-1
 571 682 l 1,11,-1
 518 682 l 1,12,-1
 312 99 l 2,13,14
 295 52 295 52 270 26 c 128,-1,15
 245 0 245 0 196 0 c 2,16,-1
 140 0 l 1,17,-1
 140 68 l 1,18,-1
 227 68 l 1,19,-1
 260 161 l 1,20,-1
 76 682 l 1,0,-1
EndSplineSet
EndChar

StartChar: uni0424
Encoding: 1060 1060 223
Width: 671
Flags: W
LayerCount: 2
Fore
SplineSet
549 562 m 1,0,-1
 373 562 l 1,1,-1
 373 204 l 1,2,-1
 549 204 l 1,3,-1
 549 562 l 1,0,-1
297 204 m 1,4,-1
 297 562 l 1,5,-1
 121 562 l 1,6,-1
 121 204 l 1,7,-1
 297 204 l 1,4,-1
513 628 m 2,8,9
 550 628 550 628 573.5 618.5 c 128,-1,10
 597 609 597 609 609.5 591 c 128,-1,11
 622 573 622 573 626.5 547.5 c 128,-1,12
 631 522 631 522 631 490 c 2,13,-1
 631 263 l 2,14,15
 631 228 631 228 624.5 204 c 128,-1,16
 618 180 618 180 603 164.5 c 128,-1,17
 588 149 588 149 562.5 142 c 128,-1,18
 537 135 537 135 499 135 c 2,19,-1
 375 135 l 1,20,-1
 375 68 l 1,21,-1
 444 68 l 1,22,-1
 444 0 l 1,23,-1
 232 0 l 1,24,-1
 232 68 l 1,25,-1
 297 68 l 1,26,-1
 297 135 l 1,27,-1
 171 135 l 2,28,29
 96 135 96 135 68 164.5 c 128,-1,30
 40 194 40 194 40 263 c 2,31,-1
 40 490 l 2,32,33
 40 522 40 522 44.5 547.5 c 128,-1,34
 49 573 49 573 61.5 591 c 128,-1,35
 74 609 74 609 97 618.5 c 128,-1,36
 120 628 120 628 157 628 c 2,37,-1
 297 628 l 1,38,-1
 297 681 l 1,39,-1
 230 681 l 1,40,-1
 230 749 l 1,41,-1
 440 749 l 1,42,-1
 440 681 l 1,43,-1
 373 681 l 1,44,-1
 373 628 l 1,45,-1
 513 628 l 2,8,9
EndSplineSet
EndChar

StartChar: uni0425
Encoding: 1061 1061 224
Width: 590
Flags: W
LayerCount: 2
Fore
SplineSet
565 68 m 1,0,-1
 565 0 l 1,1,-1
 461 0 l 1,2,-1
 296 312 l 1,3,-1
 131 0 l 1,4,-1
 25 0 l 1,5,-1
 25 68 l 1,6,-1
 82 68 l 1,7,-1
 253 394 l 1,8,-1
 102 682 l 1,9,-1
 42 682 l 1,10,-1
 42 750 l 1,11,-1
 152 750 l 1,12,-1
 295 474 l 1,13,-1
 440 750 l 1,14,-1
 548 750 l 1,15,-1
 548 682 l 1,16,-1
 489 682 l 1,17,-1
 337 394 l 1,18,-1
 510 68 l 1,19,-1
 565 68 l 1,0,-1
EndSplineSet
EndChar

StartChar: uni0426
Encoding: 1062 1062 225
Width: 665
Flags: W
LayerCount: 2
Fore
SplineSet
545 68 m 1,0,-1
 625 68 l 1,1,-1
 625 -150 l 1,2,-1
 545 -150 l 1,3,-1
 545 0 l 1,4,-1
 50 0 l 1,5,-1
 50 68 l 1,6,-1
 113 68 l 1,7,-1
 113 682 l 1,8,-1
 50 682 l 1,9,-1
 50 750 l 1,10,-1
 256 750 l 1,11,-1
 256 682 l 1,12,-1
 195 682 l 1,13,-1
 195 67 l 1,14,-1
 463 67 l 1,15,-1
 463 682 l 1,16,-1
 402 682 l 1,17,-1
 402 750 l 1,18,-1
 608 750 l 1,19,-1
 608 682 l 1,20,-1
 545 682 l 1,21,-1
 545 68 l 1,0,-1
EndSplineSet
EndChar

StartChar: uni0427
Encoding: 1063 1063 226
Width: 612
Flags: W
LayerCount: 2
Fore
SplineSet
500 682 m 1,0,-1
 500 68 l 1,1,-1
 562 68 l 1,2,-1
 562 0 l 1,3,-1
 353 0 l 1,4,-1
 353 68 l 1,5,-1
 418 68 l 1,6,-1
 418 277 l 1,7,-1
 199 415 l 2,8,9
 178 428 178 428 158.5 441 c 128,-1,10
 139 454 139 454 123.5 471 c 128,-1,11
 108 488 108 488 98.5 510 c 128,-1,12
 89 532 89 532 89 563 c 2,13,-1
 89 682 l 1,14,-1
 25 682 l 1,15,-1
 25 750 l 1,16,-1
 233 750 l 1,17,-1
 233 682 l 1,18,-1
 168 682 l 1,19,-1
 168 515 l 1,20,-1
 418 358 l 1,21,-1
 418 682 l 1,22,-1
 353 682 l 1,23,-1
 353 750 l 1,24,-1
 562 750 l 1,25,-1
 562 682 l 1,26,-1
 500 682 l 1,0,-1
EndSplineSet
EndChar

StartChar: uni0428
Encoding: 1064 1064 227
Width: 929
Flags: W
LayerCount: 2
Fore
SplineSet
259 750 m 1,0,-1
 259 682 l 1,1,-1
 195 682 l 1,2,-1
 195 68 l 1,3,-1
 425 68 l 1,4,-1
 425 682 l 1,5,-1
 360 682 l 1,6,-1
 360 750 l 1,7,-1
 568 750 l 1,8,-1
 568 682 l 1,9,-1
 505 682 l 1,10,-1
 505 68 l 1,11,-1
 734 68 l 1,12,-1
 734 682 l 1,13,-1
 669 682 l 1,14,-1
 669 750 l 1,15,-1
 879 750 l 1,16,-1
 879 682 l 1,17,-1
 815 682 l 1,18,-1
 815 68 l 1,19,-1
 879 68 l 1,20,-1
 879 0 l 1,21,-1
 50 0 l 1,22,-1
 50 68 l 1,23,-1
 114 68 l 1,24,-1
 114 682 l 1,25,-1
 50 682 l 1,26,-1
 50 750 l 1,27,-1
 259 750 l 1,0,-1
EndSplineSet
EndChar

StartChar: uni0429
Encoding: 1065 1065 228
Width: 945
Flags: W
LayerCount: 2
Fore
SplineSet
815 68 m 1,0,-1
 895 68 l 1,1,-1
 895 -150 l 1,2,-1
 815 -150 l 1,3,-1
 815 0 l 1,4,-1
 50 0 l 1,5,-1
 50 68 l 1,6,-1
 114 68 l 1,7,-1
 114 682 l 1,8,-1
 50 682 l 1,9,-1
 50 750 l 1,10,-1
 259 750 l 1,11,-1
 259 682 l 1,12,-1
 195 682 l 1,13,-1
 195 68 l 1,14,-1
 425 68 l 1,15,-1
 425 682 l 1,16,-1
 360 682 l 1,17,-1
 360 750 l 1,18,-1
 568 750 l 1,19,-1
 568 682 l 1,20,-1
 505 682 l 1,21,-1
 505 68 l 1,22,-1
 734 68 l 1,23,-1
 734 682 l 1,24,-1
 669 682 l 1,25,-1
 669 750 l 1,26,-1
 879 750 l 1,27,-1
 879 682 l 1,28,-1
 815 682 l 1,29,-1
 815 68 l 1,0,-1
EndSplineSet
EndChar

StartChar: uni042C
Encoding: 1068 1068 229
Width: 549
Flags: W
LayerCount: 2
Fore
SplineSet
446 223 m 1,0,-1
 195 381 l 1,1,-1
 195 68 l 1,2,-1
 446 68 l 1,3,-1
 446 223 l 1,0,-1
425 318 m 2,4,5
 474 288 474 288 496.5 253.5 c 128,-1,6
 519 219 519 219 519 176 c 2,7,-1
 519 118 l 2,8,9
 519 83 519 83 514 60.5 c 128,-1,10
 509 38 509 38 498 24.5 c 128,-1,11
 487 11 487 11 469 5.5 c 128,-1,12
 451 0 451 0 424 0 c 2,13,-1
 50 0 l 1,14,-1
 50 68 l 1,15,-1
 113 68 l 1,16,-1
 113 682 l 1,17,-1
 50 682 l 1,18,-1
 50 750 l 1,19,-1
 265 750 l 1,20,-1
 265 682 l 1,21,-1
 195 682 l 1,22,-1
 195 463 l 1,23,-1
 425 318 l 2,4,5
EndSplineSet
EndChar

StartChar: uni042D
Encoding: 1069 1069 230
Width: 499
Flags: W
LayerCount: 2
Fore
SplineSet
356 750 m 2,0,1
 412 750 412 750 435.5 724.5 c 128,-1,2
 459 699 459 699 459 652 c 2,3,-1
 459 98 l 2,4,5
 459 79 459 79 453 61 c 128,-1,6
 447 43 447 43 434.5 29.5 c 128,-1,7
 422 16 422 16 402.5 8 c 128,-1,8
 383 0 383 0 356 0 c 2,9,-1
 40 0 l 1,10,-1
 40 185 l 1,11,-1
 112 185 l 1,12,-1
 112 68 l 1,13,-1
 377 68 l 1,14,-1
 377 355 l 1,15,-1
 150 355 l 1,16,-1
 150 422 l 1,17,-1
 377 422 l 1,18,-1
 377 682 l 1,19,-1
 112 682 l 1,20,-1
 112 565 l 1,21,-1
 40 565 l 1,22,-1
 40 750 l 1,23,-1
 356 750 l 2,0,1
EndSplineSet
EndChar

StartChar: uni042F
Encoding: 1071 1071 231
Width: 584
Flags: W
LayerCount: 2
Fore
SplineSet
389 682 m 1,0,-1
 138 682 l 1,1,-1
 138 513 l 1,2,-1
 389 358 l 1,3,-1
 389 682 l 1,0,-1
100 68 m 1,4,-1
 250 365 l 1,5,-1
 166 417 l 2,6,7
 140 433 140 433 121 444 c 128,-1,8
 102 455 102 455 89.5 469 c 128,-1,9
 77 483 77 483 71 504.5 c 128,-1,10
 65 526 65 526 65 563 c 2,11,-1
 65 625 l 2,12,13
 65 662 65 662 70 686 c 128,-1,14
 75 710 75 710 88 724.5 c 128,-1,15
 101 739 101 739 122.5 744.5 c 128,-1,16
 144 750 144 750 177 750 c 2,17,-1
 534 750 l 1,18,-1
 534 682 l 1,19,-1
 471 682 l 1,20,-1
 471 68 l 1,21,-1
 534 68 l 1,22,-1
 534 0 l 1,23,-1
 324 0 l 1,24,-1
 324 68 l 1,25,-1
 389 68 l 1,26,-1
 389 278 l 1,27,-1
 312 326 l 1,28,-1
 183 68 l 1,29,-1
 237 68 l 1,30,-1
 237 0 l 1,31,-1
 40 0 l 1,32,-1
 40 68 l 1,33,-1
 100 68 l 1,4,-1
EndSplineSet
EndChar

StartChar: uni042E
Encoding: 1070 1070 232
Width: 789
Flags: W
LayerCount: 2
Fore
SplineSet
426 68 m 1,0,-1
 649 68 l 1,1,-1
 649 682 l 1,2,-1
 426 682 l 1,3,-1
 426 68 l 1,0,-1
613 750 m 2,4,5
 674 750 674 750 701.5 716.5 c 128,-1,6
 729 683 729 683 729 617 c 2,7,-1
 729 136 l 2,8,9
 729 64 729 64 705 32 c 128,-1,10
 681 0 681 0 618 0 c 2,11,-1
 465 0 l 2,12,13
 430 0 430 0 407.5 8.5 c 128,-1,14
 385 17 385 17 371 33 c 128,-1,15
 357 49 357 49 351.5 71.5 c 128,-1,16
 346 94 346 94 346 121 c 2,17,-1
 346 354 l 1,18,-1
 195 354 l 1,19,-1
 195 68 l 1,20,-1
 260 68 l 1,21,-1
 260 0 l 1,22,-1
 50 0 l 1,23,-1
 50 68 l 1,24,-1
 113 68 l 1,25,-1
 113 682 l 1,26,-1
 50 682 l 1,27,-1
 50 750 l 1,28,-1
 260 750 l 1,29,-1
 260 682 l 1,30,-1
 195 682 l 1,31,-1
 195 421 l 1,32,-1
 346 421 l 1,33,-1
 346 617 l 2,34,35
 346 648 346 648 350.5 672.5 c 128,-1,36
 355 697 355 697 367.5 714.5 c 128,-1,37
 380 732 380 732 401.5 741 c 128,-1,38
 423 750 423 750 457 750 c 2,39,-1
 613 750 l 2,4,5
EndSplineSet
EndChar

StartChar: uni042A
Encoding: 1066 1066 233
Width: 653
Flags: W
LayerCount: 2
Fore
SplineSet
550 223 m 1,0,-1
 299 381 l 1,1,-1
 299 68 l 1,2,-1
 550 68 l 1,3,-1
 550 223 l 1,0,-1
50 750 m 1,4,-1
 369 750 l 1,5,-1
 369 682 l 1,6,-1
 299 682 l 1,7,-1
 299 463 l 1,8,-1
 529 318 l 2,9,10
 578 288 578 288 600.5 253.5 c 128,-1,11
 623 219 623 219 623 176 c 2,12,-1
 623 118 l 2,13,14
 623 83 623 83 618 60.5 c 128,-1,15
 613 38 613 38 602 24.5 c 128,-1,16
 591 11 591 11 573 5.5 c 128,-1,17
 555 0 555 0 528 0 c 2,18,-1
 154 0 l 1,19,-1
 154 68 l 1,20,-1
 217 68 l 1,21,-1
 217 682 l 1,22,-1
 118 682 l 1,23,-1
 118 565 l 1,24,-1
 50 565 l 1,25,-1
 50 750 l 1,4,-1
EndSplineSet
EndChar

StartChar: uni042B
Encoding: 1067 1067 234
Width: 844
Flags: W
LayerCount: 2
Fore
SplineSet
729 68 m 1,0,-1
 794 68 l 1,1,-1
 794 0 l 1,2,-1
 584 0 l 1,3,-1
 584 68 l 1,4,-1
 647 68 l 1,5,-1
 647 682 l 1,6,-1
 584 682 l 1,7,-1
 584 750 l 1,8,-1
 794 750 l 1,9,-1
 794 682 l 1,10,-1
 729 682 l 1,11,-1
 729 68 l 1,0,-1
446 223 m 1,12,-1
 195 381 l 1,13,-1
 195 68 l 1,14,-1
 446 68 l 1,15,-1
 446 223 l 1,12,-1
425 318 m 2,16,17
 474 288 474 288 496.5 253.5 c 128,-1,18
 519 219 519 219 519 176 c 2,19,-1
 519 118 l 2,20,21
 519 83 519 83 514 60.5 c 128,-1,22
 509 38 509 38 498 24.5 c 128,-1,23
 487 11 487 11 469 5.5 c 128,-1,24
 451 0 451 0 424 0 c 2,25,-1
 50 0 l 1,26,-1
 50 68 l 1,27,-1
 113 68 l 1,28,-1
 113 682 l 1,29,-1
 50 682 l 1,30,-1
 50 750 l 1,31,-1
 265 750 l 1,32,-1
 265 682 l 1,33,-1
 195 682 l 1,34,-1
 195 463 l 1,35,-1
 425 318 l 2,16,17
EndSplineSet
EndChar

StartChar: uni0431
Encoding: 1073 1073 235
Width: 471
Flags: W
LayerCount: 2
Fore
SplineSet
131 319 m 1,0,-1
 131 67 l 1,1,-1
 340 67 l 1,2,-1
 340 449 l 1,3,-1
 131 319 l 1,0,-1
419 750 m 1,4,-1
 419 720 l 2,5,6
 419 682 419 682 397 661 c 128,-1,7
 375 640 375 640 337 617 c 2,8,-1
 131 488 l 1,9,-1
 131 398 l 1,10,-1
 281 492 l 2,11,12
 297 502 297 502 311 506 c 128,-1,13
 325 510 325 510 339 510 c 0,14,15
 357 510 357 510 372 503.5 c 128,-1,16
 387 497 387 497 398 486 c 128,-1,17
 409 475 409 475 415 461 c 128,-1,18
 421 447 421 447 421 432 c 2,19,-1
 421 88 l 2,20,21
 421 46 421 46 400 22.5 c 128,-1,22
 379 -1 379 -1 328 -1 c 2,23,-1
 143 -1 l 2,24,25
 92 -1 92 -1 71 22.5 c 128,-1,26
 50 46 50 46 50 88 c 2,27,-1
 50 440 l 2,28,29
 50 480 50 480 68 510.5 c 128,-1,30
 86 541 86 541 130 569 c 2,31,-1
 338 699 l 1,32,-1
 338 750 l 1,33,-1
 419 750 l 1,4,-1
EndSplineSet
EndChar

StartChar: uni0430
Encoding: 1072 1072 236
Width: 498
Flags: W
LayerCount: 2
Fore
SplineSet
313 278 m 1,0,-1
 105 148 l 1,1,-1
 105 68 l 1,2,-1
 313 68 l 1,3,-1
 313 278 l 1,0,-1
458 68 m 1,4,-1
 458 0 l 1,5,-1
 110 0 l 2,6,7
 84 0 84 0 67.5 4.5 c 128,-1,8
 51 9 51 9 41.5 19.5 c 128,-1,9
 32 30 32 30 28.5 47 c 128,-1,10
 25 64 25 64 25 88 c 2,11,-1
 25 125 l 2,12,13
 25 143 25 143 27 155 c 128,-1,14
 29 167 29 167 36 177 c 128,-1,15
 43 187 43 187 56.5 197 c 128,-1,16
 70 207 70 207 93 221 c 2,17,-1
 313 358 l 1,18,-1
 313 432 l 1,19,-1
 117 432 l 1,20,-1
 117 374 l 1,21,-1
 53 374 l 1,22,-1
 53 500 l 1,23,-1
 303 500 l 2,24,25
 354 500 354 500 374.5 478 c 128,-1,26
 395 456 395 456 395 414 c 2,27,-1
 395 68 l 1,28,-1
 458 68 l 1,4,-1
EndSplineSet
EndChar

StartChar: uni0432
Encoding: 1074 1074 237
Width: 502
Flags: W
LayerCount: 2
Fore
SplineSet
397 424 m 1,0,-1
 185 291 l 1,1,-1
 185 69 l 1,2,-1
 397 69 l 1,3,-1
 397 424 l 1,0,-1
271 425 m 1,4,-1
 271 679 l 1,5,-1
 185 679 l 1,6,-1
 185 371 l 1,7,-1
 271 425 l 1,4,-1
356 479 m 2,8,9
 367 486 367 486 380 489 c 128,-1,10
 393 492 393 492 405 492 c 0,11,12
 434 492 434 492 455.5 471 c 128,-1,13
 477 450 477 450 477 406 c 2,14,-1
 477 88 l 2,15,16
 477 70 477 70 473.5 54 c 128,-1,17
 470 38 470 38 460 26 c 128,-1,18
 450 14 450 14 433 7 c 128,-1,19
 416 0 416 0 388 0 c 2,20,-1
 40 0 l 1,21,-1
 40 68 l 1,22,-1
 103 68 l 1,23,-1
 103 682 l 1,24,-1
 41 682 l 1,25,-1
 41 750 l 1,26,-1
 250 750 l 2,27,28
 303 750 303 750 327.5 726.5 c 128,-1,29
 352 703 352 703 352 661 c 2,30,-1
 352 476 l 1,31,-1
 356 479 l 2,8,9
EndSplineSet
EndChar

StartChar: uni0433
Encoding: 1075 1075 238
Width: 442
Flags: W
LayerCount: 2
Fore
SplineSet
50 67 m 1,0,-1
 115 67 l 1,1,-1
 115 429 l 1,2,-1
 50 429 l 1,3,-1
 50 500 l 1,4,-1
 417 500 l 1,5,-1
 417 336 l 1,6,-1
 347 336 l 1,7,-1
 347 429 l 1,8,-1
 191 429 l 1,9,-1
 191 67 l 1,10,-1
 268 67 l 1,11,-1
 268 0 l 1,12,-1
 50 0 l 1,13,-1
 50 67 l 1,0,-1
EndSplineSet
EndChar

StartChar: uni0435
Encoding: 1077 1077 239
Width: 465
Flags: W
LayerCount: 2
Fore
SplineSet
130 220 m 1,0,-1
 335 349 l 1,1,-1
 335 432 l 1,2,-1
 130 432 l 1,3,-1
 130 220 l 1,0,-1
130 68 m 1,4,-1
 336 68 l 1,5,-1
 336 126 l 1,6,-1
 415 126 l 1,7,-1
 415 73 l 2,8,9
 415 43 415 43 396.5 21.5 c 128,-1,10
 378 0 378 0 335 0 c 2,11,-1
 130 0 l 2,12,13
 87 0 87 0 68.5 21.5 c 128,-1,14
 50 43 50 43 50 73 c 2,15,-1
 50 402 l 2,16,17
 50 451 50 451 74.5 476 c 128,-1,18
 99 501 99 501 153 501 c 2,19,-1
 322 501 l 2,20,21
 371 501 371 501 393 482 c 128,-1,22
 415 463 415 463 415 412 c 2,23,-1
 415 319 l 1,24,-1
 130 139 l 1,25,-1
 130 68 l 1,4,-1
EndSplineSet
EndChar

StartChar: uni043A
Encoding: 1082 1082 240
Width: 517
Flags: W
LayerCount: 2
Fore
SplineSet
45 500 m 1,0,-1
 249 500 l 1,1,-1
 249 432 l 1,2,-1
 185 432 l 1,3,-1
 185 276 l 1,4,-1
 413 500 l 1,5,-1
 491 500 l 1,6,-1
 491 432 l 1,7,-1
 436 432 l 1,8,-1
 273 265 l 1,9,-1
 440 68 l 1,10,-1
 492 68 l 1,11,-1
 492 0 l 1,12,-1
 406 0 l 1,13,-1
 189 252 l 1,14,-1
 189 68 l 1,15,-1
 249 68 l 1,16,-1
 249 0 l 1,17,-1
 45 0 l 1,18,-1
 45 68 l 1,19,-1
 109 68 l 1,20,-1
 109 432 l 1,21,-1
 45 432 l 1,22,-1
 45 500 l 1,0,-1
EndSplineSet
EndChar

StartChar: uni0436
Encoding: 1078 1078 241
Width: 656
Flags: W
LayerCount: 2
Fore
SplineSet
631 68 m 1,0,-1
 631 0 l 1,1,-1
 554 0 l 1,2,-1
 366 252 l 1,3,-1
 366 68 l 1,4,-1
 430 68 l 1,5,-1
 430 0 l 1,6,-1
 226 0 l 1,7,-1
 226 68 l 1,8,-1
 290 68 l 1,9,-1
 290 252 l 1,10,-1
 102 0 l 1,11,-1
 25 0 l 1,12,-1
 25 68 l 1,13,-1
 72 68 l 1,14,-1
 211 265 l 1,15,-1
 75 432 l 1,16,-1
 26 432 l 1,17,-1
 26 500 l 1,18,-1
 96 500 l 1,19,-1
 290 276 l 1,20,-1
 290 432 l 1,21,-1
 226 432 l 1,22,-1
 226 500 l 1,23,-1
 430 500 l 1,24,-1
 430 432 l 1,25,-1
 366 432 l 1,26,-1
 366 276 l 1,27,-1
 560 500 l 1,28,-1
 630 500 l 1,29,-1
 630 432 l 1,30,-1
 581 432 l 1,31,-1
 445 265 l 1,32,-1
 584 68 l 1,33,-1
 631 68 l 1,0,-1
EndSplineSet
EndChar

StartChar: uni043C
Encoding: 1084 1084 242
Width: 712
Flags: W
LayerCount: 2
Fore
SplineSet
667 0 m 1,0,-1
 458 0 l 1,1,-1
 458 68 l 1,2,-1
 527 68 l 1,3,-1
 527 429 l 1,4,-1
 378 119 l 1,5,-1
 330 119 l 1,6,-1
 185 424 l 1,7,-1
 185 68 l 1,8,-1
 254 68 l 1,9,-1
 254 0 l 1,10,-1
 45 0 l 1,11,-1
 45 68 l 1,12,-1
 110 68 l 1,13,-1
 110 432 l 1,14,-1
 45 432 l 1,15,-1
 45 500 l 1,16,-1
 224 500 l 1,17,-1
 356 224 l 1,18,-1
 489 500 l 1,19,-1
 667 500 l 1,20,-1
 667 432 l 1,21,-1
 602 432 l 1,22,-1
 602 68 l 1,23,-1
 667 68 l 1,24,-1
 667 0 l 1,0,-1
EndSplineSet
EndChar

StartChar: uni043E
Encoding: 1086 1086 243
Width: 471
Flags: W
LayerCount: 2
Fore
SplineSet
131 68 m 1,0,-1
 340 68 l 1,1,-1
 340 432 l 1,2,-1
 131 432 l 1,3,-1
 131 68 l 1,0,-1
143 0 m 2,4,5
 92 0 92 0 71 23.5 c 128,-1,6
 50 47 50 47 50 89 c 2,7,-1
 50 411 l 2,8,9
 50 451 50 451 68.5 475.5 c 128,-1,10
 87 500 87 500 143 500 c 2,11,-1
 328 500 l 2,12,13
 383 500 383 500 402 475.5 c 128,-1,14
 421 451 421 451 421 411 c 2,15,-1
 421 89 l 2,16,17
 421 47 421 47 400 23.5 c 128,-1,18
 379 0 379 0 328 0 c 2,19,-1
 143 0 l 2,4,5
EndSplineSet
EndChar

StartChar: uni043D
Encoding: 1085 1085 244
Width: 601
Flags: W
LayerCount: 2
Fore
SplineSet
356 68 m 1,0,-1
 414 68 l 1,1,-1
 414 222 l 1,2,-1
 186 222 l 1,3,-1
 186 68 l 1,4,-1
 244 68 l 1,5,-1
 244 0 l 1,6,-1
 45 0 l 1,7,-1
 45 68 l 1,8,-1
 109 68 l 1,9,-1
 109 430 l 1,10,-1
 45 430 l 1,11,-1
 45 500 l 1,12,-1
 244 500 l 1,13,-1
 244 430 l 1,14,-1
 186 430 l 1,15,-1
 186 294 l 1,16,-1
 414 294 l 1,17,-1
 414 430 l 1,18,-1
 356 430 l 1,19,-1
 356 500 l 1,20,-1
 556 500 l 1,21,-1
 556 430 l 1,22,-1
 492 430 l 1,23,-1
 492 68 l 1,24,-1
 556 68 l 1,25,-1
 556 0 l 1,26,-1
 356 0 l 1,27,-1
 356 68 l 1,0,-1
EndSplineSet
EndChar

StartChar: uni043F
Encoding: 1087 1087 245
Width: 586
Flags: W
LayerCount: 2
Fore
SplineSet
341 68 m 1,0,-1
 399 68 l 1,1,-1
 399 430 l 1,2,-1
 186 430 l 1,3,-1
 186 68 l 1,4,-1
 244 68 l 1,5,-1
 244 0 l 1,6,-1
 45 0 l 1,7,-1
 45 68 l 1,8,-1
 109 68 l 1,9,-1
 109 430 l 1,10,-1
 45 430 l 1,11,-1
 45 500 l 1,12,-1
 541 500 l 1,13,-1
 541 430 l 1,14,-1
 477 430 l 1,15,-1
 477 68 l 1,16,-1
 541 68 l 1,17,-1
 541 0 l 1,18,-1
 341 0 l 1,19,-1
 341 68 l 1,0,-1
EndSplineSet
EndChar

StartChar: uni0440
Encoding: 1088 1088 246
Width: 532
Flags: W
LayerCount: 2
Fore
SplineSet
46 -182 m 1,0,-1
 108 -182 l 1,1,-1
 108 431 l 1,2,-1
 45 431 l 1,3,-1
 45 500 l 1,4,-1
 190 500 l 1,5,-1
 190 386 l 1,6,-1
 363 495 l 2,7,8
 387 510 387 510 413 510 c 0,9,10
 441 510 441 510 461.5 493.5 c 128,-1,11
 482 477 482 477 482 445 c 2,12,-1
 482 94 l 2,13,14
 482 73 482 73 478.5 56 c 128,-1,15
 475 39 475 39 465 26.5 c 128,-1,16
 455 14 455 14 437.5 7 c 128,-1,17
 420 0 420 0 392 0 c 2,18,-1
 190 0 l 1,19,-1
 190 -182 l 1,20,-1
 256 -182 l 1,21,-1
 256 -250 l 1,22,-1
 46 -250 l 1,23,-1
 46 -182 l 1,0,-1
190 68 m 1,24,-1
 402 68 l 1,25,-1
 402 439 l 1,26,-1
 190 306 l 1,27,-1
 190 68 l 1,24,-1
EndSplineSet
EndChar

StartChar: uni0441
Encoding: 1089 1089 247
Width: 436
Flags: W
LayerCount: 2
Fore
SplineSet
386 0 m 1,0,-1
 137 0 l 2,1,2
 110 0 110 0 93.5 7 c 128,-1,3
 77 14 77 14 67 26 c 128,-1,4
 57 38 57 38 53.5 54 c 128,-1,5
 50 70 50 70 50 88 c 2,6,-1
 50 412 l 2,7,8
 50 454 50 454 73.5 477.5 c 128,-1,9
 97 501 97 501 145 501 c 2,10,-1
 386 501 l 1,11,-1
 386 374 l 1,12,-1
 318 374 l 1,13,-1
 318 432 l 1,14,-1
 130 432 l 1,15,-1
 130 68 l 1,16,-1
 318 68 l 1,17,-1
 318 126 l 1,18,-1
 386 126 l 1,19,-1
 386 0 l 1,0,-1
EndSplineSet
EndChar

StartChar: uni0442
Encoding: 1090 1090 248
Width: 445
Flags: W
LayerCount: 2
Fore
SplineSet
105 68 m 1,0,-1
 183 68 l 1,1,-1
 183 429 l 1,2,-1
 95 429 l 1,3,-1
 95 336 l 1,4,-1
 25 336 l 1,5,-1
 25 500 l 1,6,-1
 420 500 l 1,7,-1
 420 336 l 1,8,-1
 352 336 l 1,9,-1
 352 429 l 1,10,-1
 262 429 l 1,11,-1
 262 68 l 1,12,-1
 340 68 l 1,13,-1
 340 0 l 1,14,-1
 105 0 l 1,15,-1
 105 68 l 1,0,-1
EndSplineSet
EndChar

StartChar: uni0445
Encoding: 1093 1093 249
Width: 498
Flags: W
LayerCount: 2
Fore
SplineSet
81 68 m 1,0,-1
 207 259 l 1,1,-1
 92 432 l 1,2,-1
 33 432 l 1,3,-1
 33 500 l 1,4,-1
 129 500 l 1,5,-1
 251 320 l 1,6,-1
 365 500 l 1,7,-1
 463 500 l 1,8,-1
 463 432 l 1,9,-1
 407 432 l 1,10,-1
 292 259 l 1,11,-1
 417 68 l 1,12,-1
 473 68 l 1,13,-1
 473 0 l 1,14,-1
 379 0 l 1,15,-1
 251 199 l 1,16,-1
 124 0 l 1,17,-1
 25 0 l 1,18,-1
 25 68 l 1,19,-1
 81 68 l 1,0,-1
EndSplineSet
EndChar

StartChar: uni0434
Encoding: 1076 1076 250
Width: 535
Flags: W
LayerCount: 2
Fore
SplineSet
367 430 m 1,0,-1
 313 430 l 1,1,-1
 166 67 l 1,2,-1
 367 67 l 1,3,-1
 367 430 l 1,0,-1
443 -137 m 1,4,-1
 443 0 l 1,5,-1
 90 0 l 1,6,-1
 90 -137 l 1,7,-1
 20 -137 l 1,8,-1
 20 67 l 1,9,-1
 89 67 l 1,10,-1
 237 430 l 1,11,-1
 168 430 l 1,12,-1
 168 500 l 1,13,-1
 442 500 l 1,14,-1
 442 67 l 1,15,-1
 515 67 l 1,16,-1
 515 -137 l 1,17,-1
 443 -137 l 1,4,-1
EndSplineSet
EndChar

StartChar: uni043B
Encoding: 1083 1083 251
Width: 562
Flags: W
LayerCount: 2
Fore
SplineSet
517 67 m 1,0,-1
 517 0 l 1,1,-1
 310 0 l 1,2,-1
 310 67 l 1,3,-1
 376 67 l 1,4,-1
 376 430 l 1,5,-1
 314 430 l 1,6,-1
 186 89 l 2,7,8
 170 46 170 46 147.5 23 c 128,-1,9
 125 0 125 0 81 0 c 2,10,-1
 25 0 l 1,11,-1
 25 67 l 1,12,-1
 103 67 l 1,13,-1
 243 430 l 1,14,-1
 176 430 l 1,15,-1
 176 500 l 1,16,-1
 452 500 l 1,17,-1
 452 67 l 1,18,-1
 517 67 l 1,0,-1
EndSplineSet
EndChar

StartChar: uni0437
Encoding: 1079 1079 252
Width: 435
Flags: W
LayerCount: 2
Fore
SplineSet
377 333 m 2,0,1
 377 321 377 321 373.5 308.5 c 128,-1,2
 370 296 370 296 362 285 c 128,-1,3
 354 274 354 274 341.5 267 c 128,-1,4
 329 260 329 260 311 259 c 1,5,6
 385 257 385 257 385 193 c 2,7,-1
 385 88 l 2,8,9
 385 70 385 70 382.5 54 c 128,-1,10
 380 38 380 38 371.5 26 c 128,-1,11
 363 14 363 14 346 7 c 128,-1,12
 329 0 329 0 300 0 c 2,13,-1
 50 0 l 1,14,-1
 50 146 l 1,15,-1
 117 146 l 1,16,-1
 117 68 l 1,17,-1
 308 68 l 1,18,-1
 308 225 l 1,19,-1
 170 225 l 1,20,-1
 170 291 l 1,21,-1
 299 291 l 1,22,-1
 299 431 l 1,23,-1
 117 431 l 1,24,-1
 117 354 l 1,25,-1
 50 354 l 1,26,-1
 50 500 l 1,27,-1
 282 500 l 2,28,29
 338 500 338 500 357.5 476.5 c 128,-1,30
 377 453 377 453 377 411 c 2,31,-1
 377 333 l 2,0,1
EndSplineSet
EndChar

StartChar: uni0438
Encoding: 1080 1080 253
Width: 591
Flags: W
LayerCount: 2
Fore
SplineSet
482 68 m 1,0,-1
 546 68 l 1,1,-1
 546 0 l 1,2,-1
 404 0 l 1,3,-1
 404 369 l 1,4,-1
 185 0 l 1,5,-1
 45 0 l 1,6,-1
 45 70 l 1,7,-1
 109 70 l 1,8,-1
 109 430 l 1,9,-1
 45 430 l 1,10,-1
 45 500 l 1,11,-1
 186 500 l 1,12,-1
 186 134 l 1,13,-1
 404 500 l 1,14,-1
 546 500 l 1,15,-1
 546 430 l 1,16,-1
 482 430 l 1,17,-1
 482 68 l 1,0,-1
EndSplineSet
EndChar

StartChar: uni0443
Encoding: 1091 1091 254
Width: 529
Flags: W
LayerCount: 2
Fore
SplineSet
509 500 m 1,0,-1
 509 432 l 1,1,-1
 449 432 l 1,2,-1
 273 -161 l 2,3,4
 260 -204 260 -204 240.5 -227 c 128,-1,5
 221 -250 221 -250 177 -250 c 2,6,-1
 114 -250 l 1,7,-1
 114 -183 l 1,8,-1
 192 -183 l 1,9,-1
 237 -29 l 1,10,-1
 86 432 l 1,11,-1
 25 432 l 1,12,-1
 25 500 l 1,13,-1
 207 500 l 1,14,-1
 207 432 l 1,15,-1
 160 432 l 1,16,-1
 272 90 l 1,17,-1
 374 432 l 1,18,-1
 326 432 l 1,19,-1
 326 500 l 1,20,-1
 509 500 l 1,0,-1
EndSplineSet
EndChar

StartChar: uni0446
Encoding: 1094 1094 255
Width: 581
Flags: W
LayerCount: 2
Fore
SplineSet
479 0 m 1,0,-1
 45 0 l 1,1,-1
 45 70 l 1,2,-1
 109 70 l 1,3,-1
 109 432 l 1,4,-1
 45 432 l 1,5,-1
 45 500 l 1,6,-1
 245 500 l 1,7,-1
 245 432 l 1,8,-1
 187 432 l 1,9,-1
 187 70 l 1,10,-1
 400 70 l 1,11,-1
 400 432 l 1,12,-1
 342 432 l 1,13,-1
 342 500 l 1,14,-1
 541 500 l 1,15,-1
 541 432 l 1,16,-1
 477 432 l 1,17,-1
 477 70 l 1,18,-1
 551 70 l 1,19,-1
 551 -134 l 1,20,-1
 479 -134 l 1,21,-1
 479 0 l 1,0,-1
EndSplineSet
EndChar

StartChar: uni0444
Encoding: 1092 1092 256
Width: 624
Flags: W
LayerCount: 2
Fore
SplineSet
502 429 m 1,0,-1
 350 429 l 1,1,-1
 350 67 l 1,2,-1
 502 67 l 1,3,-1
 502 429 l 1,0,-1
275 429 m 1,4,-1
 125 429 l 1,5,-1
 125 67 l 1,6,-1
 275 67 l 1,7,-1
 275 429 l 1,4,-1
487 500 m 2,8,9
 515 500 515 500 532 493.5 c 128,-1,10
 549 487 549 487 558.5 475 c 128,-1,11
 568 463 568 463 571 446.5 c 128,-1,12
 574 430 574 430 574 410 c 2,13,-1
 574 88 l 2,14,15
 574 68 574 68 571.5 52 c 128,-1,16
 569 36 569 36 560 24.5 c 128,-1,17
 551 13 551 13 533.5 6.5 c 128,-1,18
 516 0 516 0 486 0 c 2,19,-1
 350 0 l 1,20,-1
 350 -142 l 1,21,-1
 422 -142 l 1,22,-1
 422 -210 l 1,23,-1
 203 -210 l 1,24,-1
 203 -142 l 1,25,-1
 275 -142 l 1,26,-1
 275 0 l 1,27,-1
 144 0 l 2,28,29
 89 0 89 0 69.5 24.5 c 128,-1,30
 50 49 50 49 50 88 c 2,31,-1
 50 410 l 2,32,33
 50 451 50 451 71.5 475.5 c 128,-1,34
 93 500 93 500 144 500 c 2,35,-1
 275 500 l 1,36,-1
 275 641 l 1,37,-1
 203 641 l 1,38,-1
 203 710 l 1,39,-1
 422 710 l 1,40,-1
 422 641 l 1,41,-1
 350 641 l 1,42,-1
 350 500 l 1,43,-1
 487 500 l 2,8,9
EndSplineSet
EndChar

StartChar: uni0447
Encoding: 1095 1095 257
Width: 548
Flags: W
LayerCount: 2
Fore
SplineSet
298 67 m 1,0,-1
 361 67 l 1,1,-1
 361 255 l 1,2,-1
 217 163 l 2,3,4
 189 146 189 146 165 146 c 0,5,6
 135 146 135 146 114 166 c 128,-1,7
 93 186 93 186 93 213 c 2,8,-1
 93 429 l 1,9,-1
 30 429 l 1,10,-1
 30 500 l 1,11,-1
 227 500 l 1,12,-1
 227 429 l 1,13,-1
 170 429 l 1,14,-1
 170 214 l 1,15,-1
 361 333 l 1,16,-1
 361 429 l 1,17,-1
 303 429 l 1,18,-1
 303 500 l 1,19,-1
 503 500 l 1,20,-1
 503 429 l 1,21,-1
 440 429 l 1,22,-1
 440 67 l 1,23,-1
 503 67 l 1,24,-1
 503 0 l 1,25,-1
 298 0 l 1,26,-1
 298 67 l 1,0,-1
EndSplineSet
EndChar

StartChar: uni0448
Encoding: 1096 1096 258
Width: 812
Flags: W
LayerCount: 2
Fore
SplineSet
703 71 m 1,0,-1
 767 71 l 1,1,-1
 767 0 l 1,2,-1
 45 0 l 1,3,-1
 45 71 l 1,4,-1
 109 71 l 1,5,-1
 109 429 l 1,6,-1
 45 429 l 1,7,-1
 45 500 l 1,8,-1
 242 500 l 1,9,-1
 242 429 l 1,10,-1
 186 429 l 1,11,-1
 186 71 l 1,12,-1
 367 71 l 1,13,-1
 367 429 l 1,14,-1
 311 429 l 1,15,-1
 311 500 l 1,16,-1
 500 500 l 1,17,-1
 500 429 l 1,18,-1
 444 429 l 1,19,-1
 444 71 l 1,20,-1
 626 71 l 1,21,-1
 626 429 l 1,22,-1
 570 429 l 1,23,-1
 570 500 l 1,24,-1
 767 500 l 1,25,-1
 767 429 l 1,26,-1
 703 429 l 1,27,-1
 703 71 l 1,0,-1
EndSplineSet
EndChar

StartChar: uni0449
Encoding: 1097 1097 259
Width: 816
Flags: W
LayerCount: 2
Fore
SplineSet
704 0 m 1,0,-1
 45 0 l 1,1,-1
 45 71 l 1,2,-1
 109 71 l 1,3,-1
 109 429 l 1,4,-1
 45 429 l 1,5,-1
 45 500 l 1,6,-1
 242 500 l 1,7,-1
 242 429 l 1,8,-1
 186 429 l 1,9,-1
 186 71 l 1,10,-1
 367 71 l 1,11,-1
 367 429 l 1,12,-1
 311 429 l 1,13,-1
 311 500 l 1,14,-1
 500 500 l 1,15,-1
 500 429 l 1,16,-1
 444 429 l 1,17,-1
 444 71 l 1,18,-1
 626 71 l 1,19,-1
 626 429 l 1,20,-1
 570 429 l 1,21,-1
 570 500 l 1,22,-1
 767 500 l 1,23,-1
 767 429 l 1,24,-1
 703 429 l 1,25,-1
 703 71 l 1,26,-1
 776 71 l 1,27,-1
 776 -133 l 1,28,-1
 704 -133 l 1,29,-1
 704 0 l 1,0,-1
EndSplineSet
EndChar

StartChar: uni044C
Encoding: 1100 1100 260
Width: 518
Flags: W
LayerCount: 2
Fore
SplineSet
389 273 m 1,0,-1
 193 150 l 1,1,-1
 193 68 l 1,2,-1
 389 68 l 1,3,-1
 389 273 l 1,0,-1
50 71 m 1,4,-1
 114 71 l 1,5,-1
 114 429 l 1,6,-1
 50 429 l 1,7,-1
 50 500 l 1,8,-1
 260 500 l 1,9,-1
 260 429 l 1,10,-1
 193 429 l 1,11,-1
 193 230 l 1,12,-1
 359 335 l 2,13,14
 383 350 383 350 405 350 c 0,15,16
 432 350 432 350 450 331 c 128,-1,17
 468 312 468 312 468 281 c 2,18,-1
 468 88 l 2,19,20
 468 69 468 69 465.5 53 c 128,-1,21
 463 37 463 37 454 25 c 128,-1,22
 445 13 445 13 427.5 6.5 c 128,-1,23
 410 0 410 0 380 0 c 2,24,-1
 50 0 l 1,25,-1
 50 71 l 1,4,-1
EndSplineSet
EndChar

StartChar: uni044A
Encoding: 1098 1098 261
Width: 555
Flags: W
LayerCount: 2
Fore
SplineSet
446 273 m 1,0,-1
 250 150 l 1,1,-1
 250 68 l 1,2,-1
 446 68 l 1,3,-1
 446 273 l 1,0,-1
30 500 m 1,4,-1
 317 500 l 1,5,-1
 317 429 l 1,6,-1
 250 429 l 1,7,-1
 250 230 l 1,8,-1
 416 335 l 2,9,10
 440 350 440 350 462 350 c 0,11,12
 489 350 489 350 507 331 c 128,-1,13
 525 312 525 312 525 281 c 2,14,-1
 525 88 l 2,15,16
 525 69 525 69 522.5 53 c 128,-1,17
 520 37 520 37 511 25 c 128,-1,18
 502 13 502 13 484.5 6.5 c 128,-1,19
 467 0 467 0 437 0 c 2,20,-1
 107 0 l 1,21,-1
 107 71 l 1,22,-1
 171 71 l 1,23,-1
 171 429 l 1,24,-1
 100 429 l 1,25,-1
 100 336 l 1,26,-1
 30 336 l 1,27,-1
 30 500 l 1,4,-1
EndSplineSet
EndChar

StartChar: uni044B
Encoding: 1099 1099 262
Width: 784
Flags: W
LayerCount: 2
Fore
SplineSet
384 273 m 1,0,-1
 188 150 l 1,1,-1
 188 68 l 1,2,-1
 384 68 l 1,3,-1
 384 273 l 1,0,-1
674 68 m 1,4,-1
 739 68 l 1,5,-1
 739 0 l 1,6,-1
 529 0 l 1,7,-1
 529 68 l 1,8,-1
 592 68 l 1,9,-1
 592 432 l 1,10,-1
 529 432 l 1,11,-1
 529 500 l 1,12,-1
 739 500 l 1,13,-1
 739 432 l 1,14,-1
 674 432 l 1,15,-1
 674 68 l 1,4,-1
45 71 m 1,16,-1
 110 71 l 1,17,-1
 110 429 l 1,18,-1
 45 429 l 1,19,-1
 45 500 l 1,20,-1
 255 500 l 1,21,-1
 255 429 l 1,22,-1
 188 429 l 1,23,-1
 188 230 l 1,24,-1
 354 335 l 2,25,26
 378 350 378 350 400 350 c 0,27,28
 427 350 427 350 445 331 c 128,-1,29
 463 312 463 312 463 281 c 2,30,-1
 463 88 l 2,31,32
 463 69 463 69 460.5 53 c 128,-1,33
 458 37 458 37 449 25 c 128,-1,34
 440 13 440 13 422.5 6.5 c 128,-1,35
 405 0 405 0 375 0 c 2,36,-1
 45 0 l 1,37,-1
 45 71 l 1,16,-1
EndSplineSet
EndChar

StartChar: uni044D
Encoding: 1101 1101 263
Width: 435
Flags: W
LayerCount: 2
Fore
SplineSet
308 225 m 1,0,-1
 170 225 l 1,1,-1
 170 291 l 1,2,-1
 308 291 l 1,3,-1
 308 431 l 1,4,-1
 117 431 l 1,5,-1
 117 354 l 1,6,-1
 50 354 l 1,7,-1
 50 500 l 1,8,-1
 291 500 l 2,9,10
 347 500 347 500 366 476.5 c 128,-1,11
 385 453 385 453 385 411 c 2,12,-1
 385 88 l 2,13,14
 385 70 385 70 382.5 54 c 128,-1,15
 380 38 380 38 371.5 26 c 128,-1,16
 363 14 363 14 346 7 c 128,-1,17
 329 0 329 0 300 0 c 2,18,-1
 50 0 l 1,19,-1
 50 146 l 1,20,-1
 117 146 l 1,21,-1
 117 68 l 1,22,-1
 308 68 l 1,23,-1
 308 225 l 1,0,-1
EndSplineSet
EndChar

StartChar: uni044E
Encoding: 1102 1102 264
Width: 703
Flags: W
LayerCount: 2
Fore
SplineSet
393 68 m 1,0,-1
 572 68 l 1,1,-1
 572 432 l 1,2,-1
 393 432 l 1,3,-1
 393 68 l 1,0,-1
405 0 m 2,4,5
 354 0 354 0 333 23.5 c 128,-1,6
 312 47 312 47 312 89 c 2,7,-1
 312 222 l 1,8,-1
 186 222 l 1,9,-1
 186 68 l 1,10,-1
 244 68 l 1,11,-1
 244 0 l 1,12,-1
 45 0 l 1,13,-1
 45 68 l 1,14,-1
 109 68 l 1,15,-1
 109 430 l 1,16,-1
 45 430 l 1,17,-1
 45 500 l 1,18,-1
 244 500 l 1,19,-1
 244 430 l 1,20,-1
 186 430 l 1,21,-1
 186 294 l 1,22,-1
 312 294 l 1,23,-1
 312 411 l 2,24,25
 312 451 312 451 330.5 475.5 c 128,-1,26
 349 500 349 500 405 500 c 2,27,-1
 560 500 l 2,28,29
 615 500 615 500 634 475.5 c 128,-1,30
 653 451 653 451 653 411 c 2,31,-1
 653 89 l 2,32,33
 653 47 653 47 632 23.5 c 128,-1,34
 611 0 611 0 560 0 c 2,35,-1
 405 0 l 2,4,5
EndSplineSet
EndChar

StartChar: uni044F
Encoding: 1103 1103 265
Width: 480
Flags: W
LayerCount: 2
Fore
SplineSet
299 429 m 1,0,-1
 112 429 l 1,1,-1
 112 334 l 1,2,-1
 299 215 l 1,3,-1
 299 429 l 1,0,-1
378 429 m 1,4,-1
 378 67 l 1,5,-1
 440 67 l 1,6,-1
 440 0 l 1,7,-1
 244 0 l 1,8,-1
 244 67 l 1,9,-1
 299 67 l 1,10,-1
 299 141 l 1,11,-1
 216 192 l 1,12,-1
 188 89 l 2,13,14
 176 44 176 44 153 22 c 128,-1,15
 130 0 130 0 86 0 c 2,16,-1
 30 0 l 1,17,-1
 30 67 l 1,18,-1
 108 67 l 1,19,-1
 153 234 l 1,20,-1
 105 264 l 2,21,22
 92 272 92 272 79.5 280.5 c 128,-1,23
 67 289 67 289 57.5 300.5 c 128,-1,24
 48 312 48 312 42.5 327 c 128,-1,25
 37 342 37 342 37 363 c 2,26,-1
 37 422 l 2,27,28
 37 443 37 443 45 458 c 128,-1,29
 53 473 53 473 66 482 c 128,-1,30
 79 491 79 491 96 495.5 c 128,-1,31
 113 500 113 500 132 500 c 2,32,-1
 440 500 l 1,33,-1
 440 429 l 1,34,-1
 378 429 l 1,4,-1
EndSplineSet
EndChar

StartChar: uni0412
Encoding: 1042 1042 266
Width: 547
Flags: W
LayerCount: 2
Fore
SplineSet
417 424 m 1,0,-1
 205 291 l 1,1,-1
 205 69 l 1,2,-1
 417 69 l 1,3,-1
 417 424 l 1,0,-1
291 425 m 1,4,-1
 291 679 l 1,5,-1
 205 679 l 1,6,-1
 205 371 l 1,7,-1
 291 425 l 1,4,-1
376 479 m 2,8,9
 387 486 387 486 400 489 c 128,-1,10
 413 492 413 492 425 492 c 0,11,12
 454 492 454 492 475.5 471 c 128,-1,13
 497 450 497 450 497 406 c 2,14,-1
 497 88 l 2,15,16
 497 70 497 70 493.5 54 c 128,-1,17
 490 38 490 38 480 26 c 128,-1,18
 470 14 470 14 453 7 c 128,-1,19
 436 0 436 0 408 0 c 2,20,-1
 60 0 l 1,21,-1
 60 68 l 1,22,-1
 123 68 l 1,23,-1
 123 682 l 1,24,-1
 61 682 l 1,25,-1
 61 750 l 1,26,-1
 270 750 l 2,27,28
 323 750 323 750 347.5 726.5 c 128,-1,29
 372 703 372 703 372 661 c 2,30,-1
 372 476 l 1,31,-1
 376 479 l 2,8,9
EndSplineSet
EndChar

StartChar: uni0415
Encoding: 1045 1045 267
Width: 569
Flags: W
LayerCount: 2
Fore
SplineSet
50 326 m 1,0,-1
 113 366 l 1,1,-1
 113 682 l 1,2,-1
 50 682 l 1,3,-1
 50 750 l 1,4,-1
 519 750 l 1,5,-1
 519 565 l 1,6,-1
 451 565 l 1,7,-1
 451 682 l 1,8,-1
 195 682 l 1,9,-1
 195 416 l 1,10,-1
 367 525 l 1,11,-1
 367 444 l 1,12,-1
 195 337 l 1,13,-1
 195 68 l 1,14,-1
 451 68 l 1,15,-1
 451 185 l 1,16,-1
 519 185 l 1,17,-1
 519 0 l 1,18,-1
 50 0 l 1,19,-1
 50 68 l 1,20,-1
 113 68 l 1,21,-1
 113 285 l 1,22,-1
 50 245 l 1,23,-1
 50 326 l 1,0,-1
EndSplineSet
EndChar

StartChar: uni040F
Encoding: 1039 1039 268
Width: 698
Flags: W
LayerCount: 2
Fore
SplineSet
210 68 m 1,0,-1
 478 68 l 1,1,-1
 478 682 l 1,2,-1
 417 682 l 1,3,-1
 417 750 l 1,4,-1
 623 750 l 1,5,-1
 623 682 l 1,6,-1
 560 682 l 1,7,-1
 560 68 l 1,8,-1
 623 68 l 1,9,-1
 623 0 l 1,10,-1
 384 0 l 1,11,-1
 384 -150 l 1,12,-1
 304 -150 l 1,13,-1
 304 0 l 1,14,-1
 65 0 l 1,15,-1
 65 68 l 1,16,-1
 128 68 l 1,17,-1
 128 682 l 1,18,-1
 65 682 l 1,19,-1
 65 750 l 1,20,-1
 271 750 l 1,21,-1
 271 682 l 1,22,-1
 210 682 l 1,23,-1
 210 68 l 1,0,-1
EndSplineSet
EndChar

StartChar: uni045F
Encoding: 1119 1119 269
Width: 603
Flags: W
LayerCount: 2
Fore
SplineSet
200 70 m 1,0,-1
 413 70 l 1,1,-1
 413 432 l 1,2,-1
 355 432 l 1,3,-1
 355 500 l 1,4,-1
 555 500 l 1,5,-1
 555 432 l 1,6,-1
 491 432 l 1,7,-1
 491 70 l 1,8,-1
 555 70 l 1,9,-1
 555 0 l 1,10,-1
 343 0 l 1,11,-1
 343 -134 l 1,12,-1
 271 -134 l 1,13,-1
 271 0 l 1,14,-1
 59 0 l 1,15,-1
 59 70 l 1,16,-1
 123 70 l 1,17,-1
 123 432 l 1,18,-1
 59 432 l 1,19,-1
 59 500 l 1,20,-1
 258 500 l 1,21,-1
 258 432 l 1,22,-1
 200 432 l 1,23,-1
 200 70 l 1,0,-1
EndSplineSet
EndChar

StartChar: uni00AD
Encoding: 173 173 270
Width: 376
Flags: W
LayerCount: 2
Fore
SplineSet
52 238 m 1,0,-1
 52 301 l 1,1,-1
 325 301 l 1,2,-1
 325 238 l 1,3,-1
 52 238 l 1,0,-1
EndSplineSet
EndChar

StartChar: uni0402
Encoding: 1026 1026 271
Width: 686
Flags: W
LayerCount: 2
Fore
SplineSet
494 421 m 2,0,1
 518 421 518 421 539.5 415 c 128,-1,2
 561 409 561 409 577 395 c 128,-1,3
 593 381 593 381 602 358 c 128,-1,4
 611 335 611 335 611 301 c 2,5,-1
 611 -49 l 2,6,7
 611 -95 611 -95 577.5 -122 c 128,-1,8
 544 -149 544 -149 494 -149 c 2,9,-1
 429 -149 l 1,10,-1
 429 -80 l 1,11,-1
 530 -80 l 1,12,-1
 530 354 l 1,13,-1
 306 354 l 1,14,-1
 306 68 l 1,15,-1
 370 68 l 1,16,-1
 370 0 l 1,17,-1
 160 0 l 1,18,-1
 160 68 l 1,19,-1
 224 68 l 1,20,-1
 224 682 l 1,21,-1
 97 682 l 1,22,-1
 97 537 l 1,23,-1
 25 537 l 1,24,-1
 25 750 l 1,25,-1
 504 750 l 1,26,-1
 504 537 l 1,27,-1
 432 537 l 1,28,-1
 432 682 l 1,29,-1
 306 682 l 1,30,-1
 306 421 l 1,31,-1
 494 421 l 2,0,1
EndSplineSet
EndChar

StartChar: Euro
Encoding: 8364 8364 272
Width: 565
Flags: W
LayerCount: 2
Fore
SplineSet
40 501 m 1,0,-1
 100 501 l 1,1,-1
 100 642 l 2,2,3
 100 661 100 661 105 680.5 c 128,-1,4
 110 700 110 700 121 715.5 c 128,-1,5
 132 731 132 731 151 740.5 c 128,-1,6
 170 750 170 750 198 750 c 2,7,-1
 515 750 l 1,8,-1
 515 615 l 1,9,-1
 447 615 l 1,10,-1
 447 682 l 1,11,-1
 182 682 l 1,12,-1
 182 501 l 1,13,-1
 430 501 l 1,14,-1
 430 434 l 1,15,-1
 182 434 l 1,16,-1
 182 327 l 1,17,-1
 430 327 l 1,18,-1
 430 260 l 1,19,-1
 182 260 l 1,20,-1
 182 68 l 1,21,-1
 447 68 l 1,22,-1
 447 132 l 1,23,-1
 515 132 l 1,24,-1
 515 0 l 1,25,-1
 208 0 l 2,26,27
 178 0 178 0 157 8.5 c 128,-1,28
 136 17 136 17 123.5 31.5 c 128,-1,29
 111 46 111 46 105.5 65.5 c 128,-1,30
 100 85 100 85 100 107 c 2,31,-1
 100 260 l 1,32,-1
 40 260 l 1,33,-1
 40 327 l 1,34,-1
 100 327 l 1,35,-1
 100 434 l 1,36,-1
 40 434 l 1,37,-1
 40 501 l 1,0,-1
EndSplineSet
EndChar

StartChar: uni040B
Encoding: 1035 1035 273
Width: 736
Flags: W
LayerCount: 2
Fore
SplineSet
676 68 m 1,0,-1
 676 0 l 1,1,-1
 467 0 l 1,2,-1
 467 68 l 1,3,-1
 530 68 l 1,4,-1
 530 353 l 1,5,-1
 306 353 l 1,6,-1
 306 68 l 1,7,-1
 369 68 l 1,8,-1
 369 0 l 1,9,-1
 161 0 l 1,10,-1
 161 68 l 1,11,-1
 224 68 l 1,12,-1
 224 682 l 1,13,-1
 97 682 l 1,14,-1
 97 537 l 1,15,-1
 25 537 l 1,16,-1
 25 750 l 1,17,-1
 504 750 l 1,18,-1
 504 537 l 1,19,-1
 431 537 l 1,20,-1
 431 682 l 1,21,-1
 306 682 l 1,22,-1
 306 420 l 1,23,-1
 493 420 l 2,24,25
 517 420 517 420 538.5 414 c 128,-1,26
 560 408 560 408 576 394 c 128,-1,27
 592 380 592 380 601.5 357 c 128,-1,28
 611 334 611 334 611 300 c 2,29,-1
 611 68 l 1,30,-1
 676 68 l 1,0,-1
EndSplineSet
EndChar

StartChar: uni0452
Encoding: 1106 1106 274
Width: 566
Flags: W
LayerCount: 2
Fore
SplineSet
60 500 m 1,0,-1
 130 500 l 1,1,-1
 130 682 l 1,2,-1
 67 682 l 1,3,-1
 67 750 l 1,4,-1
 212 750 l 1,5,-1
 212 500 l 1,6,-1
 435 500 l 1,7,-1
 435 433 l 1,8,-1
 212 433 l 1,9,-1
 212 318 l 1,10,-1
 389 318 l 2,11,12
 413 318 413 318 434.5 312 c 128,-1,13
 456 306 456 306 472 292 c 128,-1,14
 488 278 488 278 497 255 c 128,-1,15
 506 232 506 232 506 198 c 2,16,-1
 506 -49 l 2,17,18
 506 -95 506 -95 472.5 -122 c 128,-1,19
 439 -149 439 -149 389 -149 c 2,20,-1
 324 -149 l 1,21,-1
 324 -80 l 1,22,-1
 425 -80 l 1,23,-1
 425 251 l 1,24,-1
 212 251 l 1,25,-1
 212 68 l 1,26,-1
 276 68 l 1,27,-1
 276 0 l 1,28,-1
 66 0 l 1,29,-1
 66 68 l 1,30,-1
 130 68 l 1,31,-1
 130 433 l 1,32,-1
 60 433 l 1,33,-1
 60 500 l 1,0,-1
EndSplineSet
EndChar

StartChar: uni045B
Encoding: 1115 1115 275
Width: 639
Flags: W
LayerCount: 2
Fore
SplineSet
84 500 m 1,0,-1
 159 500 l 1,1,-1
 159 682 l 1,2,-1
 95 682 l 1,3,-1
 95 750 l 1,4,-1
 241 750 l 1,5,-1
 241 500 l 1,6,-1
 452 500 l 1,7,-1
 452 432 l 1,8,-1
 241 432 l 1,9,-1
 241 318 l 1,10,-1
 414 318 l 2,11,12
 438 318 438 318 459 313.5 c 128,-1,13
 480 309 480 309 495.5 297 c 128,-1,14
 511 285 511 285 520 263.5 c 128,-1,15
 529 242 529 242 529 208 c 2,16,-1
 529 68 l 1,17,-1
 594 68 l 1,18,-1
 594 0 l 1,19,-1
 388 0 l 1,20,-1
 388 68 l 1,21,-1
 451 68 l 1,22,-1
 451 251 l 1,23,-1
 241 251 l 1,24,-1
 241 68 l 1,25,-1
 304 68 l 1,26,-1
 304 0 l 1,27,-1
 96 0 l 1,28,-1
 96 68 l 1,29,-1
 159 68 l 1,30,-1
 159 432 l 1,31,-1
 84 432 l 1,32,-1
 84 500 l 1,0,-1
EndSplineSet
EndChar

StartChar: uni0409
Encoding: 1033 1033 276
Width: 927
Flags: W
LayerCount: 2
Fore
SplineSet
794 223 m 1,0,-1
 543 381 l 1,1,-1
 543 68 l 1,2,-1
 794 68 l 1,3,-1
 794 223 l 1,0,-1
773 318 m 2,4,5
 822 288 822 288 844.5 253.5 c 128,-1,6
 867 219 867 219 867 176 c 2,7,-1
 867 118 l 2,8,9
 867 83 867 83 862 60.5 c 128,-1,10
 857 38 857 38 846 24.5 c 128,-1,11
 835 11 835 11 817 5.5 c 128,-1,12
 799 0 799 0 772 0 c 2,13,-1
 401 0 l 1,14,-1
 401 69 l 1,15,-1
 460 69 l 1,16,-1
 460 682 l 1,17,-1
 405 682 l 1,18,-1
 199 99 l 1,19,20
 187 54 187 54 159.5 27 c 128,-1,21
 132 0 132 0 83 0 c 2,22,-1
 25 0 l 1,23,-1
 25 68 l 1,24,-1
 112 68 l 1,25,-1
 330 682 l 1,26,-1
 251 682 l 1,27,-1
 251 750 l 1,28,-1
 613 750 l 1,29,-1
 613 682 l 1,30,-1
 543 682 l 1,31,-1
 543 463 l 1,32,-1
 773 318 l 2,4,5
EndSplineSet
EndChar

StartChar: uni040A
Encoding: 1034 1034 277
Width: 919
Flags: W
LayerCount: 2
Fore
SplineSet
787 223 m 1,0,-1
 536 381 l 1,1,-1
 536 68 l 1,2,-1
 787 68 l 1,3,-1
 787 223 l 1,0,-1
766 318 m 2,4,5
 815 288 815 288 837.5 253.5 c 128,-1,6
 860 219 860 219 860 176 c 2,7,-1
 860 118 l 2,8,9
 860 83 860 83 855 60.5 c 128,-1,10
 850 38 850 38 839 24.5 c 128,-1,11
 828 11 828 11 810 5.5 c 128,-1,12
 792 0 792 0 765 0 c 2,13,-1
 392 0 l 1,14,-1
 392 68 l 1,15,-1
 453 68 l 1,16,-1
 453 354 l 1,17,-1
 195 354 l 1,18,-1
 195 68 l 1,19,-1
 256 68 l 1,20,-1
 256 0 l 1,21,-1
 50 0 l 1,22,-1
 50 68 l 1,23,-1
 113 68 l 1,24,-1
 113 682 l 1,25,-1
 50 682 l 1,26,-1
 50 750 l 1,27,-1
 256 750 l 1,28,-1
 256 682 l 1,29,-1
 195 682 l 1,30,-1
 195 421 l 1,31,-1
 453 421 l 1,32,-1
 453 682 l 1,33,-1
 392 682 l 1,34,-1
 392 750 l 1,35,-1
 606 750 l 1,36,-1
 606 682 l 1,37,-1
 536 682 l 1,38,-1
 536 463 l 1,39,-1
 766 318 l 2,4,5
EndSplineSet
EndChar

StartChar: uni0459
Encoding: 1113 1113 278
Width: 786
Flags: W
LayerCount: 2
Fore
SplineSet
650 273 m 1,0,-1
 454 150 l 1,1,-1
 454 68 l 1,2,-1
 650 68 l 1,3,-1
 650 273 l 1,0,-1
521 500 m 1,4,-1
 521 429 l 1,5,-1
 454 429 l 1,6,-1
 454 230 l 1,7,-1
 620 335 l 2,8,9
 644 350 644 350 666 350 c 0,10,11
 693 350 693 350 711 331 c 128,-1,12
 729 312 729 312 729 281 c 2,13,-1
 729 88 l 2,14,15
 729 69 729 69 726.5 53 c 128,-1,16
 724 37 724 37 715 25 c 128,-1,17
 706 13 706 13 688.5 6.5 c 128,-1,18
 671 0 671 0 641 0 c 2,19,-1
 310 0 l 1,20,-1
 310 67 l 1,21,-1
 375 67 l 1,22,-1
 375 430 l 1,23,-1
 314 430 l 1,24,-1
 186 89 l 2,25,26
 170 46 170 46 147.5 23 c 128,-1,27
 125 0 125 0 81 0 c 2,28,-1
 25 0 l 1,29,-1
 25 67 l 1,30,-1
 103 67 l 1,31,-1
 243 430 l 1,32,-1
 176 430 l 1,33,-1
 176 500 l 1,34,-1
 521 500 l 1,4,-1
EndSplineSet
EndChar

StartChar: uni045A
Encoding: 1114 1114 279
Width: 798
Flags: W
LayerCount: 2
Fore
SplineSet
669 273 m 1,0,-1
 473 150 l 1,1,-1
 473 68 l 1,2,-1
 669 68 l 1,3,-1
 669 273 l 1,0,-1
336 68 m 1,4,-1
 394 68 l 1,5,-1
 394 222 l 1,6,-1
 186 222 l 1,7,-1
 186 68 l 1,8,-1
 244 68 l 1,9,-1
 244 0 l 1,10,-1
 45 0 l 1,11,-1
 45 68 l 1,12,-1
 109 68 l 1,13,-1
 109 430 l 1,14,-1
 45 430 l 1,15,-1
 45 500 l 1,16,-1
 244 500 l 1,17,-1
 244 430 l 1,18,-1
 186 430 l 1,19,-1
 186 294 l 1,20,-1
 394 294 l 1,21,-1
 394 430 l 1,22,-1
 336 430 l 1,23,-1
 336 500 l 1,24,-1
 540 500 l 1,25,-1
 540 429 l 1,26,-1
 473 429 l 1,27,-1
 473 230 l 1,28,-1
 639 335 l 2,29,30
 663 350 663 350 685 350 c 0,31,32
 712 350 712 350 730 331 c 128,-1,33
 748 312 748 312 748 281 c 2,34,-1
 748 88 l 2,35,36
 748 69 748 69 745.5 53 c 128,-1,37
 743 37 743 37 734 25 c 128,-1,38
 725 13 725 13 707.5 6.5 c 128,-1,39
 690 0 690 0 660 0 c 2,40,-1
 336 0 l 1,41,-1
 336 68 l 1,4,-1
EndSplineSet
EndChar

StartChar: brokenbar
Encoding: 166 166 280
Width: 259
Flags: W
LayerCount: 2
Fore
SplineSet
169 212 m 1,0,-1
 169 -150 l 1,1,-1
 100 -150 l 1,2,-1
 100 212 l 1,3,-1
 169 212 l 1,0,-1
169 750 m 1,4,-1
 169 389 l 1,5,-1
 100 389 l 1,6,-1
 100 750 l 1,7,-1
 169 750 l 1,4,-1
EndSplineSet
EndChar

StartChar: uni2116
Encoding: 8470 8470 281
Width: 1021
Flags: W
LayerCount: 2
Fore
SplineSet
678 114 m 1,0,-1
 951 114 l 1,1,-1
 951 47 l 1,2,-1
 678 47 l 1,3,-1
 678 114 l 1,0,-1
882 439 m 1,4,-1
 752 439 l 1,5,-1
 752 229 l 1,6,-1
 882 229 l 1,7,-1
 882 439 l 1,4,-1
828 501 m 2,8,9
 868 501 868 501 893 495.5 c 128,-1,10
 918 490 918 490 931 475.5 c 128,-1,11
 944 461 944 461 948.5 436 c 128,-1,12
 953 411 953 411 953 373 c 2,13,-1
 953 286 l 2,14,15
 953 250 953 250 949.5 226.5 c 128,-1,16
 946 203 946 203 934 188.5 c 128,-1,17
 922 174 922 174 899.5 168.5 c 128,-1,18
 877 163 877 163 838 163 c 2,19,-1
 800 163 l 2,20,21
 765 163 765 163 741.5 167.5 c 128,-1,22
 718 172 718 172 704 184.5 c 128,-1,23
 690 197 690 197 684.5 219.5 c 128,-1,24
 679 242 679 242 679 278 c 2,25,-1
 679 389 l 2,26,27
 679 422 679 422 685 443.5 c 128,-1,28
 691 465 691 465 704.5 478 c 128,-1,29
 718 491 718 491 740 496 c 128,-1,30
 762 501 762 501 794 501 c 2,31,-1
 828 501 l 2,8,9
654 682 m 1,32,-1
 591 682 l 1,33,-1
 591 0 l 1,34,-1
 493 0 l 1,35,-1
 210 584 l 1,36,-1
 210 68 l 1,37,-1
 275 68 l 1,38,-1
 275 0 l 1,39,-1
 65 0 l 1,40,-1
 65 68 l 1,41,-1
 128 68 l 1,42,-1
 128 682 l 1,43,-1
 65 682 l 1,44,-1
 65 750 l 1,45,-1
 219 750 l 1,46,-1
 509 154 l 1,47,-1
 509 682 l 1,48,-1
 444 682 l 1,49,-1
 444 750 l 1,50,-1
 654 750 l 1,51,-1
 654 682 l 1,32,-1
EndSplineSet
EndChar

StartChar: uni041C
Encoding: 1052 1052 282
Width: 860
Flags: W
LayerCount: 2
Fore
SplineSet
65 682 m 1,0,-1
 65 750 l 1,1,-1
 219 750 l 1,2,-1
 431 313 l 1,3,-1
 641 750 l 1,4,-1
 795 750 l 1,5,-1
 795 682 l 1,6,-1
 732 682 l 1,7,-1
 732 68 l 1,8,-1
 795 68 l 1,9,-1
 795 0 l 1,10,-1
 585 0 l 1,11,-1
 585 68 l 1,12,-1
 650 68 l 1,13,-1
 650 583 l 1,14,-1
 461 194 l 1,15,-1
 398 194 l 1,16,-1
 210 586 l 1,17,-1
 210 68 l 1,18,-1
 275 68 l 1,19,-1
 275 0 l 1,20,-1
 65 0 l 1,21,-1
 65 68 l 1,22,-1
 128 68 l 1,23,-1
 128 682 l 1,24,-1
 65 682 l 1,0,-1
EndSplineSet
EndChar

StartChar: uni0490
Encoding: 1168 1168 283
Width: 518
Flags: W
LayerCount: 2
Fore
SplineSet
205 68 m 1,0,-1
 270 68 l 1,1,-1
 270 0 l 1,2,-1
 60 0 l 1,3,-1
 60 68 l 1,4,-1
 123 68 l 1,5,-1
 123 682 l 1,6,-1
 60 682 l 1,7,-1
 60 750 l 1,8,-1
 424 750 l 1,9,-1
 424 870 l 1,10,-1
 493 870 l 1,11,-1
 493 682 l 1,12,-1
 205 682 l 1,13,-1
 205 68 l 1,0,-1
EndSplineSet
EndChar

StartChar: uni0491
Encoding: 1169 1169 284
Width: 442
Flags: W
LayerCount: 2
Fore
SplineSet
50 67 m 1,0,-1
 115 67 l 1,1,-1
 115 429 l 1,2,-1
 50 429 l 1,3,-1
 50 500 l 1,4,-1
 347 500 l 1,5,-1
 347 593 l 1,6,-1
 417 593 l 1,7,-1
 417 429 l 1,8,-1
 191 429 l 1,9,-1
 191 67 l 1,10,-1
 268 67 l 1,11,-1
 268 0 l 1,12,-1
 50 0 l 1,13,-1
 50 67 l 1,0,-1
EndSplineSet
EndChar

StartChar: uni0454
Encoding: 1108 1108 285
Width: 435
Flags: W
LayerCount: 2
Fore
SplineSet
127 68 m 1,0,-1
 318 68 l 1,1,-1
 318 146 l 1,2,-1
 385 146 l 1,3,-1
 385 0 l 1,4,-1
 135 0 l 2,5,6
 106 0 106 0 89 7 c 128,-1,7
 72 14 72 14 63.5 26 c 128,-1,8
 55 38 55 38 52.5 54 c 128,-1,9
 50 70 50 70 50 88 c 2,10,-1
 50 411 l 2,11,12
 50 453 50 453 69 476.5 c 128,-1,13
 88 500 88 500 144 500 c 2,14,-1
 385 500 l 1,15,-1
 385 354 l 1,16,-1
 318 354 l 1,17,-1
 318 431 l 1,18,-1
 127 431 l 1,19,-1
 127 291 l 1,20,-1
 265 291 l 1,21,-1
 265 225 l 1,22,-1
 127 225 l 1,23,-1
 127 68 l 1,0,-1
EndSplineSet
EndChar

StartChar: uni0404
Encoding: 1028 1028 286
Width: 499
Flags: W
LayerCount: 2
Fore
SplineSet
459 750 m 1,0,-1
 459 565 l 1,1,-1
 387 565 l 1,2,-1
 387 682 l 1,3,-1
 122 682 l 1,4,-1
 122 422 l 1,5,-1
 349 422 l 1,6,-1
 349 355 l 1,7,-1
 122 355 l 1,8,-1
 122 68 l 1,9,-1
 387 68 l 1,10,-1
 387 185 l 1,11,-1
 459 185 l 1,12,-1
 459 0 l 1,13,-1
 143 0 l 2,14,15
 116 0 116 0 96.5 8 c 128,-1,16
 77 16 77 16 64.5 29.5 c 128,-1,17
 52 43 52 43 46 61 c 128,-1,18
 40 79 40 79 40 98 c 2,19,-1
 40 652 l 2,20,21
 40 699 40 699 63.5 724.5 c 128,-1,22
 87 750 87 750 143 750 c 2,23,-1
 459 750 l 1,0,-1
EndSplineSet
EndChar

StartChar: multiply
Encoding: 215 215 287
Width: 373
Flags: W
LayerCount: 2
Fore
SplineSet
366 254 m 1,0,-1
 320 208 l 1,1,-1
 187 340 l 1,2,-1
 54 207 l 1,3,-1
 5 256 l 1,4,-1
 138 389 l 1,5,-1
 6 521 l 1,6,-1
 52 568 l 1,7,-1
 185 436 l 1,8,-1
 318 570 l 1,9,-1
 368 520 l 1,10,-1
 234 386 l 1,11,-1
 366 254 l 1,0,-1
EndSplineSet
EndChar

StartChar: onesuperior
Encoding: 185 185 288
Width: 170
Flags: W
LayerCount: 2
Fore
SplineSet
16 466 m 1,0,-1
 62 466 l 1,1,-1
 62 703 l 1,2,-1
 4 703 l 1,3,-1
 4 750 l 1,4,-1
 70 750 l 2,5,6
 94 750 94 750 104.5 739.5 c 128,-1,7
 115 729 115 729 115 709 c 2,8,-1
 115 466 l 1,9,-1
 158 466 l 1,10,-1
 158 420 l 1,11,-1
 16 420 l 1,12,-1
 16 466 l 1,0,-1
EndSplineSet
EndChar

StartChar: twosuperior
Encoding: 178 178 289
Width: 291
Flags: W
LayerCount: 2
Fore
SplineSet
44 500 m 2,0,1
 44 538 44 538 72 556 c 1,2,-1
 205 629 l 1,3,-1
 205 707 l 1,4,-1
 95 707 l 1,5,-1
 95 655 l 1,6,-1
 45 655 l 1,7,-1
 45 750 l 1,8,-1
 189 750 l 2,9,10
 227 750 227 750 242.5 738 c 128,-1,11
 258 726 258 726 258 694 c 2,12,-1
 258 643 l 2,13,14
 258 630 258 630 252 617 c 128,-1,15
 246 604 246 604 231 596 c 0,16,17
 196 576 196 576 162.5 556.5 c 128,-1,18
 129 537 129 537 94 517 c 1,19,-1
 94 462 l 1,20,-1
 205 462 l 1,21,-1
 205 501 l 1,22,-1
 258 501 l 1,23,-1
 258 420 l 1,24,-1
 44 420 l 1,25,-1
 44 500 l 2,0,1
EndSplineSet
EndChar

StartChar: threesuperior
Encoding: 179 179 290
Width: 296
Flags: W
LayerCount: 2
Fore
SplineSet
258 711 m 1,0,-1
 151 617 l 1,1,-1
 195 617 l 2,2,3
 230 617 230 617 243.5 604 c 128,-1,4
 257 591 257 591 257 560 c 2,5,-1
 257 484 l 2,6,7
 257 468 257 468 254.5 456 c 128,-1,8
 252 444 252 444 244.5 436 c 128,-1,9
 237 428 237 428 222.5 424 c 128,-1,10
 208 420 208 420 184 420 c 2,11,-1
 110 420 l 2,12,13
 87 420 87 420 73.5 425 c 128,-1,14
 60 430 60 430 53.5 439 c 128,-1,15
 47 448 47 448 45.5 459.5 c 128,-1,16
 44 471 44 471 44 485 c 2,17,-1
 44 515 l 1,18,-1
 93 515 l 1,19,-1
 93 459 l 1,20,-1
 204 459 l 1,21,-1
 204 575 l 1,22,-1
 79 575 l 1,23,-1
 79 613 l 1,24,-1
 188 707 l 1,25,-1
 93 707 l 1,26,-1
 93 677 l 1,27,-1
 44 677 l 1,28,-1
 44 750 l 1,29,-1
 258 750 l 1,30,-1
 258 711 l 1,0,-1
EndSplineSet
EndChar

StartChar: Scaron
Encoding: 352 352 291
Width: 542
Flags: W
LayerCount: 2
Fore
SplineSet
307 809 m 1,0,-1
 240 809 l 1,1,-1
 128 932 l 1,2,-1
 202 932 l 1,3,-1
 272 852 l 1,4,-1
 341 932 l 1,5,-1
 414 932 l 1,6,-1
 307 809 l 1,0,-1
388 367 m 1,7,8
 408 353 408 353 425.5 342.5 c 128,-1,9
 443 332 443 332 455.5 320.5 c 128,-1,10
 468 309 468 309 475 295.5 c 128,-1,11
 482 282 482 282 482 261 c 2,12,-1
 482 91 l 2,13,14
 482 67 482 67 473.5 50 c 128,-1,15
 465 33 465 33 450.5 21.5 c 128,-1,16
 436 10 436 10 417.5 5 c 128,-1,17
 399 0 399 0 379 0 c 2,18,-1
 60 0 l 1,19,-1
 60 185 l 1,20,-1
 132 185 l 1,21,-1
 132 68 l 1,22,-1
 402 68 l 1,23,-1
 402 263 l 1,24,-1
 140 424 l 1,25,26
 105 444 105 444 82.5 465.5 c 128,-1,27
 60 487 60 487 60 524 c 2,28,-1
 60 650 l 2,29,30
 60 681 60 681 67 700.5 c 128,-1,31
 74 720 74 720 88 731 c 128,-1,32
 102 742 102 742 122.5 746 c 128,-1,33
 143 750 143 750 171 750 c 2,34,-1
 473 750 l 1,35,-1
 473 565 l 1,36,-1
 401 565 l 1,37,-1
 401 682 l 1,38,-1
 140 682 l 1,39,-1
 140 522 l 1,40,-1
 388 367 l 1,7,8
EndSplineSet
EndChar

